<?xml version="1.0" standalone="no"?>
<!DOCTYPE svg PUBLIC "-//W3C//DTD SVG 1.1//EN" "http://www.w3.org/Graphics/SVG/1.1/DTD/svg11.dtd" >
<svg>
<metadata>
Created by FontForge 20090914 at Tue Mar 23 10:00:35 2021
 By www-data
&#194;&#169; 2015-2017 Apple Inc. All rights reserved.
</metadata>
<defs>
<font id="SFCompactDisplay-Regular" horiz-adv-x="1800" >
  <font-face 
    font-family="SF Compact Display"
    font-weight="400"
    font-stretch="normal"
    units-per-em="2048"
    panose-1="2 11 5 4 3 2 2 6 2 4"
    ascent="1638"
    descent="-410"
    x-height="1051"
    cap-height="1365"
    bbox="-417 -494.002 2338 2076"
    underline-thickness="50"
    underline-position="-150"
    unicode-range="U+0020-U+1F189"
  />
<missing-glyph horiz-adv-x="2048" 
d="M100 -494v286h1848v-286h-1848zM100 -62v285h1848v-285h-1848zM100 369v286h1848v-286h-1848zM100 801v286h1848v-286h-1848zM100 1233v285h1848v-285h-1848zM100 1664v286h1848v-286h-1848z" />
    <glyph glyph-name="uni2460" unicode="&#x31;&#x20dd;" 
d="M987 380h-121v516l-155 -104v107l152 107h124v-626zM900 71c108.667 0 209.167 27.5 301.5 82.5s165.333 129.667 219 224s80.5 196.5 80.5 306.5s-26.833 212.167 -80.5 306.5s-126.667 169 -219 224s-192.833 82.5 -301.5 82.5
c-81.333 0 -159.166 -16.333 -233.499 -49s-138.166 -76.5 -191.499 -131.5s-95.833 -120.167 -127.5 -195.5s-47.5 -154.333 -47.5 -237s15.833 -161.667 47.5 -237s74.167 -140.5 127.5 -195.5s117.166 -98.833 191.499 -131.5s152.166 -49 233.499 -49zM900 -36
c-97.333 0 -190.5 19 -279.5 57s-165.667 89.167 -230 153.5s-115.5 141 -153.5 230s-57 182.167 -57 279.5s19 190.5 57 279.5s89.167 165.667 153.5 230s141 115.5 230 153.5s182.167 57 279.5 57s190.5 -19 279.5 -57s165.667 -89.167 230 -153.5s115.5 -141 153.5 -230
s57 -182.167 57 -279.5s-19 -190.5 -57 -279.5s-89.167 -165.667 -153.5 -230s-141 -115.5 -230 -153.5s-182.167 -57 -279.5 -57z" />
    <glyph glyph-name="uni2461" unicode="&#x32;&#x20dd;" 
d="M795 823l-114.001 0.000976562v4c0 56.667 20.5 102.834 61.5 138.501s94.167 53.5 159.5 53.5c66 0 119.333 -16.333 160 -49s61 -75 61 -127c0 -28.667 -8.83301 -58.334 -26.5 -89.001s-47.167 -67.334 -88.5 -110.001l-160 -166c29.333 0 77 -0.333008 143 -1
s113.667 -1 143 -1v-96h-448v74l241 250c49.333 50 74 93 74 129c0 26.667 -9.66699 48.667 -29 66s-43.666 26 -72.999 26s-54 -9.5 -74 -28.5s-30 -42.167 -30 -69.5v-4zM899.999 71.001c108.667 0 209.167 27.5 301.5 82.5s165.333 129.667 219 224
s80.5 196.5 80.5 306.5s-26.833 212.167 -80.5 306.5s-126.667 169 -219 224s-192.833 82.5 -301.5 82.5c-81.333 0 -159.166 -16.333 -233.499 -49s-138.166 -76.5 -191.499 -131.5s-95.833 -120.167 -127.5 -195.5s-47.5 -154.333 -47.5 -237s15.833 -161.667 47.5 -237
s74.167 -140.5 127.5 -195.5s117.166 -98.833 191.499 -131.5s152.166 -49 233.499 -49zM899.999 -35.999c-97.333 0 -190.5 19 -279.5 57s-165.667 89.167 -230 153.5s-115.5 141 -153.5 230s-57 182.167 -57 279.5s19 190.5 57 279.5s89.167 165.667 153.5 230
s141 115.5 230 153.5s182.167 57 279.5 57s190.5 -19 279.5 -57s165.667 -89.167 230 -153.5s115.5 -141 153.5 -230s57 -182.167 57 -279.5s-19 -190.5 -57 -279.5s-89.167 -165.667 -153.5 -230s-141 -115.5 -230 -153.5s-182.167 -57 -279.5 -57z" />
    <glyph glyph-name="uni2462" unicode="&#x33;&#x20dd;" 
d="M830 657l0.00292969 91.001h68c30.667 0 56 8.66699 76 26s30 39 30 65s-9.83301 47.167 -29.5 63.5s-45.167 24.5 -76.5 24.5c-27.333 0 -51.333 -7.5 -72 -22.5s-32.334 -33.833 -35.001 -56.5h-113c3.33301 51.333 25.166 92.5 65.499 123.5s93.166 46.5 158.499 46.5
c68 0 121.167 -14.333 159.5 -43s58.166 -68.667 59.499 -120c0.666992 -34.667 -9.66602 -65 -30.999 -91s-50.666 -43 -87.999 -51v-7c42 -6.66699 76 -23.5 102 -50.5s39.333 -60.5 40 -100.5c0.666992 -55.333 -21.833 -100.333 -67.5 -135s-105.5 -52 -179.5 -52
c-66.667 0 -121.334 15.667 -164.001 47s-65 72.666 -67 123.999h109c3.33301 -23.333 16.5 -42.5 39.5 -57.5s50.833 -22.5 83.5 -22.5c36 0 65.833 9.5 89.5 28.5s35.5 42.833 35.5 71.5s-11.5 52.167 -34.5 70.5s-52.167 27.5 -87.5 27.5h-71zM900.003 71.001
c108.667 0 209.167 27.5 301.5 82.5s165.333 129.667 219 224s80.5 196.5 80.5 306.5s-26.833 212.167 -80.5 306.5s-126.667 169 -219 224s-192.833 82.5 -301.5 82.5c-81.333 0 -159.166 -16.333 -233.499 -49s-138.166 -76.5 -191.499 -131.5
s-95.833 -120.167 -127.5 -195.5s-47.5 -154.333 -47.5 -237s15.833 -161.667 47.5 -237s74.167 -140.5 127.5 -195.5s117.166 -98.833 191.499 -131.5s152.166 -49 233.499 -49zM900.003 -35.999c-97.333 0 -190.5 19 -279.5 57s-165.667 89.167 -230 153.5
s-115.5 141 -153.5 230s-57 182.167 -57 279.5s19 190.5 57 279.5s89.167 165.667 153.5 230s141 115.5 230 153.5s182.167 57 279.5 57s190.5 -19 279.5 -57s165.667 -89.167 230 -153.5s115.5 -141 153.5 -230s57 -182.167 57 -279.5s-19 -190.5 -57 -279.5
s-89.167 -165.667 -153.5 -230s-141 -115.5 -230 -153.5s-182.167 -57 -279.5 -57z" />
    <glyph glyph-name="uni2463" unicode="&#x34;&#x20dd;" 
d="M871 1006h178v-414h83v-93h-83v-119h-112v119h-319v96c56 103.333 140.333 240.333 253 411zM937 592v333h-2c-102.667 -150.667 -172.667 -261.667 -210 -333h212zM900 71c108.667 0 209.167 27.5 301.5 82.5s165.333 129.667 219 224s80.5 196.5 80.5 306.5
s-26.833 212.167 -80.5 306.5s-126.667 169 -219 224s-192.833 82.5 -301.5 82.5c-81.333 0 -159.166 -16.333 -233.499 -49s-138.166 -76.5 -191.499 -131.5s-95.833 -120.167 -127.5 -195.5s-47.5 -154.333 -47.5 -237s15.833 -161.667 47.5 -237
s74.167 -140.5 127.5 -195.5s117.166 -98.833 191.499 -131.5s152.166 -49 233.499 -49zM900 -36c-97.333 0 -190.5 19 -279.5 57s-165.667 89.167 -230 153.5s-115.5 141 -153.5 230s-57 182.167 -57 279.5s19 190.5 57 279.5s89.167 165.667 153.5 230
s141 115.5 230 153.5s182.167 57 279.5 57s190.5 -19 279.5 -57s165.667 -89.167 230 -153.5s115.5 -141 153.5 -230s57 -182.167 57 -279.5s-19 -190.5 -57 -279.5s-89.167 -165.667 -153.5 -230s-141 -115.5 -230 -153.5s-182.167 -57 -279.5 -57z" />
    <glyph glyph-name="uni2464" unicode="&#x35;&#x20dd;" 
d="M793 537c5.33301 -23.333 18.833 -41.667 40.5 -55s47.834 -20 78.501 -20c36 0 65.667 11.667 89 35s35 53 35 89c0 33.333 -11.667 61.333 -35 84s-52.333 34 -87 34c-22.667 0 -43.834 -5.33301 -63.501 -16s-35.167 -25 -46.5 -43h-112l30 361h393v-93h-299l-16 -176
h9c12 16 30.167 29 54.5 39s50.166 15 77.499 15c62.667 0 113.334 -18.5 152.001 -55.5s58 -85.833 58 -146.5c0 -66.667 -22.5 -120.167 -67.5 -160.5s-104.167 -60.5 -177.5 -60.5c-63.333 0 -116.333 15.667 -159 47s-66 72 -70 122h116zM900 70.999
c108.667 0 209.167 27.5 301.5 82.5s165.333 129.667 219 224s80.5 196.5 80.5 306.5s-26.833 212.167 -80.5 306.5s-126.667 169 -219 224s-192.833 82.5 -301.5 82.5c-81.333 0 -159.166 -16.333 -233.499 -49s-138.166 -76.5 -191.499 -131.5
s-95.833 -120.167 -127.5 -195.5s-47.5 -154.333 -47.5 -237s15.833 -161.667 47.5 -237s74.167 -140.5 127.5 -195.5s117.166 -98.833 191.499 -131.5s152.166 -49 233.499 -49zM900 -36.001c-97.333 0 -190.5 19 -279.5 57s-165.667 89.167 -230 153.5
s-115.5 141 -153.5 230s-57 182.167 -57 279.5s19 190.5 57 279.5s89.167 165.667 153.5 230s141 115.5 230 153.5s182.167 57 279.5 57s190.5 -19 279.5 -57s165.667 -89.167 230 -153.5s115.5 -141 153.5 -230s57 -182.167 57 -279.5s-19 -190.5 -57 -279.5
s-89.167 -165.667 -153.5 -230s-141 -115.5 -230 -153.5s-182.167 -57 -279.5 -57z" />
    <glyph glyph-name="uni2465" unicode="&#x36;&#x20dd;" 
d="M1009 874c-5.33301 15.333 -17.3291 27.834 -35.9961 37.501s-39.334 14.5 -62.001 14.5c-38.667 0 -70.834 -17 -96.501 -51s-41.167 -79.667 -46.5 -137c-1.33301 -8.66699 -2 -21.667 -2 -39h2c12 26 33.667 47.5 65 64.5s64.666 25.5 99.999 25.5
c62 0 112.333 -19 151 -57s58 -87.667 58 -149c0 -64.667 -21.833 -116.5 -65.5 -155.5s-101.834 -58.5 -174.501 -58.5c-82 0 -144.667 27.667 -188 83c-42 54 -63 131.333 -63 232c0 110 22 193.167 66 249.5s109.333 84.5 196 84.5c58 0 106.333 -13.333 145 -40
s60.667 -61.334 66 -104.001h-115zM785.004 584.001c0 -36.667 11.165 -66.332 33.498 -88.999s51.5 -34 87.5 -34c34.667 0 63.167 11.333 85.5 34s33.5 51.667 33.5 87s-11.167 64.166 -33.5 86.499s-51.166 33.5 -86.499 33.5s-64.166 -11 -86.499 -33
s-33.5 -50.333 -33.5 -85zM900.002 71.0029c108.667 0 209.167 27.5 301.5 82.5s165.333 129.667 219 224s80.5 196.5 80.5 306.5s-26.833 212.167 -80.5 306.5s-126.667 169 -219 224s-192.833 82.5 -301.5 82.5c-81.333 0 -159.166 -16.333 -233.499 -49
s-138.166 -76.5 -191.499 -131.5s-95.833 -120.167 -127.5 -195.5s-47.5 -154.333 -47.5 -237s15.833 -161.667 47.5 -237s74.167 -140.5 127.5 -195.5s117.166 -98.833 191.499 -131.5s152.166 -49 233.499 -49zM900.002 -35.9971c-97.333 0 -190.5 19 -279.5 57
s-165.667 89.167 -230 153.5s-115.5 141 -153.5 230s-57 182.167 -57 279.5s19 190.5 57 279.5s89.167 165.667 153.5 230s141 115.5 230 153.5s182.167 57 279.5 57s190.5 -19 279.5 -57s165.667 -89.167 230 -153.5s115.5 -141 153.5 -230s57 -182.167 57 -279.5
s-19 -190.5 -57 -279.5s-89.167 -165.667 -153.5 -230s-141 -115.5 -230 -153.5s-182.167 -57 -279.5 -57z" />
    <glyph glyph-name="uni2466" unicode="&#x37;&#x20dd;" 
d="M694 996h448v-97l-269 -528h-126l274 527v1h-327v97zM900 71c108.667 0 209.167 27.5 301.5 82.5s165.333 129.667 219 224s80.5 196.5 80.5 306.5s-26.833 212.167 -80.5 306.5s-126.667 169 -219 224s-192.833 82.5 -301.5 82.5
c-81.333 0 -159.166 -16.333 -233.499 -49s-138.166 -76.5 -191.499 -131.5s-95.833 -120.167 -127.5 -195.5s-47.5 -154.333 -47.5 -237s15.833 -161.667 47.5 -237s74.167 -140.5 127.5 -195.5s117.166 -98.833 191.499 -131.5s152.166 -49 233.499 -49zM900 -36
c-97.333 0 -190.5 19 -279.5 57s-165.667 89.167 -230 153.5s-115.5 141 -153.5 230s-57 182.167 -57 279.5s19 190.5 57 279.5s89.167 165.667 153.5 230s141 115.5 230 153.5s182.167 57 279.5 57s190.5 -19 279.5 -57s165.667 -89.167 230 -153.5s115.5 -141 153.5 -230
s57 -182.167 57 -279.5s-19 -190.5 -57 -279.5s-89.167 -165.667 -153.5 -230s-141 -115.5 -230 -153.5s-182.167 -57 -279.5 -57z" />
    <glyph glyph-name="uni2467" unicode="&#x38;&#x20dd;" 
d="M900 747c31.333 0 57 8.83301 77 26.5s30 39.834 30 66.501s-10 48.834 -30 66.501s-45.667 26.5 -77 26.5s-57 -8.83301 -77 -26.5s-30 -39.834 -30 -66.501s10 -48.834 30 -66.501s45.667 -26.5 77 -26.5zM900 453c37.333 0 68.333 10 93 30s37 45.333 37 76
s-12.333 56.334 -37 77.001s-55.667 31 -93 31s-68.333 -10.333 -93 -31s-37 -46.334 -37 -77.001s12.333 -56 37 -76s55.667 -30 93 -30zM900 368c-75.333 0 -135.67 16.667 -181.003 50s-68 78 -68 134c0 38 13.333 71.333 40 100s62.334 47.667 107.001 57v3
c-38 12 -67.667 30.167 -89 54.5s-32 52.833 -32 85.5c0 49.333 20.5 89.333 61.5 120s94.833 46 161.5 46s120.5 -15.333 161.5 -46s61.5 -70.667 61.5 -120c0 -32.667 -10.667 -61.167 -32 -85.5s-51 -42.5 -89 -54.5v-3c44.667 -9.33301 80.334 -28.333 107.001 -57
s40 -62 40 -100c0 -56 -22.667 -100.667 -68 -134s-105.666 -50 -180.999 -50zM899.996 71c108.667 0 209.167 27.5 301.5 82.5s165.333 129.667 219 224s80.5 196.5 80.5 306.5s-26.833 212.167 -80.5 306.5s-126.667 169 -219 224s-192.833 82.5 -301.5 82.5
c-81.333 0 -159.166 -16.333 -233.499 -49s-138.166 -76.5 -191.499 -131.5s-95.833 -120.167 -127.5 -195.5s-47.5 -154.333 -47.5 -237s15.833 -161.667 47.5 -237s74.167 -140.5 127.5 -195.5s117.166 -98.833 191.499 -131.5s152.166 -49 233.499 -49zM899.996 -36
c-97.333 0 -190.5 19 -279.5 57s-165.667 89.167 -230 153.5s-115.5 141 -153.5 230s-57 182.167 -57 279.5s19 190.5 57 279.5s89.167 165.667 153.5 230s141 115.5 230 153.5s182.167 57 279.5 57s190.5 -19 279.5 -57s165.667 -89.167 230 -153.5s115.5 -141 153.5 -230
s57 -182.167 57 -279.5s-19 -190.5 -57 -279.5s-89.167 -165.667 -153.5 -230s-141 -115.5 -230 -153.5s-182.167 -57 -279.5 -57z" />
    <glyph glyph-name="uni2468" unicode="&#x39;&#x20dd;" 
d="M1018 803c0 36.667 -10.833 66.333 -32.5 89s-50.167 34 -85.5 34s-64.5 -11.333 -87.5 -34s-34.5 -51.667 -34.5 -87s11.333 -64 34 -86s51.667 -33 87 -33c34.667 0 63.167 11 85.5 33s33.5 50 33.5 84zM794 512.999c5.33301 -14.667 17.333 -27.002 36 -37.002
s39.667 -15 63 -15c46.667 0 82.5 19.333 107.5 58s37.167 94.334 36.5 167.001h-3c-12.667 -26 -34.334 -47 -65.001 -63s-63.667 -24 -99 -24c-61.333 0 -111.333 19 -150 57s-58 87.333 -58 148c0 64.667 21.833 116.5 65.5 155.5s101.834 58.5 174.501 58.5
c80.667 0 142.667 -26.833 186 -80.5s65 -131.167 65 -232.5c0 -224 -87.333 -336 -262 -336c-57.333 0 -105.5 13.333 -144.5 40s-61.167 61.334 -66.5 104.001h114zM900 70.9971c108.667 0 209.167 27.5 301.5 82.5s165.333 129.667 219 224s80.5 196.5 80.5 306.5
s-26.833 212.167 -80.5 306.5s-126.667 169 -219 224s-192.833 82.5 -301.5 82.5c-81.333 0 -159.166 -16.333 -233.499 -49s-138.166 -76.5 -191.499 -131.5s-95.833 -120.167 -127.5 -195.5s-47.5 -154.333 -47.5 -237s15.833 -161.667 47.5 -237
s74.167 -140.5 127.5 -195.5s117.166 -98.833 191.499 -131.5s152.166 -49 233.499 -49zM900 -36.0029c-97.333 0 -190.5 19 -279.5 57s-165.667 89.167 -230 153.5s-115.5 141 -153.5 230s-57 182.167 -57 279.5s19 190.5 57 279.5s89.167 165.667 153.5 230
s141 115.5 230 153.5s182.167 57 279.5 57s190.5 -19 279.5 -57s165.667 -89.167 230 -153.5s115.5 -141 153.5 -230s57 -182.167 57 -279.5s-19 -190.5 -57 -279.5s-89.167 -165.667 -153.5 -230s-141 -115.5 -230 -153.5s-182.167 -57 -279.5 -57z" />
    <glyph glyph-name="uni24B6" unicode="A&#x20dd;" 
d="M989 653l-88 264h-2l-88 -264h178zM606 399l224 629h140l224 -629h-129l-53 166h-223l-54 -166h-129zM900 71c108.667 0 209.167 27.5 301.5 82.5s165.333 129.667 219 224s80.5 196.5 80.5 306.5s-26.833 212.167 -80.5 306.5s-126.667 169 -219 224
s-192.833 82.5 -301.5 82.5c-81.333 0 -159.166 -16.333 -233.499 -49s-138.166 -76.5 -191.499 -131.5s-95.833 -120.167 -127.5 -195.5s-47.5 -154.333 -47.5 -237s15.833 -161.667 47.5 -237s74.167 -140.5 127.5 -195.5s117.166 -98.833 191.499 -131.5
s152.166 -49 233.499 -49zM900 -36c-97.333 0 -190.5 19 -279.5 57s-165.667 89.167 -230 153.5s-115.5 141 -153.5 230s-57 182.167 -57 279.5s19 190.5 57 279.5s89.167 165.667 153.5 230s141 115.5 230 153.5s182.167 57 279.5 57s190.5 -19 279.5 -57
s165.667 -89.167 230 -153.5s115.5 -141 153.5 -230s57 -182.167 57 -279.5s-19 -190.5 -57 -279.5s-89.167 -165.667 -153.5 -230s-141 -115.5 -230 -153.5s-182.167 -57 -279.5 -57z" />
    <glyph glyph-name="uni24B7" unicode="B&#x20dd;" 
d="M687 380l-0.000976562 628h271c59.333 0 105.833 -13.667 139.5 -41s50.5 -65 50.5 -113c0 -72 -36 -118.333 -108 -139v-7c44.667 -6.66699 79.834 -23.667 105.501 -51s38.5 -61 38.5 -101c0 -54 -20.5 -96.833 -61.5 -128.5s-96.5 -47.5 -166.5 -47.5h-269z
M806.999 920v-176h89c88.667 0 133 30 133 90c0 26.667 -9 47.667 -27 63s-42.333 23 -73 23h-122zM806.999 663l0.000976562 -195h100c102 0 153 31.333 153 94c0 32 -10.833 56.833 -32.5 74.5s-51.834 26.5 -90.501 26.5h-130zM900 71c108.667 0 209.167 27.5 301.5 82.5
s165.333 129.667 219 224s80.5 196.5 80.5 306.5s-26.833 212.167 -80.5 306.5s-126.667 169 -219 224s-192.833 82.5 -301.5 82.5c-81.333 0 -159.166 -16.333 -233.499 -49s-138.166 -76.5 -191.499 -131.5s-95.833 -120.167 -127.5 -195.5s-47.5 -154.333 -47.5 -237
s15.833 -161.667 47.5 -237s74.167 -140.5 127.5 -195.5s117.166 -98.833 191.499 -131.5s152.166 -49 233.499 -49zM900 -36c-97.333 0 -190.5 19 -279.5 57s-165.667 89.167 -230 153.5s-115.5 141 -153.5 230s-57 182.167 -57 279.5s19 190.5 57 279.5
s89.167 165.667 153.5 230s141 115.5 230 153.5s182.167 57 279.5 57s190.5 -19 279.5 -57s165.667 -89.167 230 -153.5s115.5 -141 153.5 -230s57 -182.167 57 -279.5s-19 -190.5 -57 -279.5s-89.167 -165.667 -153.5 -230s-141 -115.5 -230 -153.5
s-182.167 -57 -279.5 -57z" />
    <glyph glyph-name="uni24B8" unicode="C&#x20dd;" 
d="M768 653c0 -59.333 12.835 -105.334 38.502 -138.001s62.167 -49 109.5 -49c38.667 0 70.834 11.333 96.501 34s39.167 51.667 40.5 87h117v-7c0 -62 -23.833 -112.833 -71.5 -152.5s-108.834 -59.5 -183.501 -59.5c-86 0 -152.833 25 -200.5 75s-71.5 120 -71.5 210v79
c0 89.333 24 159.333 72 210s114.667 76 200 76c75.333 0 136.666 -20.167 183.999 -60.5s71 -92.833 71 -157.5v-7h-117c-1.33301 37.333 -14.833 68 -40.5 92s-57.834 36 -96.501 36c-46.667 0 -83 -16.667 -109 -50s-39 -79.666 -39 -138.999v-79zM900.002 70.999
c108.667 0 209.167 27.5 301.5 82.5s165.333 129.667 219 224s80.5 196.5 80.5 306.5s-26.833 212.167 -80.5 306.5s-126.667 169 -219 224s-192.833 82.5 -301.5 82.5c-81.333 0 -159.166 -16.333 -233.499 -49s-138.166 -76.5 -191.499 -131.5
s-95.833 -120.167 -127.5 -195.5s-47.5 -154.333 -47.5 -237s15.833 -161.667 47.5 -237s74.167 -140.5 127.5 -195.5s117.166 -98.833 191.499 -131.5s152.166 -49 233.499 -49zM900.002 -36.001c-97.333 0 -190.5 19 -279.5 57s-165.667 89.167 -230 153.5
s-115.5 141 -153.5 230s-57 182.167 -57 279.5s19 190.5 57 279.5s89.167 165.667 153.5 230s141 115.5 230 153.5s182.167 57 279.5 57s190.5 -19 279.5 -57s165.667 -89.167 230 -153.5s115.5 -141 153.5 -230s57 -182.167 57 -279.5s-19 -190.5 -57 -279.5
s-89.167 -165.667 -153.5 -230s-141 -115.5 -230 -153.5s-182.167 -57 -279.5 -57z" />
    <glyph glyph-name="uni24B9" unicode="D&#x20dd;" 
d="M670 1008l234 -0.000976562c96 0 168.833 -26.5 218.5 -79.5s74.5 -130.833 74.5 -233.5c0 -103.333 -24.833 -181.666 -74.5 -234.999s-122.5 -80 -218.5 -80h-234v628zM791 912.999v-438h97c62 0 108.167 17.833 138.5 53.5s45.5 90.5 45.5 164.5
c0 146.667 -61.333 220 -184 220h-97zM900 70.999c108.667 0 209.167 27.5 301.5 82.5s165.333 129.667 219 224s80.5 196.5 80.5 306.5s-26.833 212.167 -80.5 306.5s-126.667 169 -219 224s-192.833 82.5 -301.5 82.5c-81.333 0 -159.166 -16.333 -233.499 -49
s-138.166 -76.5 -191.499 -131.5s-95.833 -120.167 -127.5 -195.5s-47.5 -154.333 -47.5 -237s15.833 -161.667 47.5 -237s74.167 -140.5 127.5 -195.5s117.166 -98.833 191.499 -131.5s152.166 -49 233.499 -49zM900 -36.001c-97.333 0 -190.5 19 -279.5 57
s-165.667 89.167 -230 153.5s-115.5 141 -153.5 230s-57 182.167 -57 279.5s19 190.5 57 279.5s89.167 165.667 153.5 230s141 115.5 230 153.5s182.167 57 279.5 57s190.5 -19 279.5 -57s165.667 -89.167 230 -153.5s115.5 -141 153.5 -230s57 -182.167 57 -279.5
s-19 -190.5 -57 -279.5s-89.167 -165.667 -153.5 -230s-141 -115.5 -230 -153.5s-182.167 -57 -279.5 -57z" />
    <glyph glyph-name="uni24BA" unicode="E&#x20dd;" 
d="M1116 475v-95h-417v628h417v-95h-298v-171h281v-88h-281v-179h298zM900 71c108.667 0 209.167 27.5 301.5 82.5s165.333 129.667 219 224s80.5 196.5 80.5 306.5s-26.833 212.167 -80.5 306.5s-126.667 169 -219 224s-192.833 82.5 -301.5 82.5
c-81.333 0 -159.166 -16.333 -233.499 -49s-138.166 -76.5 -191.499 -131.5s-95.833 -120.167 -127.5 -195.5s-47.5 -154.333 -47.5 -237s15.833 -161.667 47.5 -237s74.167 -140.5 127.5 -195.5s117.166 -98.833 191.499 -131.5s152.166 -49 233.499 -49zM900 -36
c-97.333 0 -190.5 19 -279.5 57s-165.667 89.167 -230 153.5s-115.5 141 -153.5 230s-57 182.167 -57 279.5s19 190.5 57 279.5s89.167 165.667 153.5 230s141 115.5 230 153.5s182.167 57 279.5 57s190.5 -19 279.5 -57s165.667 -89.167 230 -153.5s115.5 -141 153.5 -230
s57 -182.167 57 -279.5s-19 -190.5 -57 -279.5s-89.167 -165.667 -153.5 -230s-141 -115.5 -230 -153.5s-182.167 -57 -279.5 -57z" />
    <glyph glyph-name="uni24BB" unicode="F&#x20dd;" 
d="M849 380h-119v628h410v-96h-291v-185h267v-93h-267v-254zM900 71c108.667 0 209.167 27.5 301.5 82.5s165.333 129.667 219 224s80.5 196.5 80.5 306.5s-26.833 212.167 -80.5 306.5s-126.667 169 -219 224s-192.833 82.5 -301.5 82.5
c-81.333 0 -159.166 -16.333 -233.499 -49s-138.166 -76.5 -191.499 -131.5s-95.833 -120.167 -127.5 -195.5s-47.5 -154.333 -47.5 -237s15.833 -161.667 47.5 -237s74.167 -140.5 127.5 -195.5s117.166 -98.833 191.499 -131.5s152.166 -49 233.499 -49zM900 -36
c-97.333 0 -190.5 19 -279.5 57s-165.667 89.167 -230 153.5s-115.5 141 -153.5 230s-57 182.167 -57 279.5s19 190.5 57 279.5s89.167 165.667 153.5 230s141 115.5 230 153.5s182.167 57 279.5 57s190.5 -19 279.5 -57s165.667 -89.167 230 -153.5s115.5 -141 153.5 -230
s57 -182.167 57 -279.5s-19 -190.5 -57 -279.5s-89.167 -165.667 -153.5 -230s-141 -115.5 -230 -153.5s-182.167 -57 -279.5 -57z" />
    <glyph glyph-name="uni24BC" unicode="G&#x20dd;" 
d="M1050 811c-6 34 -21.666 61 -46.999 81s-56.333 30 -93 30c-48.667 0 -86.334 -16.333 -113.001 -49s-40 -78.667 -40 -138v-80c0 -61.333 13.5 -108.5 40.5 -141.5s65.833 -49.5 116.5 -49.5c41.333 0 75 11 101 33s39.333 50.667 40 86v46h-143v86h258v-125
c0 -68 -23.167 -122 -69.5 -162s-108.833 -60 -187.5 -60c-88 0 -156.5 25.333 -205.5 76s-73.5 121.334 -73.5 212.001v80c0 87.333 24.833 156.166 74.5 206.499s117.5 75.5 203.5 75.5c72.667 0 132.5 -19 179.5 -57s72.833 -88 77.5 -150h-119zM900.001 71
c108.667 0 209.167 27.5 301.5 82.5s165.333 129.667 219 224s80.5 196.5 80.5 306.5s-26.833 212.167 -80.5 306.5s-126.667 169 -219 224s-192.833 82.5 -301.5 82.5c-81.333 0 -159.166 -16.333 -233.499 -49s-138.166 -76.5 -191.499 -131.5
s-95.833 -120.167 -127.5 -195.5s-47.5 -154.333 -47.5 -237s15.833 -161.667 47.5 -237s74.167 -140.5 127.5 -195.5s117.166 -98.833 191.499 -131.5s152.166 -49 233.499 -49zM900.001 -36c-97.333 0 -190.5 19 -279.5 57s-165.667 89.167 -230 153.5
s-115.5 141 -153.5 230s-57 182.167 -57 279.5s19 190.5 57 279.5s89.167 165.667 153.5 230s141 115.5 230 153.5s182.167 57 279.5 57s190.5 -19 279.5 -57s165.667 -89.167 230 -153.5s115.5 -141 153.5 -230s57 -182.167 57 -279.5s-19 -190.5 -57 -279.5
s-89.167 -165.667 -153.5 -230s-141 -115.5 -230 -153.5s-182.167 -57 -279.5 -57z" />
    <glyph glyph-name="uni24BD" unicode="H&#x20dd;" 
d="M1163 380h-121v274h-284v-274h-121v628h121v-258h284v258h121v-628zM900 71c108.667 0 209.167 27.5 301.5 82.5s165.333 129.667 219 224s80.5 196.5 80.5 306.5s-26.833 212.167 -80.5 306.5s-126.667 169 -219 224s-192.833 82.5 -301.5 82.5
c-81.333 0 -159.166 -16.333 -233.499 -49s-138.166 -76.5 -191.499 -131.5s-95.833 -120.167 -127.5 -195.5s-47.5 -154.333 -47.5 -237s15.833 -161.667 47.5 -237s74.167 -140.5 127.5 -195.5s117.166 -98.833 191.499 -131.5s152.166 -49 233.499 -49zM900 -36
c-97.333 0 -190.5 19 -279.5 57s-165.667 89.167 -230 153.5s-115.5 141 -153.5 230s-57 182.167 -57 279.5s19 190.5 57 279.5s89.167 165.667 153.5 230s141 115.5 230 153.5s182.167 57 279.5 57s190.5 -19 279.5 -57s165.667 -89.167 230 -153.5s115.5 -141 153.5 -230
s57 -182.167 57 -279.5s-19 -190.5 -57 -279.5s-89.167 -165.667 -153.5 -230s-141 -115.5 -230 -153.5s-182.167 -57 -279.5 -57z" />
    <glyph glyph-name="uni24BE" unicode="I&#x20dd;" 
d="M961 380h-121v628h121v-628zM900 71c108.667 0 209.167 27.5 301.5 82.5s165.333 129.667 219 224s80.5 196.5 80.5 306.5s-26.833 212.167 -80.5 306.5s-126.667 169 -219 224s-192.833 82.5 -301.5 82.5c-81.333 0 -159.166 -16.333 -233.499 -49
s-138.166 -76.5 -191.499 -131.5s-95.833 -120.167 -127.5 -195.5s-47.5 -154.333 -47.5 -237s15.833 -161.667 47.5 -237s74.167 -140.5 127.5 -195.5s117.166 -98.833 191.499 -131.5s152.166 -49 233.499 -49zM900 -36c-97.333 0 -190.5 19 -279.5 57
s-165.667 89.167 -230 153.5s-115.5 141 -153.5 230s-57 182.167 -57 279.5s19 190.5 57 279.5s89.167 165.667 153.5 230s141 115.5 230 153.5s182.167 57 279.5 57s190.5 -19 279.5 -57s165.667 -89.167 230 -153.5s115.5 -141 153.5 -230s57 -182.167 57 -279.5
s-19 -190.5 -57 -279.5s-89.167 -165.667 -153.5 -230s-141 -115.5 -230 -153.5s-182.167 -57 -279.5 -57z" />
    <glyph glyph-name="uni24BF" unicode="J&#x20dd;" 
d="M775 552c1.33301 -24.667 10.1699 -44.501 26.5029 -59.501s37.166 -22.5 62.499 -22.5c63.333 0 95 34.667 95 104v433h123v-430c0 -66.667 -19 -118.5 -57 -155.5s-91.333 -55.5 -160 -55.5c-62.667 0 -112.834 16.833 -150.501 50.5s-56.834 78.834 -57.501 135.501
h118zM900.004 70.999c108.667 0 209.167 27.5 301.5 82.5s165.333 129.667 219 224s80.5 196.5 80.5 306.5s-26.833 212.167 -80.5 306.5s-126.667 169 -219 224s-192.833 82.5 -301.5 82.5c-81.333 0 -159.166 -16.333 -233.499 -49s-138.166 -76.5 -191.499 -131.5
s-95.833 -120.167 -127.5 -195.5s-47.5 -154.333 -47.5 -237s15.833 -161.667 47.5 -237s74.167 -140.5 127.5 -195.5s117.166 -98.833 191.499 -131.5s152.166 -49 233.499 -49zM900.004 -36.001c-97.333 0 -190.5 19 -279.5 57s-165.667 89.167 -230 153.5
s-115.5 141 -153.5 230s-57 182.167 -57 279.5s19 190.5 57 279.5s89.167 165.667 153.5 230s141 115.5 230 153.5s182.167 57 279.5 57s190.5 -19 279.5 -57s165.667 -89.167 230 -153.5s115.5 -141 153.5 -230s57 -182.167 57 -279.5s-19 -190.5 -57 -279.5
s-89.167 -165.667 -153.5 -230s-141 -115.5 -230 -153.5s-182.167 -57 -279.5 -57z" />
    <glyph glyph-name="uni24C0" unicode="K&#x20dd;" 
d="M1189 1008l-234 -270l245 -358h-148l-188 279l-70 -77v-202h-120v628h120v-291h1l258 291h136zM900 71c108.667 0 209.167 27.5 301.5 82.5s165.333 129.667 219 224s80.5 196.5 80.5 306.5s-26.833 212.167 -80.5 306.5s-126.667 169 -219 224
s-192.833 82.5 -301.5 82.5c-81.333 0 -159.166 -16.333 -233.499 -49s-138.166 -76.5 -191.499 -131.5s-95.833 -120.167 -127.5 -195.5s-47.5 -154.333 -47.5 -237s15.833 -161.667 47.5 -237s74.167 -140.5 127.5 -195.5s117.166 -98.833 191.499 -131.5
s152.166 -49 233.499 -49zM900 -36c-97.333 0 -190.5 19 -279.5 57s-165.667 89.167 -230 153.5s-115.5 141 -153.5 230s-57 182.167 -57 279.5s19 190.5 57 279.5s89.167 165.667 153.5 230s141 115.5 230 153.5s182.167 57 279.5 57s190.5 -19 279.5 -57
s165.667 -89.167 230 -153.5s115.5 -141 153.5 -230s57 -182.167 57 -279.5s-19 -190.5 -57 -279.5s-89.167 -165.667 -153.5 -230s-141 -115.5 -230 -153.5s-182.167 -57 -279.5 -57z" />
    <glyph glyph-name="uni24C1" unicode="L&#x20dd;" 
d="M1149 481v-100h-405v628h120v-528h285zM900 71c108.667 0 209.167 27.5 301.5 82.5s165.333 129.667 219 224s80.5 196.5 80.5 306.5s-26.833 212.167 -80.5 306.5s-126.667 169 -219 224s-192.833 82.5 -301.5 82.5c-81.333 0 -159.166 -16.333 -233.499 -49
s-138.166 -76.5 -191.499 -131.5s-95.833 -120.167 -127.5 -195.5s-47.5 -154.333 -47.5 -237s15.833 -161.667 47.5 -237s74.167 -140.5 127.5 -195.5s117.166 -98.833 191.499 -131.5s152.166 -49 233.499 -49zM900 -36c-97.333 0 -190.5 19 -279.5 57
s-165.667 89.167 -230 153.5s-115.5 141 -153.5 230s-57 182.167 -57 279.5s19 190.5 57 279.5s89.167 165.667 153.5 230s141 115.5 230 153.5s182.167 57 279.5 57s190.5 -19 279.5 -57s165.667 -89.167 230 -153.5s115.5 -141 153.5 -230s57 -182.167 57 -279.5
s-19 -190.5 -57 -279.5s-89.167 -165.667 -153.5 -230s-141 -115.5 -230 -153.5s-182.167 -57 -279.5 -57z" />
    <glyph glyph-name="uni24C2" unicode="M&#x20dd;" 
d="M693 805v-425h-107v628h122l190 -430h4l190 430h122v-628h-107v425h-8l-159 -351h-80l-159 351h-8zM900 71c108.667 0 209.167 27.5 301.5 82.5s165.333 129.667 219 224s80.5 196.5 80.5 306.5s-26.833 212.167 -80.5 306.5s-126.667 169 -219 224
s-192.833 82.5 -301.5 82.5c-81.333 0 -159.166 -16.333 -233.499 -49s-138.166 -76.5 -191.499 -131.5s-95.833 -120.167 -127.5 -195.5s-47.5 -154.333 -47.5 -237s15.833 -161.667 47.5 -237s74.167 -140.5 127.5 -195.5s117.166 -98.833 191.499 -131.5
s152.166 -49 233.499 -49zM900 -36c-97.333 0 -190.5 19 -279.5 57s-165.667 89.167 -230 153.5s-115.5 141 -153.5 230s-57 182.167 -57 279.5s19 190.5 57 279.5s89.167 165.667 153.5 230s141 115.5 230 153.5s182.167 57 279.5 57s190.5 -19 279.5 -57
s165.667 -89.167 230 -153.5s115.5 -141 153.5 -230s57 -182.167 57 -279.5s-19 -190.5 -57 -279.5s-89.167 -165.667 -153.5 -230s-141 -115.5 -230 -153.5s-182.167 -57 -279.5 -57z" />
    <glyph glyph-name="uni24C3" unicode="N&#x20dd;" 
d="M756 380h-114v628h102l297 -438h4v438h113v-628h-101l-298 440h-3v-440zM900 71c108.667 0 209.167 27.5 301.5 82.5s165.333 129.667 219 224s80.5 196.5 80.5 306.5s-26.833 212.167 -80.5 306.5s-126.667 169 -219 224s-192.833 82.5 -301.5 82.5
c-81.333 0 -159.166 -16.333 -233.499 -49s-138.166 -76.5 -191.499 -131.5s-95.833 -120.167 -127.5 -195.5s-47.5 -154.333 -47.5 -237s15.833 -161.667 47.5 -237s74.167 -140.5 127.5 -195.5s117.166 -98.833 191.499 -131.5s152.166 -49 233.499 -49zM900 -36
c-97.333 0 -190.5 19 -279.5 57s-165.667 89.167 -230 153.5s-115.5 141 -153.5 230s-57 182.167 -57 279.5s19 190.5 57 279.5s89.167 165.667 153.5 230s141 115.5 230 153.5s182.167 57 279.5 57s190.5 -19 279.5 -57s165.667 -89.167 230 -153.5s115.5 -141 153.5 -230
s57 -182.167 57 -279.5s-19 -190.5 -57 -279.5s-89.167 -165.667 -153.5 -230s-141 -115.5 -230 -153.5s-182.167 -57 -279.5 -57z" />
    <glyph glyph-name="uni24C4" unicode="O&#x20dd;" 
d="M900 465c48 0 85.833 16.833 113.5 50.5s41.5 79.167 41.5 136.5v83c0 58 -13.833 103.667 -41.5 137s-65.5 50 -113.5 50s-85.833 -16.667 -113.5 -50s-41.5 -79 -41.5 -137v-83c0 -57.333 13.833 -102.833 41.5 -136.5s65.5 -50.5 113.5 -50.5zM900 368
c-86.667 0 -154.83 25.333 -204.497 76s-74.5 120.334 -74.5 209.001v81c0 89.333 24.667 159 74 209s117.666 75 204.999 75s155.666 -25 204.999 -75s74 -119.667 74 -209v-81c0 -88.667 -24.833 -158.334 -74.5 -209.001s-117.834 -76 -204.501 -76zM900.004 71
c108.667 0 209.167 27.5 301.5 82.5s165.333 129.667 219 224s80.5 196.5 80.5 306.5s-26.833 212.167 -80.5 306.5s-126.667 169 -219 224s-192.833 82.5 -301.5 82.5c-81.333 0 -159.166 -16.333 -233.499 -49s-138.166 -76.5 -191.499 -131.5
s-95.833 -120.167 -127.5 -195.5s-47.5 -154.333 -47.5 -237s15.833 -161.667 47.5 -237s74.167 -140.5 127.5 -195.5s117.166 -98.833 191.499 -131.5s152.166 -49 233.499 -49zM900.004 -36c-97.333 0 -190.5 19 -279.5 57s-165.667 89.167 -230 153.5
s-115.5 141 -153.5 230s-57 182.167 -57 279.5s19 190.5 57 279.5s89.167 165.667 153.5 230s141 115.5 230 153.5s182.167 57 279.5 57s190.5 -19 279.5 -57s165.667 -89.167 230 -153.5s115.5 -141 153.5 -230s57 -182.167 57 -279.5s-19 -190.5 -57 -279.5
s-89.167 -165.667 -153.5 -230s-141 -115.5 -230 -153.5s-182.167 -57 -279.5 -57z" />
    <glyph glyph-name="uni24C5" unicode="P&#x20dd;" 
d="M962 1008c66.667 0 120 -18.833 160 -56.5s60 -88.167 60 -151.5c0 -62 -20 -111.5 -60 -148.5s-93.667 -55.5 -161 -55.5h-137v-216h-120v628h258zM1058 800c0 36.667 -10.1689 65 -30.502 85s-49.166 30 -86.499 30h-118v-228h118c36.667 0 65.334 10 86.001 30
s31 47.667 31 83zM899.998 71c108.667 0 209.167 27.5 301.5 82.5s165.333 129.667 219 224s80.5 196.5 80.5 306.5s-26.833 212.167 -80.5 306.5s-126.667 169 -219 224s-192.833 82.5 -301.5 82.5c-81.333 0 -159.166 -16.333 -233.499 -49
s-138.166 -76.5 -191.499 -131.5s-95.833 -120.167 -127.5 -195.5s-47.5 -154.333 -47.5 -237s15.833 -161.667 47.5 -237s74.167 -140.5 127.5 -195.5s117.166 -98.833 191.499 -131.5s152.166 -49 233.499 -49zM899.998 -36c-97.333 0 -190.5 19 -279.5 57
s-165.667 89.167 -230 153.5s-115.5 141 -153.5 230s-57 182.167 -57 279.5s19 190.5 57 279.5s89.167 165.667 153.5 230s141 115.5 230 153.5s182.167 57 279.5 57s190.5 -19 279.5 -57s165.667 -89.167 230 -153.5s115.5 -141 153.5 -230s57 -182.167 57 -279.5
s-19 -190.5 -57 -279.5s-89.167 -165.667 -153.5 -230s-141 -115.5 -230 -153.5s-182.167 -57 -279.5 -57z" />
    <glyph glyph-name="uni24C6" unicode="Q&#x20dd;" 
d="M1176 318l-124.997 -0.000976562l-48 66c-32 -10.667 -66.333 -16 -103 -16c-86.667 0 -154.834 25.333 -204.501 76s-74.5 120.334 -74.5 209.001v81c0 89.333 24.667 159 74 209s117.666 75 204.999 75s155.666 -25 204.999 -75s74 -119.667 74 -209v-81
c0 -95.333 -29.333 -169.333 -88 -222zM898.003 463.999c16.667 0 32.001 2.00195 46.001 6.00195l-72 100h112l36 -48c23.333 33.333 35 76.666 35 129.999v82c0 58.667 -13.833 104.667 -41.5 138s-65.5 50 -113.5 50s-85.833 -16.667 -113.5 -50
s-41.5 -79.333 -41.5 -138v-82c0 -57.333 13.667 -102.833 41 -136.5s64.666 -50.834 111.999 -51.501zM900.004 71.001c108.667 0 209.167 27.5 301.5 82.5s165.333 129.667 219 224s80.5 196.5 80.5 306.5s-26.833 212.167 -80.5 306.5s-126.667 169 -219 224
s-192.833 82.5 -301.5 82.5c-81.333 0 -159.166 -16.333 -233.499 -49s-138.166 -76.5 -191.499 -131.5s-95.833 -120.167 -127.5 -195.5s-47.5 -154.333 -47.5 -237s15.833 -161.667 47.5 -237s74.167 -140.5 127.5 -195.5s117.166 -98.833 191.499 -131.5
s152.166 -49 233.499 -49zM900.004 -35.999c-97.333 0 -190.5 19 -279.5 57s-165.667 89.167 -230 153.5s-115.5 141 -153.5 230s-57 182.167 -57 279.5s19 190.5 57 279.5s89.167 165.667 153.5 230s141 115.5 230 153.5s182.167 57 279.5 57s190.5 -19 279.5 -57
s165.667 -89.167 230 -153.5s115.5 -141 153.5 -230s57 -182.167 57 -279.5s-19 -190.5 -57 -279.5s-89.167 -165.667 -153.5 -230s-141 -115.5 -230 -153.5s-182.167 -57 -279.5 -57z" />
    <glyph glyph-name="uni24C7" unicode="R&#x20dd;" 
d="M796 704l119 0.000976562c38.667 0 68.5 9 89.5 27s31.5 43.667 31.5 77s-10.667 59.666 -32 78.999s-50.333 29 -87 29h-121v-212zM934 1008c70.667 0 126.168 -17.332 166.501 -51.999s60.5 -82.334 60.5 -143.001c0 -40.667 -10.833 -76.5 -32.5 -107.5
s-51.834 -54.167 -90.501 -69.5l135 -256h-136l-115 238h-126v-238h-119v628h257zM900.001 71.002c108.667 0 209.167 27.5 301.5 82.5s165.333 129.667 219 224s80.5 196.5 80.5 306.5s-26.833 212.167 -80.5 306.5s-126.667 169 -219 224s-192.833 82.5 -301.5 82.5
c-81.333 0 -159.166 -16.333 -233.499 -49s-138.166 -76.5 -191.499 -131.5s-95.833 -120.167 -127.5 -195.5s-47.5 -154.333 -47.5 -237s15.833 -161.667 47.5 -237s74.167 -140.5 127.5 -195.5s117.166 -98.833 191.499 -131.5s152.166 -49 233.499 -49zM900.001 -35.998
c-97.333 0 -190.5 19 -279.5 57s-165.667 89.167 -230 153.5s-115.5 141 -153.5 230s-57 182.167 -57 279.5s19 190.5 57 279.5s89.167 165.667 153.5 230s141 115.5 230 153.5s182.167 57 279.5 57s190.5 -19 279.5 -57s165.667 -89.167 230 -153.5s115.5 -141 153.5 -230
s57 -182.167 57 -279.5s-19 -190.5 -57 -279.5s-89.167 -165.667 -153.5 -230s-141 -115.5 -230 -153.5s-182.167 -57 -279.5 -57z" />
    <glyph glyph-name="uni24C8" unicode="S&#x20dd;" 
d="M765 554c2.66699 -28.667 16.667 -51.334 42 -68.001s58 -25 98 -25c39.333 0 70.5 8.16699 93.5 24.5s34.5 38.5 34.5 66.5c0 22 -8.16699 39.833 -24.5 53.5s-42.5 24.5 -78.5 32.5l-104 24c-52.667 11.333 -93 31.833 -121 61.5s-42 66.167 -42 109.5
c0 56 22.167 101 66.5 135s102.833 51 175.5 51c70.667 0 127.834 -16.5 171.501 -49.5s66.5 -76.5 68.5 -130.5h-115c-2.66699 28 -15.334 50 -38.001 66s-52 24 -88 24s-64.833 -8 -86.5 -24s-32.5 -37.333 -32.5 -64c0 -40 30 -66.667 90 -80l104 -23
c116.667 -25.333 175 -84 175 -176c0 -60 -23 -107.333 -69 -142s-108.667 -52 -188 -52c-75.333 0 -135.5 16.833 -180.5 50.5s-68.167 78.834 -69.5 135.501h118zM900 71c108.667 0 209.167 27.5 301.5 82.5s165.333 129.667 219 224s80.5 196.5 80.5 306.5
s-26.833 212.167 -80.5 306.5s-126.667 169 -219 224s-192.833 82.5 -301.5 82.5c-81.333 0 -159.166 -16.333 -233.499 -49s-138.166 -76.5 -191.499 -131.5s-95.833 -120.167 -127.5 -195.5s-47.5 -154.333 -47.5 -237s15.833 -161.667 47.5 -237
s74.167 -140.5 127.5 -195.5s117.166 -98.833 191.499 -131.5s152.166 -49 233.499 -49zM900 -36c-97.333 0 -190.5 19 -279.5 57s-165.667 89.167 -230 153.5s-115.5 141 -153.5 230s-57 182.167 -57 279.5s19 190.5 57 279.5s89.167 165.667 153.5 230
s141 115.5 230 153.5s182.167 57 279.5 57s190.5 -19 279.5 -57s165.667 -89.167 230 -153.5s115.5 -141 153.5 -230s57 -182.167 57 -279.5s-19 -190.5 -57 -279.5s-89.167 -165.667 -153.5 -230s-141 -115.5 -230 -153.5s-182.167 -57 -279.5 -57z" />
    <glyph glyph-name="uni24C9" unicode="T&#x20dd;" 
d="M960 360h-120v530h-189v98h498v-98h-189v-530zM900 71c108.667 0 209.167 27.5 301.5 82.5s165.333 129.667 219 224s80.5 196.5 80.5 306.5s-26.833 212.167 -80.5 306.5s-126.667 169 -219 224s-192.833 82.5 -301.5 82.5c-81.333 0 -159.166 -16.333 -233.499 -49
s-138.166 -76.5 -191.499 -131.5s-95.833 -120.167 -127.5 -195.5s-47.5 -154.333 -47.5 -237s15.833 -161.667 47.5 -237s74.167 -140.5 127.5 -195.5s117.166 -98.833 191.499 -131.5s152.166 -49 233.499 -49zM900 -36c-97.333 0 -190.5 19 -279.5 57
s-165.667 89.167 -230 153.5s-115.5 141 -153.5 230s-57 182.167 -57 279.5s19 190.5 57 279.5s89.167 165.667 153.5 230s141 115.5 230 153.5s182.167 57 279.5 57s190.5 -19 279.5 -57s165.667 -89.167 230 -153.5s115.5 -141 153.5 -230s57 -182.167 57 -279.5
s-19 -190.5 -57 -279.5s-89.167 -165.667 -153.5 -230s-141 -115.5 -230 -153.5s-182.167 -57 -279.5 -57z" />
    <glyph glyph-name="uni24CA" unicode="U&#x20dd;" 
d="M900 437c42.667 0 76.665 12.5 101.998 37.5s38 58.5 38 100.5v403h121v-413c0 -68.667 -23.667 -123.667 -71 -165s-110.666 -62 -189.999 -62s-142.666 20.667 -189.999 62s-71 96.333 -71 165v413h121v-403c0 -42 12.667 -75.5 38 -100.5s59.333 -37.5 102 -37.5z
M899.998 71c108.667 0 209.167 27.5 301.5 82.5s165.333 129.667 219 224s80.5 196.5 80.5 306.5s-26.833 212.167 -80.5 306.5s-126.667 169 -219 224s-192.833 82.5 -301.5 82.5c-81.333 0 -159.166 -16.333 -233.499 -49s-138.166 -76.5 -191.499 -131.5
s-95.833 -120.167 -127.5 -195.5s-47.5 -154.333 -47.5 -237s15.833 -161.667 47.5 -237s74.167 -140.5 127.5 -195.5s117.166 -98.833 191.499 -131.5s152.166 -49 233.499 -49zM899.998 -36c-97.333 0 -190.5 19 -279.5 57s-165.667 89.167 -230 153.5
s-115.5 141 -153.5 230s-57 182.167 -57 279.5s19 190.5 57 279.5s89.167 165.667 153.5 230s141 115.5 230 153.5s182.167 57 279.5 57s190.5 -19 279.5 -57s165.667 -89.167 230 -153.5s115.5 -141 153.5 -230s57 -182.167 57 -279.5s-19 -190.5 -57 -279.5
s-89.167 -165.667 -153.5 -230s-141 -115.5 -230 -153.5s-182.167 -57 -279.5 -57z" />
    <glyph glyph-name="uni24CB" unicode="V&#x20dd;" 
d="M974 350h-148l-219 628h140l147 -500h12l147 500h140zM900 71c108.667 0 209.167 27.5 301.5 82.5s165.333 129.667 219 224s80.5 196.5 80.5 306.5s-26.833 212.167 -80.5 306.5s-126.667 169 -219 224s-192.833 82.5 -301.5 82.5
c-81.333 0 -159.166 -16.333 -233.499 -49s-138.166 -76.5 -191.499 -131.5s-95.833 -120.167 -127.5 -195.5s-47.5 -154.333 -47.5 -237s15.833 -161.667 47.5 -237s74.167 -140.5 127.5 -195.5s117.166 -98.833 191.499 -131.5s152.166 -49 233.499 -49zM900 -36
c-97.333 0 -190.5 19 -279.5 57s-165.667 89.167 -230 153.5s-115.5 141 -153.5 230s-57 182.167 -57 279.5s19 190.5 57 279.5s89.167 165.667 153.5 230s141 115.5 230 153.5s182.167 57 279.5 57s190.5 -19 279.5 -57s165.667 -89.167 230 -153.5s115.5 -141 153.5 -230
s57 -182.167 57 -279.5s-19 -190.5 -57 -279.5s-89.167 -165.667 -153.5 -230s-141 -115.5 -230 -153.5s-182.167 -57 -279.5 -57z" />
    <glyph glyph-name="uni24CC" unicode="W&#x20dd;" 
d="M774 350h-111l-173 628h131l101 -467h8l118 467h104l118 -467h8l101 467h131l-173 -628h-111l-125 461h-2zM900 71c108.667 0 209.167 27.5 301.5 82.5s165.333 129.667 219 224s80.5 196.5 80.5 306.5s-26.833 212.167 -80.5 306.5s-126.667 169 -219 224
s-192.833 82.5 -301.5 82.5c-81.333 0 -159.166 -16.333 -233.499 -49s-138.166 -76.5 -191.499 -131.5s-95.833 -120.167 -127.5 -195.5s-47.5 -154.333 -47.5 -237s15.833 -161.667 47.5 -237s74.167 -140.5 127.5 -195.5s117.166 -98.833 191.499 -131.5
s152.166 -49 233.499 -49zM900 -36c-97.333 0 -190.5 19 -279.5 57s-165.667 89.167 -230 153.5s-115.5 141 -153.5 230s-57 182.167 -57 279.5s19 190.5 57 279.5s89.167 165.667 153.5 230s141 115.5 230 153.5s182.167 57 279.5 57s190.5 -19 279.5 -57
s165.667 -89.167 230 -153.5s115.5 -141 153.5 -230s57 -182.167 57 -279.5s-19 -190.5 -57 -279.5s-89.167 -165.667 -153.5 -230s-141 -115.5 -230 -153.5s-182.167 -57 -279.5 -57z" />
    <glyph glyph-name="uni24CD" unicode="X&#x20dd;" 
d="M1184 998l-208 -315l205 -312h-143l-142 229l-145 -229h-135l201 316l-199 311h147l138 -232l142 232h139zM900 71c108.667 0 209.167 27.5 301.5 82.5s165.333 129.667 219 224s80.5 196.5 80.5 306.5s-26.833 212.167 -80.5 306.5s-126.667 169 -219 224
s-192.833 82.5 -301.5 82.5c-81.333 0 -159.166 -16.333 -233.499 -49s-138.166 -76.5 -191.499 -131.5s-95.833 -120.167 -127.5 -195.5s-47.5 -154.333 -47.5 -237s15.833 -161.667 47.5 -237s74.167 -140.5 127.5 -195.5s117.166 -98.833 191.499 -131.5
s152.166 -49 233.499 -49zM900 -36c-97.333 0 -190.5 19 -279.5 57s-165.667 89.167 -230 153.5s-115.5 141 -153.5 230s-57 182.167 -57 279.5s19 190.5 57 279.5s89.167 165.667 153.5 230s141 115.5 230 153.5s182.167 57 279.5 57s190.5 -19 279.5 -57
s165.667 -89.167 230 -153.5s115.5 -141 153.5 -230s57 -182.167 57 -279.5s-19 -190.5 -57 -279.5s-89.167 -165.667 -153.5 -230s-141 -115.5 -230 -153.5s-182.167 -57 -279.5 -57z" />
    <glyph glyph-name="uni24CE" unicode="Y&#x20dd;" 
d="M960 365h-120v242l-220 385h134l142 -271h8l142 271h134l-220 -385v-242zM900 71c108.667 0 209.167 27.5 301.5 82.5s165.333 129.667 219 224s80.5 196.5 80.5 306.5s-26.833 212.167 -80.5 306.5s-126.667 169 -219 224s-192.833 82.5 -301.5 82.5
c-81.333 0 -159.166 -16.333 -233.499 -49s-138.166 -76.5 -191.499 -131.5s-95.833 -120.167 -127.5 -195.5s-47.5 -154.333 -47.5 -237s15.833 -161.667 47.5 -237s74.167 -140.5 127.5 -195.5s117.166 -98.833 191.499 -131.5s152.166 -49 233.499 -49zM900 -36
c-97.333 0 -190.5 19 -279.5 57s-165.667 89.167 -230 153.5s-115.5 141 -153.5 230s-57 182.167 -57 279.5s19 190.5 57 279.5s89.167 165.667 153.5 230s141 115.5 230 153.5s182.167 57 279.5 57s190.5 -19 279.5 -57s165.667 -89.167 230 -153.5s115.5 -141 153.5 -230
s57 -182.167 57 -279.5s-19 -190.5 -57 -279.5s-89.167 -165.667 -153.5 -230s-141 -115.5 -230 -153.5s-182.167 -57 -279.5 -57z" />
    <glyph glyph-name="uni24CF" unicode="Z&#x20dd;" 
d="M661 380v80l323 447v2h-314v99h462v-80l-325 -447v-2h333v-99h-479zM900 71c108.667 0 209.167 27.5 301.5 82.5s165.333 129.667 219 224s80.5 196.5 80.5 306.5s-26.833 212.167 -80.5 306.5s-126.667 169 -219 224s-192.833 82.5 -301.5 82.5
c-81.333 0 -159.166 -16.333 -233.499 -49s-138.166 -76.5 -191.499 -131.5s-95.833 -120.167 -127.5 -195.5s-47.5 -154.333 -47.5 -237s15.833 -161.667 47.5 -237s74.167 -140.5 127.5 -195.5s117.166 -98.833 191.499 -131.5s152.166 -49 233.499 -49zM900 -36
c-97.333 0 -190.5 19 -279.5 57s-165.667 89.167 -230 153.5s-115.5 141 -153.5 230s-57 182.167 -57 279.5s19 190.5 57 279.5s89.167 165.667 153.5 230s141 115.5 230 153.5s182.167 57 279.5 57s190.5 -19 279.5 -57s165.667 -89.167 230 -153.5s115.5 -141 153.5 -230
s57 -182.167 57 -279.5s-19 -190.5 -57 -279.5s-89.167 -165.667 -153.5 -230s-141 -115.5 -230 -153.5s-182.167 -57 -279.5 -57z" />
    <glyph glyph-name="uni24EA" unicode="&#x30;&#x20dd;" 
d="M900 464c39.333 0 70.333 19.167 93 57.5s34 91.166 34 158.499v27c0 66.667 -11.333 119.167 -34 157.5s-53.667 57.5 -93 57.5s-70.166 -19.167 -92.499 -57.5s-33.5 -90.833 -33.5 -157.5v-27c0 -67.333 11.167 -120.166 33.5 -158.499s53.166 -57.5 92.499 -57.5z
M900 368c-76.667 0 -137.167 27.832 -181.5 83.499s-66.5 131.834 -66.5 228.501v27c0 96 22.167 171.833 66.5 227.5s104.833 83.5 181.5 83.5s137.167 -27.833 181.5 -83.5s66.5 -131.5 66.5 -227.5v-27c0 -96 -22.167 -172 -66.5 -228s-104.833 -84 -181.5 -84z
M900 70.999c108.667 0 209.167 27.5 301.5 82.5s165.333 129.667 219 224s80.5 196.5 80.5 306.5s-26.833 212.167 -80.5 306.5s-126.667 169 -219 224s-192.833 82.5 -301.5 82.5c-81.333 0 -159.166 -16.333 -233.499 -49s-138.166 -76.5 -191.499 -131.5
s-95.833 -120.167 -127.5 -195.5s-47.5 -154.333 -47.5 -237s15.833 -161.667 47.5 -237s74.167 -140.5 127.5 -195.5s117.166 -98.833 191.499 -131.5s152.166 -49 233.499 -49zM900 -36.001c-97.333 0 -190.5 19 -279.5 57s-165.667 89.167 -230 153.5
s-115.5 141 -153.5 230s-57 182.167 -57 279.5s19 190.5 57 279.5s89.167 165.667 153.5 230s141 115.5 230 153.5s182.167 57 279.5 57s190.5 -19 279.5 -57s165.667 -89.167 230 -153.5s115.5 -141 153.5 -230s57 -182.167 57 -279.5s-19 -190.5 -57 -279.5
s-89.167 -165.667 -153.5 -230s-141 -115.5 -230 -153.5s-182.167 -57 -279.5 -57z" />
    <glyph glyph-name="uni1F130" unicode="A&#x20de;" 
d="M989 633l-88 264h-2l-88 -264h178zM606 378l224 630h140l224 -630h-129l-53 167h-223l-54 -167h-129zM445 1387h910c68.667 0 127.167 -23.667 175.5 -71s72.5 -104.666 72.5 -171.999v-919c0 -67.333 -24.167 -124.833 -72.5 -172.5s-106.833 -71.5 -175.5 -71.5h-910
c-68.667 0 -127.167 23.833 -175.5 71.5s-72.5 105.167 -72.5 172.5v919c0 67.333 24.167 124.666 72.5 171.999s106.833 71 175.5 71zM1340 1268h-880c-38.667 0 -71 -12.5 -97 -37.5s-39 -56.167 -39 -93.5v-905c0 -36.667 13.333 -67.834 40 -93.501
s58.667 -38.5 96 -38.5h880c38 0 70.167 12.833 96.5 38.5s39.5 56.834 39.5 93.501v905c0 37.333 -13 68.5 -39 93.5s-58.333 37.5 -97 37.5z" />
    <glyph glyph-name="uni1F131" unicode="B&#x20de;" 
d="M687 380l-0.000976562 628h271c59.333 0 105.833 -13.667 139.5 -41s50.5 -65 50.5 -113c0 -72 -36 -118.333 -108 -139v-7c44.667 -6.66699 79.834 -23.667 105.501 -51s38.5 -61 38.5 -101c0 -53.333 -20.5 -96 -61.5 -128s-96.5 -48 -166.5 -48h-269zM806.999 921
v-177.001h89c88.667 0 133 30 133 90c0 26.667 -8.83301 47.834 -26.5 63.501s-42.167 23.5 -73.5 23.5h-122zM806.999 663.999l0.000976562 -196h100c102 0 153 31.333 153 94c0 32 -10.833 57 -32.5 75s-51.834 27 -90.501 27h-130zM445 1387h910
c68.667 0 127.167 -23.667 175.5 -71s72.5 -104.666 72.5 -171.999v-919c0 -67.333 -24.167 -124.833 -72.5 -172.5s-106.833 -71.5 -175.5 -71.5h-910c-68.667 0 -127.167 23.833 -175.5 71.5s-72.5 105.167 -72.5 172.5v919c0 67.333 24.167 124.666 72.5 171.999
s106.833 71 175.5 71zM1340 1268h-880c-38.667 0 -71 -12.5 -97 -37.5s-39 -56.167 -39 -93.5v-905c0 -36.667 13.333 -67.834 40 -93.501s58.667 -38.5 96 -38.5h880c38 0 70.167 12.833 96.5 38.5s39.5 56.834 39.5 93.501v905c0 37.333 -13 68.5 -39 93.5
s-58.333 37.5 -97 37.5z" />
    <glyph glyph-name="uni1F132" unicode="C&#x20de;" 
d="M768 653c0 -60 12.835 -106.167 38.502 -138.5s62.167 -48.5 109.5 -48.5c38.667 0 70.834 11.333 96.501 34s39.167 51.667 40.5 87h117v-7c0 -62 -23.833 -112.833 -71.5 -152.5s-108.834 -59.5 -183.501 -59.5c-86 0 -152.833 24.833 -200.5 74.5
s-71.5 119.834 -71.5 210.501v79c0 89.333 24 159.166 72 209.499s114.667 75.5 200 75.5c75.333 0 136.666 -20 183.999 -60s71 -92.333 71 -157v-7h-117c-1.33301 37.333 -14.833 67.833 -40.5 91.5s-57.834 35.5 -96.501 35.5c-46.667 0 -83 -16.5 -109 -49.5
s-39 -79.5 -39 -139.5v-78zM445.002 1387h910c68.667 0 127.167 -23.667 175.5 -71s72.5 -104.666 72.5 -171.999v-919c0 -67.333 -24.167 -124.833 -72.5 -172.5s-106.833 -71.5 -175.5 -71.5h-910c-68.667 0 -127.167 23.833 -175.5 71.5s-72.5 105.167 -72.5 172.5v919
c0 67.333 24.167 124.666 72.5 171.999s106.833 71 175.5 71zM1340 1268h-880c-38.667 0 -71 -12.5 -97 -37.5s-39 -56.167 -39 -93.5v-905c0 -36.667 13.333 -67.834 40 -93.501s58.667 -38.5 96 -38.5h880c38 0 70.167 12.833 96.5 38.5s39.5 56.834 39.5 93.501v905
c0 37.333 -13 68.5 -39 93.5s-58.333 37.5 -97 37.5z" />
    <glyph glyph-name="uni1F133" unicode="D&#x20de;" 
d="M659 1008l235 0.000976562c96 0 168.667 -26.333 218 -79s74 -130.334 74 -233.001c0 -103.333 -24.833 -181.833 -74.5 -235.5s-122.167 -80.5 -217.5 -80.5h-235v628zM781 913.001v-437h96c62.667 0 109 17.833 139 53.5s45 90.5 45 164.5c0 146 -61.333 219 -184 219
h-96zM445 1387h910c68.667 0 127.167 -23.667 175.5 -71s72.5 -104.666 72.5 -171.999v-919c0 -67.333 -24.167 -124.833 -72.5 -172.5s-106.833 -71.5 -175.5 -71.5h-910c-68.667 0 -127.167 23.833 -175.5 71.5s-72.5 105.167 -72.5 172.5v919
c0 67.333 24.167 124.666 72.5 171.999s106.833 71 175.5 71zM1340 1268h-880c-38.667 0 -71 -12.5 -97 -37.5s-39 -56.167 -39 -93.5v-905c0 -36.667 13.333 -67.834 40 -93.501s58.667 -38.5 96 -38.5h880c38 0 70.167 12.833 96.5 38.5s39.5 56.834 39.5 93.501v905
c0 37.333 -13 68.5 -39 93.5s-58.333 37.5 -97 37.5z" />
    <glyph glyph-name="uni1F134" unicode="E&#x20de;" 
d="M1115 475v-95h-416v628h416v-96h-298v-170h281v-88h-281v-179h298zM445 1387h910c68.667 0 127.167 -23.667 175.5 -71s72.5 -104.666 72.5 -171.999v-919c0 -67.333 -24.167 -124.833 -72.5 -172.5s-106.833 -71.5 -175.5 -71.5h-910
c-68.667 0 -127.167 23.833 -175.5 71.5s-72.5 105.167 -72.5 172.5v919c0 67.333 24.167 124.666 72.5 171.999s106.833 71 175.5 71zM1340 1268h-880c-38.667 0 -71 -12.5 -97 -37.5s-39 -56.167 -39 -93.5v-905c0 -36.667 13.333 -67.834 40 -93.501
s58.667 -38.5 96 -38.5h880c38 0 70.167 12.833 96.5 38.5s39.5 56.834 39.5 93.501v905c0 37.333 -13 68.5 -39 93.5s-58.333 37.5 -97 37.5z" />
    <glyph glyph-name="uni1F135" unicode="F&#x20de;" 
d="M849 380h-119v628h410v-96h-291v-184h267v-94h-267v-254zM445 1387h910c68.667 0 127.167 -23.667 175.5 -71s72.5 -104.666 72.5 -171.999v-919c0 -67.333 -24.167 -124.833 -72.5 -172.5s-106.833 -71.5 -175.5 -71.5h-910c-68.667 0 -127.167 23.833 -175.5 71.5
s-72.5 105.167 -72.5 172.5v919c0 67.333 24.167 124.666 72.5 171.999s106.833 71 175.5 71zM1340 1268h-880c-38.667 0 -71 -12.5 -97 -37.5s-39 -56.167 -39 -93.5v-905c0 -36.667 13.333 -67.834 40 -93.501s58.667 -38.5 96 -38.5h880c38 0 70.167 12.833 96.5 38.5
s39.5 56.834 39.5 93.501v905c0 37.333 -13 68.5 -39 93.5s-58.333 37.5 -97 37.5z" />
    <glyph glyph-name="uni1F136" unicode="G&#x20de;" 
d="M1050 811c-6 34 -21.666 60.999 -46.999 80.999s-56.333 30 -93 30c-48.667 0 -86.334 -16.333 -113.001 -49s-40 -78.667 -40 -138v-80c0 -61.333 13.5 -108.5 40.5 -141.5s65.833 -49.5 116.5 -49.5c41.333 0 75 11 101 33s39.333 50.667 40 86v46h-143v86h258v-125
c0 -67.333 -23.167 -121.166 -69.5 -161.499s-108.833 -60.5 -187.5 -60.5c-88 0 -156.5 25.333 -205.5 76s-73.5 121.334 -73.5 212.001v80c0 87.333 24.833 156.166 74.5 206.499s117.5 75.5 203.5 75.5c72.667 0 132.5 -19 179.5 -57s72.833 -88 77.5 -150h-119z
M445.001 1387h910c68.667 0 127.167 -23.667 175.5 -71s72.5 -104.666 72.5 -171.999v-919c0 -67.333 -24.167 -124.833 -72.5 -172.5s-106.833 -71.5 -175.5 -71.5h-910c-68.667 0 -127.167 23.833 -175.5 71.5s-72.5 105.167 -72.5 172.5v919
c0 67.333 24.167 124.666 72.5 171.999s106.833 71 175.5 71zM1340 1268h-880c-38.667 0 -71 -12.5 -97 -37.5s-39 -56.167 -39 -93.5v-905c0 -36.667 13.333 -67.834 40 -93.501s58.667 -38.5 96 -38.5h880c38 0 70.167 12.833 96.5 38.5s39.5 56.834 39.5 93.501v905
c0 37.333 -13 68.5 -39 93.5s-58.333 37.5 -97 37.5z" />
    <glyph glyph-name="uni1F137" unicode="H&#x20de;" 
d="M1164 380h-122v274h-284v-274h-122v628h122v-258h284v258h122v-628zM445 1387h910c68.667 0 127.167 -23.667 175.5 -71s72.5 -104.666 72.5 -171.999v-919c0 -67.333 -24.167 -124.833 -72.5 -172.5s-106.833 -71.5 -175.5 -71.5h-910
c-68.667 0 -127.167 23.833 -175.5 71.5s-72.5 105.167 -72.5 172.5v919c0 67.333 24.167 124.666 72.5 171.999s106.833 71 175.5 71zM1340 1268h-880c-38.667 0 -71 -12.5 -97 -37.5s-39 -56.167 -39 -93.5v-905c0 -36.667 13.333 -67.834 40 -93.501
s58.667 -38.5 96 -38.5h880c38 0 70.167 12.833 96.5 38.5s39.5 56.834 39.5 93.501v905c0 37.333 -13 68.5 -39 93.5s-58.333 37.5 -97 37.5z" />
    <glyph glyph-name="uni1F138" unicode="I&#x20de;" 
d="M961 380h-121v628h121v-628zM445 1387h910c68.667 0 127.167 -23.667 175.5 -71s72.5 -104.666 72.5 -171.999v-919c0 -67.333 -24.167 -124.833 -72.5 -172.5s-106.833 -71.5 -175.5 -71.5h-910c-68.667 0 -127.167 23.833 -175.5 71.5s-72.5 105.167 -72.5 172.5v919
c0 67.333 24.167 124.666 72.5 171.999s106.833 71 175.5 71zM1340 1268h-880c-38.667 0 -71 -12.5 -97 -37.5s-39 -56.167 -39 -93.5v-905c0 -36.667 13.333 -67.834 40 -93.501s58.667 -38.5 96 -38.5h880c38 0 70.167 12.833 96.5 38.5s39.5 56.834 39.5 93.501v905
c0 37.333 -13 68.5 -39 93.5s-58.333 37.5 -97 37.5z" />
    <glyph glyph-name="uni1F139" unicode="J&#x20de;" 
d="M776 554c1.33301 -24.667 10.1689 -44.667 26.502 -60s36.833 -23 61.5 -23c64 0 96 34.667 96 104v433h122v-430c0 -66.667 -19 -118.334 -57 -155.001s-91.333 -55 -160 -55c-62.667 0 -112.834 16.833 -150.501 50.5s-56.834 78.834 -57.501 135.501h119z
M445.003 1387h910c68.667 0 127.167 -23.667 175.5 -71s72.5 -104.666 72.5 -171.999v-919c0 -67.333 -24.167 -124.833 -72.5 -172.5s-106.833 -71.5 -175.5 -71.5h-910c-68.667 0 -127.167 23.833 -175.5 71.5s-72.5 105.167 -72.5 172.5v919
c0 67.333 24.167 124.666 72.5 171.999s106.833 71 175.5 71zM1340 1268h-880c-38.667 0 -71 -12.5 -97 -37.5s-39 -56.167 -39 -93.5v-905c0 -36.667 13.333 -67.834 40 -93.501s58.667 -38.5 96 -38.5h880c38 0 70.167 12.833 96.5 38.5s39.5 56.834 39.5 93.501v905
c0 37.333 -13 68.5 -39 93.5s-58.333 37.5 -97 37.5z" />
    <glyph glyph-name="uni1F13A" unicode="K&#x20de;" 
d="M1190 1008l-234 -270l244 -358h-148l-188 279l-69 -77v-202h-121v628h121v-291h1l258 291h136zM445 1387h910c68.667 0 127.167 -23.667 175.5 -71s72.5 -104.666 72.5 -171.999v-919c0 -67.333 -24.167 -124.833 -72.5 -172.5s-106.833 -71.5 -175.5 -71.5h-910
c-68.667 0 -127.167 23.833 -175.5 71.5s-72.5 105.167 -72.5 172.5v919c0 67.333 24.167 124.666 72.5 171.999s106.833 71 175.5 71zM1340 1268h-880c-38.667 0 -71 -12.5 -97 -37.5s-39 -56.167 -39 -93.5v-905c0 -36.667 13.333 -67.834 40 -93.501
s58.667 -38.5 96 -38.5h880c38 0 70.167 12.833 96.5 38.5s39.5 56.834 39.5 93.501v905c0 37.333 -13 68.5 -39 93.5s-58.333 37.5 -97 37.5z" />
    <glyph glyph-name="uni1F13B" unicode="L&#x20de;" 
d="M1157 481v-101h-404v628h119v-527h285zM445 1387h910c68.667 0 127.167 -23.667 175.5 -71s72.5 -104.666 72.5 -171.999v-919c0 -67.333 -24.167 -124.833 -72.5 -172.5s-106.833 -71.5 -175.5 -71.5h-910c-68.667 0 -127.167 23.833 -175.5 71.5
s-72.5 105.167 -72.5 172.5v919c0 67.333 24.167 124.666 72.5 171.999s106.833 71 175.5 71zM1340 1268h-880c-38.667 0 -71 -12.5 -97 -37.5s-39 -56.167 -39 -93.5v-905c0 -36.667 13.333 -67.834 40 -93.501s58.667 -38.5 96 -38.5h880c38 0 70.167 12.833 96.5 38.5
s39.5 56.834 39.5 93.501v905c0 37.333 -13 68.5 -39 93.5s-58.333 37.5 -97 37.5z" />
    <glyph glyph-name="uni1F13C" unicode="M&#x20de;" 
d="M693 805v-425h-107v628h122l190 -430h4l190 430h122v-628h-107v425h-8l-159 -351h-80l-159 351h-8zM445 1387h910c68.667 0 127.167 -23.667 175.5 -71s72.5 -104.666 72.5 -171.999v-919c0 -67.333 -24.167 -124.833 -72.5 -172.5s-106.833 -71.5 -175.5 -71.5h-910
c-68.667 0 -127.167 23.833 -175.5 71.5s-72.5 105.167 -72.5 172.5v919c0 67.333 24.167 124.666 72.5 171.999s106.833 71 175.5 71zM1340 1268h-880c-38.667 0 -71 -12.5 -97 -37.5s-39 -56.167 -39 -93.5v-905c0 -36.667 13.333 -67.834 40 -93.501
s58.667 -38.5 96 -38.5h880c38 0 70.167 12.833 96.5 38.5s39.5 56.834 39.5 93.501v905c0 37.333 -13 68.5 -39 93.5s-58.333 37.5 -97 37.5z" />
    <glyph glyph-name="uni1F13D" unicode="N&#x20de;" 
d="M757 380h-116v628h104l296 -435h3v435h115v-628h-103l-296 438h-3v-438zM445 1387h910c68.667 0 127.167 -23.667 175.5 -71s72.5 -104.666 72.5 -171.999v-919c0 -67.333 -24.167 -124.833 -72.5 -172.5s-106.833 -71.5 -175.5 -71.5h-910
c-68.667 0 -127.167 23.833 -175.5 71.5s-72.5 105.167 -72.5 172.5v919c0 67.333 24.167 124.666 72.5 171.999s106.833 71 175.5 71zM1340 1268h-880c-38.667 0 -71 -12.5 -97 -37.5s-39 -56.167 -39 -93.5v-905c0 -36.667 13.333 -67.834 40 -93.501
s58.667 -38.5 96 -38.5h880c38 0 70.167 12.833 96.5 38.5s39.5 56.834 39.5 93.501v905c0 37.333 -13 68.5 -39 93.5s-58.333 37.5 -97 37.5z" />
    <glyph glyph-name="uni1F13E" unicode="O&#x20de;" 
d="M900 465c48 0 85.833 16.833 113.5 50.5s41.5 79.5 41.5 137.5v82c0 58 -13.833 103.667 -41.5 137s-65.5 50 -113.5 50s-85.833 -16.667 -113.5 -50s-41.5 -79 -41.5 -137v-82c0 -58 13.833 -103.833 41.5 -137.5s65.5 -50.5 113.5 -50.5zM900 368
c-86.667 0 -154.83 25.333 -204.497 76s-74.5 120.667 -74.5 210v81c0 88.667 24.667 158 74 208s117.666 75 204.999 75s155.666 -25 204.999 -75s74 -119.333 74 -208v-81c0 -89.333 -24.833 -159.333 -74.5 -210s-117.834 -76 -204.501 -76zM445.004 1387h910
c68.667 0 127.167 -23.667 175.5 -71s72.5 -104.666 72.5 -171.999v-919c0 -67.333 -24.167 -124.833 -72.5 -172.5s-106.833 -71.5 -175.5 -71.5h-910c-68.667 0 -127.167 23.833 -175.5 71.5s-72.5 105.167 -72.5 172.5v919c0 67.333 24.167 124.666 72.5 171.999
s106.833 71 175.5 71zM1340 1268h-880c-38.667 0 -71 -12.5 -97 -37.5s-39 -56.167 -39 -93.5v-905c0 -36.667 13.333 -67.834 40 -93.501s58.667 -38.5 96 -38.5h880c38 0 70.167 12.833 96.5 38.5s39.5 56.834 39.5 93.501v905c0 37.333 -13 68.5 -39 93.5
s-58.333 37.5 -97 37.5z" />
    <glyph glyph-name="uni1F13F" unicode="P&#x20de;" 
d="M962 1008c66.667 0 120 -18.833 160 -56.5s60 -88.167 60 -151.5c0 -62 -20 -111.5 -60 -148.5s-93.667 -55.5 -161 -55.5h-137v-216h-120v628h258zM1058 800c0 36.667 -10.1689 65 -30.502 85s-49.166 30 -86.499 30h-118v-228h118c36.667 0 65.334 10 86.001 30
s31 47.667 31 83zM444.998 1387h910c68.667 0 127.167 -23.667 175.5 -71s72.5 -104.666 72.5 -171.999v-919c0 -67.333 -24.167 -124.833 -72.5 -172.5s-106.833 -71.5 -175.5 -71.5h-910c-68.667 0 -127.167 23.833 -175.5 71.5s-72.5 105.167 -72.5 172.5v919
c0 67.333 24.167 124.666 72.5 171.999s106.833 71 175.5 71zM1340 1268h-880c-38.667 0 -71 -12.5 -97 -37.5s-39 -56.167 -39 -93.5v-905c0 -36.667 13.333 -67.834 40 -93.501s58.667 -38.5 96 -38.5h880c38 0 70.167 12.833 96.5 38.5s39.5 56.834 39.5 93.501v905
c0 37.333 -13 68.5 -39 93.5s-58.333 37.5 -97 37.5z" />
    <glyph glyph-name="uni1F140" unicode="Q&#x20de;" 
d="M1176 318h-124.997l-48 67c-30.667 -11.333 -65 -17 -103 -17c-86.667 0 -154.834 25.333 -204.501 76s-74.5 120.667 -74.5 210v81c0 88.667 24.667 158 74 208s117.666 75 204.999 75s155.666 -25 204.999 -75s74 -119.333 74 -208v-81
c0 -96.667 -29.333 -170.667 -88 -222zM898.003 464c17.333 0 32.668 2.33398 46.001 7.00098l-72 99h112l36 -47c23.333 32.667 35 75.667 35 129v82c0 58.667 -13.833 104.667 -41.5 138s-65.5 50 -113.5 50s-85.833 -16.667 -113.5 -50s-41.5 -79.333 -41.5 -138v-82
c0 -57.333 13.667 -102.833 41 -136.5s64.666 -50.834 111.999 -51.501zM445.005 1387h910c68.667 0 127.167 -23.667 175.5 -71s72.5 -104.666 72.5 -171.999v-919c0 -67.333 -24.167 -124.833 -72.5 -172.5s-106.833 -71.5 -175.5 -71.5h-910
c-68.667 0 -127.167 23.833 -175.5 71.5s-72.5 105.167 -72.5 172.5v919c0 67.333 24.167 124.666 72.5 171.999s106.833 71 175.5 71zM1340 1268h-880c-38.667 0 -71 -12.5 -97 -37.5s-39 -56.167 -39 -93.5v-905c0 -36.667 13.333 -67.834 40 -93.501
s58.667 -38.5 96 -38.5h880c38 0 70.167 12.833 96.5 38.5s39.5 56.834 39.5 93.501v905c0 37.333 -13 68.5 -39 93.5s-58.333 37.5 -97 37.5z" />
    <glyph glyph-name="uni1F141" unicode="R&#x20de;" 
d="M796 704l119 0.000976562c38.667 0 68.5 9 89.5 27s31.5 43.667 31.5 77s-10.667 59.666 -32 78.999s-50.333 29 -87 29h-121v-212zM934 1008c70.667 0 126.168 -17.332 166.501 -51.999s60.5 -82.334 60.5 -143.001c0 -40.667 -10.833 -76.5 -32.5 -107.5
s-51.834 -54.167 -90.501 -69.5l135 -256h-136l-115 238h-126v-238h-119v628h257zM445.001 1387h910c68.667 0 127.167 -23.667 175.5 -71s72.5 -104.666 72.5 -171.999v-919c0 -67.333 -24.167 -124.833 -72.5 -172.5s-106.833 -71.5 -175.5 -71.5h-910
c-68.667 0 -127.167 23.833 -175.5 71.5s-72.5 105.167 -72.5 172.5v919c0 67.333 24.167 124.666 72.5 171.999s106.833 71 175.5 71zM1340 1268h-880c-38.667 0 -71 -12.5 -97 -37.5s-39 -56.167 -39 -93.5v-905c0 -36.667 13.333 -67.834 40 -93.501
s58.667 -38.5 96 -38.5h880c38 0 70.167 12.833 96.5 38.5s39.5 56.834 39.5 93.501v905c0 37.333 -13 68.5 -39 93.5s-58.333 37.5 -97 37.5z" />
    <glyph glyph-name="uni1F142" unicode="S&#x20de;" 
d="M765 555c2.66699 -28.667 16.666 -51.501 41.999 -68.501s58 -25.5 98 -25.5c39.333 0 70.5 8.33301 93.5 25s34.5 39 34.5 67c0 21.333 -8.16699 38.833 -24.5 52.5s-42.5 24.834 -78.5 33.501l-104 23c-52.667 11.333 -93 31.833 -121 61.5s-42 66.167 -42 109.5
c0 56 22.167 101 66.5 135s102.833 51 175.5 51c70.667 0 127.834 -16.333 171.501 -49s66.5 -76.334 68.5 -131.001h-115c-2.66699 28 -15.5 50.167 -38.5 66.5s-52.167 24.5 -87.5 24.5c-36 0 -64.833 -8.16699 -86.5 -24.5s-32.5 -37.833 -32.5 -64.5
c0 -40 30 -66.667 90 -80l104 -23c116.667 -25.333 175 -84 175 -176c0 -60 -23 -107.167 -69 -141.5s-108.667 -51.5 -188 -51.5c-75.333 0 -135.5 16.833 -180.5 50.5s-68.167 78.834 -69.5 135.501h118zM444.999 1387h910c68.667 0 127.167 -23.667 175.5 -71
s72.5 -104.666 72.5 -171.999v-919c0 -67.333 -24.167 -124.833 -72.5 -172.5s-106.833 -71.5 -175.5 -71.5h-910c-68.667 0 -127.167 23.833 -175.5 71.5s-72.5 105.167 -72.5 172.5v919c0 67.333 24.167 124.666 72.5 171.999s106.833 71 175.5 71zM1340 1268h-880
c-38.667 0 -71 -12.5 -97 -37.5s-39 -56.167 -39 -93.5v-905c0 -36.667 13.333 -67.834 40 -93.501s58.667 -38.5 96 -38.5h880c38 0 70.167 12.833 96.5 38.5s39.5 56.834 39.5 93.501v905c0 37.333 -13 68.5 -39 93.5s-58.333 37.5 -97 37.5z" />
    <glyph glyph-name="uni1F143" unicode="T&#x20de;" 
d="M960 380h-120v530h-189v98h498v-98h-189v-530zM445 1387h910c68.667 0 127.167 -23.667 175.5 -71s72.5 -104.666 72.5 -171.999v-919c0 -67.333 -24.167 -124.833 -72.5 -172.5s-106.833 -71.5 -175.5 -71.5h-910c-68.667 0 -127.167 23.833 -175.5 71.5
s-72.5 105.167 -72.5 172.5v919c0 67.333 24.167 124.666 72.5 171.999s106.833 71 175.5 71zM1340 1268h-880c-38.667 0 -71 -12.5 -97 -37.5s-39 -56.167 -39 -93.5v-905c0 -36.667 13.333 -67.834 40 -93.501s58.667 -38.5 96 -38.5h880c38 0 70.167 12.833 96.5 38.5
s39.5 56.834 39.5 93.501v905c0 37.333 -13 68.5 -39 93.5s-58.333 37.5 -97 37.5z" />
    <glyph glyph-name="uni1F144" unicode="U&#x20de;" 
d="M900 467c42.667 0 76.665 12.5 101.998 37.5s38 58.5 38 100.5v403h121v-413c0 -68.667 -23.667 -123.667 -71 -165s-110.666 -62 -189.999 -62s-142.666 20.667 -189.999 62s-71 96.333 -71 165v413h121v-403c0 -42 12.667 -75.5 38 -100.5s59.333 -37.5 102 -37.5z
M444.998 1387h910c68.667 0 127.167 -23.667 175.5 -71s72.5 -104.666 72.5 -171.999v-919c0 -67.333 -24.167 -124.833 -72.5 -172.5s-106.833 -71.5 -175.5 -71.5h-910c-68.667 0 -127.167 23.833 -175.5 71.5s-72.5 105.167 -72.5 172.5v919
c0 67.333 24.167 124.666 72.5 171.999s106.833 71 175.5 71zM1340 1268h-880c-38.667 0 -71 -12.5 -97 -37.5s-39 -56.167 -39 -93.5v-905c0 -36.667 13.333 -67.834 40 -93.501s58.667 -38.5 96 -38.5h880c38 0 70.167 12.833 96.5 38.5s39.5 56.834 39.5 93.501v905
c0 37.333 -13 68.5 -39 93.5s-58.333 37.5 -97 37.5z" />
    <glyph glyph-name="uni1F145" unicode="V&#x20de;" 
d="M974 380h-148l-219 628h140l147 -499h12l147 499h140zM445 1387h910c68.667 0 127.167 -23.667 175.5 -71s72.5 -104.666 72.5 -171.999v-919c0 -67.333 -24.167 -124.833 -72.5 -172.5s-106.833 -71.5 -175.5 -71.5h-910c-68.667 0 -127.167 23.833 -175.5 71.5
s-72.5 105.167 -72.5 172.5v919c0 67.333 24.167 124.666 72.5 171.999s106.833 71 175.5 71zM1340 1268h-880c-38.667 0 -71 -12.5 -97 -37.5s-39 -56.167 -39 -93.5v-905c0 -36.667 13.333 -67.834 40 -93.501s58.667 -38.5 96 -38.5h880c38 0 70.167 12.833 96.5 38.5
s39.5 56.834 39.5 93.501v905c0 37.333 -13 68.5 -39 93.5s-58.333 37.5 -97 37.5z" />
    <glyph glyph-name="uni1F146" unicode="W&#x20de;" 
d="M774 381h-111l-173 627h131l101 -467h8l118 467h104l118 -467h8l101 467h131l-173 -627h-111l-125 460h-2zM445 1387h910c68.667 0 127.167 -23.667 175.5 -71s72.5 -104.666 72.5 -171.999v-919c0 -67.333 -24.167 -124.833 -72.5 -172.5s-106.833 -71.5 -175.5 -71.5
h-910c-68.667 0 -127.167 23.833 -175.5 71.5s-72.5 105.167 -72.5 172.5v919c0 67.333 24.167 124.666 72.5 171.999s106.833 71 175.5 71zM1340 1268h-880c-38.667 0 -71 -12.5 -97 -37.5s-39 -56.167 -39 -93.5v-905c0 -36.667 13.333 -67.834 40 -93.501
s58.667 -38.5 96 -38.5h880c38 0 70.167 12.833 96.5 38.5s39.5 56.834 39.5 93.501v905c0 37.333 -13 68.5 -39 93.5s-58.333 37.5 -97 37.5z" />
    <glyph glyph-name="uni1F147" unicode="X&#x20de;" 
d="M1184 1008l-208 -315l205 -313h-143l-142 230l-145 -230h-135l201 317l-199 311h147l138 -233l142 233h139zM445 1387h910c68.667 0 127.167 -23.667 175.5 -71s72.5 -104.666 72.5 -171.999v-919c0 -67.333 -24.167 -124.833 -72.5 -172.5s-106.833 -71.5 -175.5 -71.5
h-910c-68.667 0 -127.167 23.833 -175.5 71.5s-72.5 105.167 -72.5 172.5v919c0 67.333 24.167 124.666 72.5 171.999s106.833 71 175.5 71zM1340 1268h-880c-38.667 0 -71 -12.5 -97 -37.5s-39 -56.167 -39 -93.5v-905c0 -36.667 13.333 -67.834 40 -93.501
s58.667 -38.5 96 -38.5h880c38 0 70.167 12.833 96.5 38.5s39.5 56.834 39.5 93.501v905c0 37.333 -13 68.5 -39 93.5s-58.333 37.5 -97 37.5z" />
    <glyph glyph-name="uni1F148" unicode="Y&#x20de;" 
d="M960 380h-120v243l-220 385h134l142 -271h8l142 271h134l-220 -385v-243zM445 1387h910c68.667 0 127.167 -23.667 175.5 -71s72.5 -104.666 72.5 -171.999v-919c0 -67.333 -24.167 -124.833 -72.5 -172.5s-106.833 -71.5 -175.5 -71.5h-910
c-68.667 0 -127.167 23.833 -175.5 71.5s-72.5 105.167 -72.5 172.5v919c0 67.333 24.167 124.666 72.5 171.999s106.833 71 175.5 71zM1340 1268h-880c-38.667 0 -71 -12.5 -97 -37.5s-39 -56.167 -39 -93.5v-905c0 -36.667 13.333 -67.834 40 -93.501
s58.667 -38.5 96 -38.5h880c38 0 70.167 12.833 96.5 38.5s39.5 56.834 39.5 93.501v905c0 37.333 -13 68.5 -39 93.5s-58.333 37.5 -97 37.5z" />
    <glyph glyph-name="uni1F149" unicode="Z&#x20de;" 
d="M661 380v80l323 447v3h-314v98h462v-79l-325 -448v-2h333v-99h-479zM445 1387h910c68.667 0 127.167 -23.667 175.5 -71s72.5 -104.666 72.5 -171.999v-919c0 -67.333 -24.167 -124.833 -72.5 -172.5s-106.833 -71.5 -175.5 -71.5h-910
c-68.667 0 -127.167 23.833 -175.5 71.5s-72.5 105.167 -72.5 172.5v919c0 67.333 24.167 124.666 72.5 171.999s106.833 71 175.5 71zM1340 1268h-880c-38.667 0 -71 -12.5 -97 -37.5s-39 -56.167 -39 -93.5v-905c0 -36.667 13.333 -67.834 40 -93.501
s58.667 -38.5 96 -38.5h880c38 0 70.167 12.833 96.5 38.5s39.5 56.834 39.5 93.501v905c0 37.333 -13 68.5 -39 93.5s-58.333 37.5 -97 37.5z" />
    <glyph glyph-name="plus.uc.whitecircle" unicode="&#x2b;&#x20dd;" 
d="M950 646v-197h-100v197h-191v96h191v187h100v-187h191v-96h-191zM900 71c108.667 0 209.167 27.5 301.5 82.5s165.333 129.667 219 224s80.5 196.5 80.5 306.5s-26.833 212.167 -80.5 306.5s-126.667 169 -219 224s-192.833 82.5 -301.5 82.5
c-81.333 0 -159.166 -16.333 -233.499 -49s-138.166 -76.5 -191.499 -131.5s-95.833 -120.167 -127.5 -195.5s-47.5 -154.333 -47.5 -237s15.833 -161.667 47.5 -237s74.167 -140.5 127.5 -195.5s117.166 -98.833 191.499 -131.5s152.166 -49 233.499 -49zM900 -36
c-97.333 0 -190.5 19 -279.5 57s-165.667 89.167 -230 153.5s-115.5 141 -153.5 230s-57 182.167 -57 279.5s19 190.5 57 279.5s89.167 165.667 153.5 230s141 115.5 230 153.5s182.167 57 279.5 57s190.5 -19 279.5 -57s165.667 -89.167 230 -153.5s115.5 -141 153.5 -230
s57 -182.167 57 -279.5s-19 -190.5 -57 -279.5s-89.167 -165.667 -153.5 -230s-141 -115.5 -230 -153.5s-182.167 -57 -279.5 -57z" />
    <glyph glyph-name="minus.uc.whitecircle" unicode="&#x2212;&#x20dd;" 
d="M1129 641h-458v98h458v-98zM900 71c108.667 0 209.167 27.5 301.5 82.5s165.333 129.667 219 224s80.5 196.5 80.5 306.5s-26.833 212.167 -80.5 306.5s-126.667 169 -219 224s-192.833 82.5 -301.5 82.5c-81.333 0 -159.166 -16.333 -233.499 -49
s-138.166 -76.5 -191.499 -131.5s-95.833 -120.167 -127.5 -195.5s-47.5 -154.333 -47.5 -237s15.833 -161.667 47.5 -237s74.167 -140.5 127.5 -195.5s117.166 -98.833 191.499 -131.5s152.166 -49 233.499 -49zM900 -36c-97.333 0 -190.5 19 -279.5 57
s-165.667 89.167 -230 153.5s-115.5 141 -153.5 230s-57 182.167 -57 279.5s19 190.5 57 279.5s89.167 165.667 153.5 230s141 115.5 230 153.5s182.167 57 279.5 57s190.5 -19 279.5 -57s165.667 -89.167 230 -153.5s115.5 -141 153.5 -230s57 -182.167 57 -279.5
s-19 -190.5 -57 -279.5s-89.167 -165.667 -153.5 -230s-141 -115.5 -230 -153.5s-182.167 -57 -279.5 -57z" />
    <glyph glyph-name="multiply.uc.whitecircle" unicode="&#xd7;&#x20dd;" 
d="M900 760l148 139l70 -70l-145 -139l145 -142l-70 -69l-148 142l-148 -142l-70 69l145 142l-145 139l70 70zM900 71c108.667 0 209.167 27.5 301.5 82.5s165.333 129.667 219 224s80.5 196.5 80.5 306.5s-26.833 212.167 -80.5 306.5s-126.667 169 -219 224
s-192.833 82.5 -301.5 82.5c-81.333 0 -159.166 -16.333 -233.499 -49s-138.166 -76.5 -191.499 -131.5s-95.833 -120.167 -127.5 -195.5s-47.5 -154.333 -47.5 -237s15.833 -161.667 47.5 -237s74.167 -140.5 127.5 -195.5s117.166 -98.833 191.499 -131.5
s152.166 -49 233.499 -49zM900 -36c-97.333 0 -190.5 19 -279.5 57s-165.667 89.167 -230 153.5s-115.5 141 -153.5 230s-57 182.167 -57 279.5s19 190.5 57 279.5s89.167 165.667 153.5 230s141 115.5 230 153.5s182.167 57 279.5 57s190.5 -19 279.5 -57
s165.667 -89.167 230 -153.5s115.5 -141 153.5 -230s57 -182.167 57 -279.5s-19 -190.5 -57 -279.5s-89.167 -165.667 -153.5 -230s-141 -115.5 -230 -153.5s-182.167 -57 -279.5 -57z" />
    <glyph glyph-name="divide.uc.whitecircle" unicode="&#xf7;&#x20dd;" 
d="M828 877c0 20 6.66602 36.333 19.999 49s30.333 19 51 19c22.667 0 40.834 -6.16699 54.501 -18.5s20.5 -28.833 20.5 -49.5c0 -19.333 -7 -35.333 -21 -48s-32 -19 -54 -19c-20.667 0 -37.667 6.33301 -51 19s-20 28.667 -20 48zM1129 648h-458v84h458v-84zM827.999 504
c0 20.667 6.66699 37.167 20 49.5s30.666 18.5 51.999 18.5c22 0 39.833 -6.33301 53.5 -19s20.5 -29 20.5 -49c0 -19.333 -6.83301 -35.166 -20.5 -47.499s-31.5 -18.5 -53.5 -18.5c-21.333 0 -38.666 6.16699 -51.999 18.5s-20 28.166 -20 47.499zM899.999 71
c108.667 0 209.167 27.5 301.5 82.5s165.333 129.667 219 224s80.5 196.5 80.5 306.5s-26.833 212.167 -80.5 306.5s-126.667 169 -219 224s-192.833 82.5 -301.5 82.5c-81.333 0 -159.166 -16.333 -233.499 -49s-138.166 -76.5 -191.499 -131.5
s-95.833 -120.167 -127.5 -195.5s-47.5 -154.333 -47.5 -237s15.833 -161.667 47.5 -237s74.167 -140.5 127.5 -195.5s117.166 -98.833 191.499 -131.5s152.166 -49 233.499 -49zM899.999 -36c-97.333 0 -190.5 19 -279.5 57s-165.667 89.167 -230 153.5
s-115.5 141 -153.5 230s-57 182.167 -57 279.5s19 190.5 57 279.5s89.167 165.667 153.5 230s141 115.5 230 153.5s182.167 57 279.5 57s190.5 -19 279.5 -57s165.667 -89.167 230 -153.5s115.5 -141 153.5 -230s57 -182.167 57 -279.5s-19 -190.5 -57 -279.5
s-89.167 -165.667 -153.5 -230s-141 -115.5 -230 -153.5s-182.167 -57 -279.5 -57z" />
    <glyph glyph-name="equal.uc.whitecircle" unicode="&#x3d;&#x20dd;" 
d="M1119 751h-438v87h438v-87zM1119 539h-438v89h438v-89zM900 71c108.667 0 209.167 27.5 301.5 82.5s165.333 129.667 219 224s80.5 196.5 80.5 306.5s-26.833 212.167 -80.5 306.5s-126.667 169 -219 224s-192.833 82.5 -301.5 82.5
c-81.333 0 -159.166 -16.333 -233.499 -49s-138.166 -76.5 -191.499 -131.5s-95.833 -120.167 -127.5 -195.5s-47.5 -154.333 -47.5 -237s15.833 -161.667 47.5 -237s74.167 -140.5 127.5 -195.5s117.166 -98.833 191.499 -131.5s152.166 -49 233.499 -49zM900 -36
c-97.333 0 -190.5 19 -279.5 57s-165.667 89.167 -230 153.5s-115.5 141 -153.5 230s-57 182.167 -57 279.5s19 190.5 57 279.5s89.167 165.667 153.5 230s141 115.5 230 153.5s182.167 57 279.5 57s190.5 -19 279.5 -57s165.667 -89.167 230 -153.5s115.5 -141 153.5 -230
s57 -182.167 57 -279.5s-19 -190.5 -57 -279.5s-89.167 -165.667 -153.5 -230s-141 -115.5 -230 -153.5s-182.167 -57 -279.5 -57z" />
    <glyph glyph-name="greater.uc.whitecircle" unicode="&#x3e;&#x20dd;" 
d="M683 410v113l300 158v3l-300 158v114l437 -236v-74zM900 71c108.667 0 209.167 27.5 301.5 82.5s165.333 129.667 219 224s80.5 196.5 80.5 306.5s-26.833 212.167 -80.5 306.5s-126.667 169 -219 224s-192.833 82.5 -301.5 82.5
c-81.333 0 -159.166 -16.333 -233.499 -49s-138.166 -76.5 -191.499 -131.5s-95.833 -120.167 -127.5 -195.5s-47.5 -154.333 -47.5 -237s15.833 -161.667 47.5 -237s74.167 -140.5 127.5 -195.5s117.166 -98.833 191.499 -131.5s152.166 -49 233.499 -49zM900 -36
c-97.333 0 -190.5 19 -279.5 57s-165.667 89.167 -230 153.5s-115.5 141 -153.5 230s-57 182.167 -57 279.5s19 190.5 57 279.5s89.167 165.667 153.5 230s141 115.5 230 153.5s182.167 57 279.5 57s190.5 -19 279.5 -57s165.667 -89.167 230 -153.5s115.5 -141 153.5 -230
s57 -182.167 57 -279.5s-19 -190.5 -57 -279.5s-89.167 -165.667 -153.5 -230s-141 -115.5 -230 -153.5s-182.167 -57 -279.5 -57z" />
    <glyph glyph-name="less.uc.whitecircle" unicode="&#x3c;&#x20dd;" 
d="M1117 410l-437 236v74l437 236v-114l-300 -158v-3l300 -158v-113zM900 71c108.667 0 209.167 27.5 301.5 82.5s165.333 129.667 219 224s80.5 196.5 80.5 306.5s-26.833 212.167 -80.5 306.5s-126.667 169 -219 224s-192.833 82.5 -301.5 82.5
c-81.333 0 -159.166 -16.333 -233.499 -49s-138.166 -76.5 -191.499 -131.5s-95.833 -120.167 -127.5 -195.5s-47.5 -154.333 -47.5 -237s15.833 -161.667 47.5 -237s74.167 -140.5 127.5 -195.5s117.166 -98.833 191.499 -131.5s152.166 -49 233.499 -49zM900 -36
c-97.333 0 -190.5 19 -279.5 57s-165.667 89.167 -230 153.5s-115.5 141 -153.5 230s-57 182.167 -57 279.5s19 190.5 57 279.5s89.167 165.667 153.5 230s141 115.5 230 153.5s182.167 57 279.5 57s190.5 -19 279.5 -57s165.667 -89.167 230 -153.5s115.5 -141 153.5 -230
s57 -182.167 57 -279.5s-19 -190.5 -57 -279.5s-89.167 -165.667 -153.5 -230s-141 -115.5 -230 -153.5s-182.167 -57 -279.5 -57z" />
    <glyph glyph-name="numbersign.whitecircle" unicode="&#x23;&#x20dd;" 
d="M846 761l-31 -141h132l31 141h-132zM1159 757h-100l-29 -127h98l-17 -82h-96l-36 -172h-90l37 172h-118l-38 -172h-86l35 172h-95l16 82h93l29 127h-90l16 80h91l34 166h89l-35 -166h119l34 166h89l-33 -166h100zM900 71c108.667 0 209.167 27.5 301.5 82.5
s165.333 129.667 219 224s80.5 196.5 80.5 306.5s-26.833 212.167 -80.5 306.5s-126.667 169 -219 224s-192.833 82.5 -301.5 82.5c-81.333 0 -159.166 -16.333 -233.499 -49s-138.166 -76.5 -191.499 -131.5s-95.833 -120.167 -127.5 -195.5s-47.5 -154.333 -47.5 -237
s15.833 -161.667 47.5 -237s74.167 -140.5 127.5 -195.5s117.166 -98.833 191.499 -131.5s152.166 -49 233.499 -49zM900 -36c-97.333 0 -190.5 19 -279.5 57s-165.667 89.167 -230 153.5s-115.5 141 -153.5 230s-57 182.167 -57 279.5s19 190.5 57 279.5
s89.167 165.667 153.5 230s141 115.5 230 153.5s182.167 57 279.5 57s190.5 -19 279.5 -57s165.667 -89.167 230 -153.5s115.5 -141 153.5 -230s57 -182.167 57 -279.5s-19 -190.5 -57 -279.5s-89.167 -165.667 -153.5 -230s-141 -115.5 -230 -153.5
s-182.167 -57 -279.5 -57z" />
    <glyph glyph-name="uni25BC.whitecircle" unicode="&#x25bc;&#x20dd;" 
d="M616 879h568l-284 -491zM900 71c108.667 0 209.167 27.5 301.5 82.5s165.333 129.667 219 224s80.5 196.5 80.5 306.5s-26.833 212.167 -80.5 306.5s-126.667 169 -219 224s-192.833 82.5 -301.5 82.5c-81.333 0 -159.166 -16.333 -233.499 -49
s-138.166 -76.5 -191.499 -131.5s-95.833 -120.167 -127.5 -195.5s-47.5 -154.333 -47.5 -237s15.833 -161.667 47.5 -237s74.167 -140.5 127.5 -195.5s117.166 -98.833 191.499 -131.5s152.166 -49 233.499 -49zM900 -36c-97.333 0 -190.5 19 -279.5 57
s-165.667 89.167 -230 153.5s-115.5 141 -153.5 230s-57 182.167 -57 279.5s19 190.5 57 279.5s89.167 165.667 153.5 230s141 115.5 230 153.5s182.167 57 279.5 57s190.5 -19 279.5 -57s165.667 -89.167 230 -153.5s115.5 -141 153.5 -230s57 -182.167 57 -279.5
s-19 -190.5 -57 -279.5s-89.167 -165.667 -153.5 -230s-141 -115.5 -230 -153.5s-182.167 -57 -279.5 -57z" />
    <glyph glyph-name="uni25B2.whitecircle" unicode="&#x25b2;&#x20dd;" 
d="M616 500l284 491l284 -491h-568zM900 71c108.667 0 209.167 27.5 301.5 82.5s165.333 129.667 219 224s80.5 196.5 80.5 306.5s-26.833 212.167 -80.5 306.5s-126.667 169 -219 224s-192.833 82.5 -301.5 82.5c-81.333 0 -159.166 -16.333 -233.499 -49
s-138.166 -76.5 -191.499 -131.5s-95.833 -120.167 -127.5 -195.5s-47.5 -154.333 -47.5 -237s15.833 -161.667 47.5 -237s74.167 -140.5 127.5 -195.5s117.166 -98.833 191.499 -131.5s152.166 -49 233.499 -49zM900 -36c-97.333 0 -190.5 19 -279.5 57
s-165.667 89.167 -230 153.5s-115.5 141 -153.5 230s-57 182.167 -57 279.5s19 190.5 57 279.5s89.167 165.667 153.5 230s141 115.5 230 153.5s182.167 57 279.5 57s190.5 -19 279.5 -57s165.667 -89.167 230 -153.5s115.5 -141 153.5 -230s57 -182.167 57 -279.5
s-19 -190.5 -57 -279.5s-89.167 -165.667 -153.5 -230s-141 -115.5 -230 -153.5s-182.167 -57 -279.5 -57z" />
    <glyph glyph-name="uni25C0.whitecircle" unicode="&#x25c0;&#x20dd;" 
d="M1092 406l-491 284l491 284v-568zM900 71c108.667 0 209.167 27.5 301.5 82.5s165.333 129.667 219 224s80.5 196.5 80.5 306.5s-26.833 212.167 -80.5 306.5s-126.667 169 -219 224s-192.833 82.5 -301.5 82.5c-81.333 0 -159.166 -16.333 -233.499 -49
s-138.166 -76.5 -191.499 -131.5s-95.833 -120.167 -127.5 -195.5s-47.5 -154.333 -47.5 -237s15.833 -161.667 47.5 -237s74.167 -140.5 127.5 -195.5s117.166 -98.833 191.499 -131.5s152.166 -49 233.499 -49zM900 -36c-97.333 0 -190.5 19 -279.5 57
s-165.667 89.167 -230 153.5s-115.5 141 -153.5 230s-57 182.167 -57 279.5s19 190.5 57 279.5s89.167 165.667 153.5 230s141 115.5 230 153.5s182.167 57 279.5 57s190.5 -19 279.5 -57s165.667 -89.167 230 -153.5s115.5 -141 153.5 -230s57 -182.167 57 -279.5
s-19 -190.5 -57 -279.5s-89.167 -165.667 -153.5 -230s-141 -115.5 -230 -153.5s-182.167 -57 -279.5 -57z" />
    <glyph glyph-name="uni25B6.whitecircle" unicode="&#x25b6;&#x20dd;" 
d="M708 406v568l491 -284zM900 71c108.667 0 209.167 27.5 301.5 82.5s165.333 129.667 219 224s80.5 196.5 80.5 306.5s-26.833 212.167 -80.5 306.5s-126.667 169 -219 224s-192.833 82.5 -301.5 82.5c-81.333 0 -159.166 -16.333 -233.499 -49
s-138.166 -76.5 -191.499 -131.5s-95.833 -120.167 -127.5 -195.5s-47.5 -154.333 -47.5 -237s15.833 -161.667 47.5 -237s74.167 -140.5 127.5 -195.5s117.166 -98.833 191.499 -131.5s152.166 -49 233.499 -49zM900 -36c-97.333 0 -190.5 19 -279.5 57
s-165.667 89.167 -230 153.5s-115.5 141 -153.5 230s-57 182.167 -57 279.5s19 190.5 57 279.5s89.167 165.667 153.5 230s141 115.5 230 153.5s182.167 57 279.5 57s190.5 -19 279.5 -57s165.667 -89.167 230 -153.5s115.5 -141 153.5 -230s57 -182.167 57 -279.5
s-19 -190.5 -57 -279.5s-89.167 -165.667 -153.5 -230s-141 -115.5 -230 -153.5s-182.167 -57 -279.5 -57z" />
    <glyph glyph-name="question.whitecircle" unicode="&#x3f;&#x20dd;" 
d="M697 837c0 56.667 18.999 101.337 56.999 134.004s89.667 49 155 49c63.333 0 114 -14.833 152 -44.5s57 -69.834 57 -120.501c0 -28 -7.33301 -53.333 -22 -76s-38.667 -46 -72 -70c-33.333 -24.667 -55 -43.334 -65 -56.001s-15 -29.667 -15 -51v-23h-107v31
c-2.66699 56.667 25.333 104.667 84 144c28.667 20 48.5 36.667 59.5 50s16.5 28.666 16.5 45.999c0 24 -8.66699 43.333 -26 58s-40.333 22 -69 22c-29.333 0 -52.666 -8.33301 -69.999 -25s-26.333 -39.334 -27 -68.001h-108zM808.999 441.003
c0 21.333 7.33301 38.333 22 51s34.334 19 59.001 19s44.5 -6.33301 59.5 -19s22.5 -29.667 22.5 -51c0 -20.667 -7.33301 -37.167 -22 -49.5s-34.667 -18.5 -60 -18.5c-24.667 0 -44.334 6.16699 -59.001 18.5s-22 28.833 -22 49.5zM899.999 71.0029
c108.667 0 209.167 27.5 301.5 82.5s165.333 129.667 219 224s80.5 196.5 80.5 306.5s-26.833 212.167 -80.5 306.5s-126.667 169 -219 224s-192.833 82.5 -301.5 82.5c-81.333 0 -159.166 -16.333 -233.499 -49s-138.166 -76.5 -191.499 -131.5
s-95.833 -120.167 -127.5 -195.5s-47.5 -154.333 -47.5 -237s15.833 -161.667 47.5 -237s74.167 -140.5 127.5 -195.5s117.166 -98.833 191.499 -131.5s152.166 -49 233.499 -49zM899.999 -35.9971c-97.333 0 -190.5 19 -279.5 57s-165.667 89.167 -230 153.5
s-115.5 141 -153.5 230s-57 182.167 -57 279.5s19 190.5 57 279.5s89.167 165.667 153.5 230s141 115.5 230 153.5s182.167 57 279.5 57s190.5 -19 279.5 -57s165.667 -89.167 230 -153.5s115.5 -141 153.5 -230s57 -182.167 57 -279.5s-19 -190.5 -57 -279.5
s-89.167 -165.667 -153.5 -230s-141 -115.5 -230 -153.5s-182.167 -57 -279.5 -57z" />
    <glyph glyph-name="exclam.whitecircle" unicode="&#x21;&#x20dd;" 
d="M835 1008h131l-14 -409h-104zM818 440c0 21.333 7.5 38.333 22.5 51s34.833 19 59.5 19c25.333 0 45.5 -6.33301 60.5 -19s22.5 -29.667 22.5 -51c0 -20.667 -7.5 -37.167 -22.5 -49.5s-35.167 -18.5 -60.5 -18.5c-24 0 -43.667 6.16699 -59 18.5s-23 28.833 -23 49.5z
M900 71c108.667 0 209.167 27.5 301.5 82.5s165.333 129.667 219 224s80.5 196.5 80.5 306.5s-26.833 212.167 -80.5 306.5s-126.667 169 -219 224s-192.833 82.5 -301.5 82.5c-81.333 0 -159.166 -16.333 -233.499 -49s-138.166 -76.5 -191.499 -131.5
s-95.833 -120.167 -127.5 -195.5s-47.5 -154.333 -47.5 -237s15.833 -161.667 47.5 -237s74.167 -140.5 127.5 -195.5s117.166 -98.833 191.499 -131.5s152.166 -49 233.499 -49zM900 -36c-97.333 0 -190.5 19 -279.5 57s-165.667 89.167 -230 153.5s-115.5 141 -153.5 230
s-57 182.167 -57 279.5s19 190.5 57 279.5s89.167 165.667 153.5 230s141 115.5 230 153.5s182.167 57 279.5 57s190.5 -19 279.5 -57s165.667 -89.167 230 -153.5s115.5 -141 153.5 -230s57 -182.167 57 -279.5s-19 -190.5 -57 -279.5s-89.167 -165.667 -153.5 -230
s-141 -115.5 -230 -153.5s-182.167 -57 -279.5 -57z" />
    <glyph glyph-name="uni2717.whitecircle" unicode="&#x2717;&#x20dd;" 
d="M900 758l234 235l74 -74l-234 -234l233 -233l-75 -74l-232 233l-232 -233l-75 74l233 233l-234 234l74 74zM900 71c108.667 0 209.167 27.5 301.5 82.5s165.333 129.667 219 224s80.5 196.5 80.5 306.5s-26.833 212.167 -80.5 306.5s-126.667 169 -219 224
s-192.833 82.5 -301.5 82.5c-81.333 0 -159.166 -16.333 -233.499 -49s-138.166 -76.5 -191.499 -131.5s-95.833 -120.167 -127.5 -195.5s-47.5 -154.333 -47.5 -237s15.833 -161.667 47.5 -237s74.167 -140.5 127.5 -195.5s117.166 -98.833 191.499 -131.5
s152.166 -49 233.499 -49zM900 -36c-97.333 0 -190.5 19 -279.5 57s-165.667 89.167 -230 153.5s-115.5 141 -153.5 230s-57 182.167 -57 279.5s19 190.5 57 279.5s89.167 165.667 153.5 230s141 115.5 230 153.5s182.167 57 279.5 57s190.5 -19 279.5 -57
s165.667 -89.167 230 -153.5s115.5 -141 153.5 -230s57 -182.167 57 -279.5s-19 -190.5 -57 -279.5s-89.167 -165.667 -153.5 -230s-141 -115.5 -230 -153.5s-182.167 -57 -279.5 -57z" />
    <glyph glyph-name="uni2713.whitecircle" unicode="&#x2713;&#x20dd;" 
d="M1284 887l-492 -490l-259 257l78 78l181 -181l415 414zM900 71c108.667 0 209.167 27.5 301.5 82.5s165.333 129.667 219 224s80.5 196.5 80.5 306.5s-26.833 212.167 -80.5 306.5s-126.667 169 -219 224s-192.833 82.5 -301.5 82.5
c-81.333 0 -159.166 -16.333 -233.499 -49s-138.166 -76.5 -191.499 -131.5s-95.833 -120.167 -127.5 -195.5s-47.5 -154.333 -47.5 -237s15.833 -161.667 47.5 -237s74.167 -140.5 127.5 -195.5s117.166 -98.833 191.499 -131.5s152.166 -49 233.499 -49zM900 -36
c-97.333 0 -190.5 19 -279.5 57s-165.667 89.167 -230 153.5s-115.5 141 -153.5 230s-57 182.167 -57 279.5s19 190.5 57 279.5s89.167 165.667 153.5 230s141 115.5 230 153.5s182.167 57 279.5 57s190.5 -19 279.5 -57s165.667 -89.167 230 -153.5s115.5 -141 153.5 -230
s57 -182.167 57 -279.5s-19 -190.5 -57 -279.5s-89.167 -165.667 -153.5 -230s-141 -115.5 -230 -153.5s-182.167 -57 -279.5 -57z" />
    <glyph glyph-name="zero.whitesquare" unicode="&#x30;&#x20de;" 
d="M900 464c39.333 0 70.333 19.167 93 57.5s34 91.166 34 158.499v27c0 66.667 -11.333 119.334 -34 158.001s-53.667 58 -93 58s-70.166 -19.333 -92.499 -58s-33.5 -91.334 -33.5 -158.001v-27c0 -67.333 11.167 -120.166 33.5 -158.499s53.166 -57.5 92.499 -57.5z
M900 368c-76.667 0 -137.167 28 -181.5 84s-66.5 132 -66.5 228v27c0 96 22.167 171.833 66.5 227.5s104.833 83.5 181.5 83.5s137.167 -27.833 181.5 -83.5s66.5 -131.5 66.5 -227.5v-27c0 -96 -22.167 -172 -66.5 -228s-104.833 -84 -181.5 -84zM445 1387h910
c68.667 0 127.167 -23.667 175.5 -71s72.5 -104.666 72.5 -171.999v-919c0 -67.333 -24.167 -124.833 -72.5 -172.5s-106.833 -71.5 -175.5 -71.5h-910c-68.667 0 -127.167 23.833 -175.5 71.5s-72.5 105.167 -72.5 172.5v919c0 67.333 24.167 124.666 72.5 171.999
s106.833 71 175.5 71zM1340 1268h-880c-38.667 0 -71 -12.5 -97 -37.5s-39 -56.167 -39 -93.5v-905c0 -36.667 13.333 -67.834 40 -93.501s58.667 -38.5 96 -38.5h880c38 0 70.167 12.833 96.5 38.5s39.5 56.834 39.5 93.501v905c0 37.333 -13 68.5 -39 93.5
s-58.333 37.5 -97 37.5z" />
    <glyph glyph-name="one.whitesquare" unicode="&#x31;&#x20de;" 
d="M996 380h-120v516h-1l-155 -104v108l153 106h123v-626zM445 1387h910c68.667 0 127.167 -23.667 175.5 -71s72.5 -104.666 72.5 -171.999v-919c0 -67.333 -24.167 -124.833 -72.5 -172.5s-106.833 -71.5 -175.5 -71.5h-910c-68.667 0 -127.167 23.833 -175.5 71.5
s-72.5 105.167 -72.5 172.5v919c0 67.333 24.167 124.666 72.5 171.999s106.833 71 175.5 71zM1340 1268h-880c-38.667 0 -71 -12.5 -97 -37.5s-39 -56.167 -39 -93.5v-905c0 -36.667 13.333 -67.834 40 -93.501s58.667 -38.5 96 -38.5h880c38 0 70.167 12.833 96.5 38.5
s39.5 56.834 39.5 93.501v905c0 37.333 -13 68.5 -39 93.5s-58.333 37.5 -97 37.5z" />
    <glyph glyph-name="two.whitesquare" unicode="&#x32;&#x20de;" 
d="M795 823h-114.001v4c0 56.667 20.5 102.834 61.5 138.501s94.167 53.5 159.5 53.5c66 0 119.333 -16.333 160 -49s61 -75 61 -127c0 -28.667 -8.83301 -58.334 -26.5 -89.001s-47.167 -67 -88.5 -109l-160 -167c29.333 0 77 -0.333008 143 -1s113.667 -1 143 -1v-96h-448
v74l241 250c49.333 51.333 74 94.333 74 129c0 26.667 -9.66699 48.667 -29 66s-43.666 26 -72.999 26s-54 -9.33301 -74 -28s-30 -42 -30 -70v-4zM444.999 1387h910c68.667 0 127.167 -23.667 175.5 -71s72.5 -104.666 72.5 -171.999v-919
c0 -67.333 -24.167 -124.833 -72.5 -172.5s-106.833 -71.5 -175.5 -71.5h-910c-68.667 0 -127.167 23.833 -175.5 71.5s-72.5 105.167 -72.5 172.5v919c0 67.333 24.167 124.666 72.5 171.999s106.833 71 175.5 71zM1340 1268h-880c-38.667 0 -71 -12.5 -97 -37.5
s-39 -56.167 -39 -93.5v-905c0 -36.667 13.333 -67.834 40 -93.501s58.667 -38.5 96 -38.5h880c38 0 70.167 12.833 96.5 38.5s39.5 56.834 39.5 93.501v905c0 37.333 -13 68.5 -39 93.5s-58.333 37.5 -97 37.5z" />
    <glyph glyph-name="three.whitesquare" unicode="&#x33;&#x20de;" 
d="M830 658v91.002h68c30.667 0 56 8.5 76 25.5s30 38.833 30 65.5c0 25.333 -9.83301 46.166 -29.5 62.499s-45.167 24.5 -76.5 24.5c-27.333 0 -51.333 -7.5 -72 -22.5s-32.334 -33.833 -35.001 -56.5h-113c3.33301 51.333 25.166 92.5 65.499 123.5
s93.166 46.5 158.499 46.5c68.667 0 122 -14.333 160 -43s57.667 -68.667 59 -120c0.666992 -34.667 -9.66602 -64.834 -30.999 -90.501s-50.666 -42.834 -87.999 -51.501v-7c42 -6.66699 76 -23.5 102 -50.5s39.333 -60.5 40 -100.5
c0.666992 -55.333 -21.833 -100.166 -67.5 -134.499s-105.5 -51.5 -179.5 -51.5c-67.333 0 -122.166 15.667 -164.499 47s-64.5 72.333 -66.5 123h109c3.33301 -23.333 16.5 -42.333 39.5 -57s50.833 -22 83.5 -22c36 0 65.833 9.33301 89.5 28s35.5 42.667 35.5 72
c0 28.667 -11.5 52.167 -34.5 70.5s-52.167 27.5 -87.5 27.5h-71zM445 1387h910c68.667 0 127.167 -23.667 175.5 -71s72.5 -104.666 72.5 -171.999v-919c0 -67.333 -24.167 -124.833 -72.5 -172.5s-106.833 -71.5 -175.5 -71.5h-910c-68.667 0 -127.167 23.833 -175.5 71.5
s-72.5 105.167 -72.5 172.5v919c0 67.333 24.167 124.666 72.5 171.999s106.833 71 175.5 71zM1340 1268h-880c-38.667 0 -71 -12.5 -97 -37.5s-39 -56.167 -39 -93.5v-905c0 -36.667 13.333 -67.834 40 -93.501s58.667 -38.5 96 -38.5h880c38 0 70.167 12.833 96.5 38.5
s39.5 56.834 39.5 93.501v905c0 37.333 -13 68.5 -39 93.5s-58.333 37.5 -97 37.5z" />
    <glyph glyph-name="four.whitesquare" unicode="&#x34;&#x20de;" 
d="M891 1006h180v-413h81v-94h-81v-119h-115v119h-318v97c58 105.333 142.333 242 253 410zM956 593v332h-1c-98 -141.333 -168.333 -252 -211 -332h212zM445 1387h910c68.667 0 127.167 -23.667 175.5 -71s72.5 -104.666 72.5 -171.999v-919
c0 -67.333 -24.167 -124.833 -72.5 -172.5s-106.833 -71.5 -175.5 -71.5h-910c-68.667 0 -127.167 23.833 -175.5 71.5s-72.5 105.167 -72.5 172.5v919c0 67.333 24.167 124.666 72.5 171.999s106.833 71 175.5 71zM1340 1268h-880c-38.667 0 -71 -12.5 -97 -37.5
s-39 -56.167 -39 -93.5v-905c0 -36.667 13.333 -67.834 40 -93.501s58.667 -38.5 96 -38.5h880c38 0 70.167 12.833 96.5 38.5s39.5 56.834 39.5 93.501v905c0 37.333 -13 68.5 -39 93.5s-58.333 37.5 -97 37.5z" />
    <glyph glyph-name="five.whitesquare" unicode="&#x35;&#x20de;" 
d="M793 537c5.33301 -23.333 18.833 -41.666 40.5 -54.999s47.834 -20 78.501 -20c36 0 65.667 11.667 89 35s35 52.666 35 87.999c0 33.333 -11.667 61.5 -35 84.5s-52.333 34.5 -87 34.5c-22.667 0 -43.834 -5.5 -63.501 -16.5s-35.167 -25.5 -46.5 -43.5h-112l30 362h393
v-93h-299l-16 -177h9c12 16.667 30.167 30 54.5 40s50.166 15 77.499 15c62.667 0 113.334 -18.5 152.001 -55.5s58 -85.833 58 -146.5c0 -66.667 -22.5 -120.167 -67.5 -160.5s-104.167 -60.5 -177.5 -60.5c-63.333 0 -116.333 15.667 -159 47s-66 72 -70 122h116z
M445 1387h910c68.667 0 127.167 -23.667 175.5 -71s72.5 -104.666 72.5 -171.999v-919c0 -67.333 -24.167 -124.833 -72.5 -172.5s-106.833 -71.5 -175.5 -71.5h-910c-68.667 0 -127.167 23.833 -175.5 71.5s-72.5 105.167 -72.5 172.5v919
c0 67.333 24.167 124.666 72.5 171.999s106.833 71 175.5 71zM1340 1268h-880c-38.667 0 -71 -12.5 -97 -37.5s-39 -56.167 -39 -93.5v-905c0 -36.667 13.333 -67.834 40 -93.501s58.667 -38.5 96 -38.5h880c38 0 70.167 12.833 96.5 38.5s39.5 56.834 39.5 93.501v905
c0 37.333 -13 68.5 -39 93.5s-58.333 37.5 -97 37.5z" />
    <glyph glyph-name="six.whitesquare" unicode="&#x36;&#x20de;" 
d="M1018 873c-5.33301 15.333 -17.168 28.001 -35.501 38.001s-39.166 15 -62.499 15c-36 0 -66.5 -14.833 -91.5 -44.5s-41.167 -69.834 -48.5 -120.501c-3.33301 -21.333 -5 -42 -5 -62h3c12 26 33.5 47.5 64.5 64.5s64.5 25.5 100.5 25.5c62 0 112.167 -19 150.5 -57
s57.5 -87.667 57.5 -149c0 -64.667 -21.667 -116.5 -65 -155.5s-101.333 -58.5 -174 -58.5c-82.667 0 -145.667 27.667 -189 83c-41.333 53.333 -62 130.333 -62 231c0 223.333 87 335 261 335c58 0 106.5 -13.333 145.5 -40s61.167 -61.667 66.5 -105h-116z
M793.998 584.001c0 -36.667 11.167 -66.332 33.5 -88.999s51.5 -34 87.5 -34c34.667 0 63.167 11.333 85.5 34s33.5 51.667 33.5 87s-11 64.166 -33 86.499s-50.667 33.5 -86 33.5c-36 0 -65.167 -11 -87.5 -33s-33.5 -50.333 -33.5 -85zM444.998 1387h910
c68.667 0 127.167 -23.667 175.5 -71s72.5 -104.666 72.5 -171.999v-919c0 -67.333 -24.167 -124.833 -72.5 -172.5s-106.833 -71.5 -175.5 -71.5h-910c-68.667 0 -127.167 23.833 -175.5 71.5s-72.5 105.167 -72.5 172.5v919c0 67.333 24.167 124.666 72.5 171.999
s106.833 71 175.5 71zM1340 1268h-880c-38.667 0 -71 -12.5 -97 -37.5s-39 -56.167 -39 -93.5v-905c0 -36.667 13.333 -67.834 40 -93.501s58.667 -38.5 96 -38.5h880c38 0 70.167 12.833 96.5 38.5s39.5 56.834 39.5 93.501v905c0 37.333 -13 68.5 -39 93.5
s-58.333 37.5 -97 37.5z" />
    <glyph glyph-name="seven.whitesquare" unicode="&#x37;&#x20de;" 
d="M685 1006h448v-97l-269 -529h-127l274 528v1h-326v97zM445 1387h910c68.667 0 127.167 -23.667 175.5 -71s72.5 -104.666 72.5 -171.999v-919c0 -67.333 -24.167 -124.833 -72.5 -172.5s-106.833 -71.5 -175.5 -71.5h-910c-68.667 0 -127.167 23.833 -175.5 71.5
s-72.5 105.167 -72.5 172.5v919c0 67.333 24.167 124.666 72.5 171.999s106.833 71 175.5 71zM1340 1268h-880c-38.667 0 -71 -12.5 -97 -37.5s-39 -56.167 -39 -93.5v-905c0 -36.667 13.333 -67.834 40 -93.501s58.667 -38.5 96 -38.5h880c38 0 70.167 12.833 96.5 38.5
s39.5 56.834 39.5 93.501v905c0 37.333 -13 68.5 -39 93.5s-58.333 37.5 -97 37.5z" />
    <glyph glyph-name="eight.whitesquare" unicode="&#x38;&#x20de;" 
d="M900 747c31.333 0 57 8.83301 77 26.5s30 40.167 30 67.5c0 26.667 -10.167 48.667 -30.5 66s-45.833 26 -76.5 26s-56.167 -8.66699 -76.5 -26s-30.5 -39.333 -30.5 -66c0 -27.333 10 -49.833 30 -67.5s45.667 -26.5 77 -26.5zM900 453c37.333 0 68.333 10.167 93 30.5
s37 45.833 37 76.5s-12.5 56.334 -37.5 77.001s-55.833 31 -92.5 31s-67.5 -10.333 -92.5 -31s-37.5 -46.334 -37.5 -77.001s12.333 -56.167 37 -76.5s55.667 -30.5 93 -30.5zM900 368c-75.333 0 -135.67 16.833 -181.003 50.5s-68 78.167 -68 133.5
c0 38 13.333 71.333 40 100s62.334 48 107.001 58v2c-38 12 -67.667 30.333 -89 55s-32 53.334 -32 86.001c0 49.333 20.5 89.166 61.5 119.499s94.833 45.5 161.5 45.5s120.5 -15.167 161.5 -45.5s61.5 -70.166 61.5 -119.499c0 -32.667 -10.667 -61.334 -32 -86.001
s-51 -43 -89 -55v-2c44.667 -10 80.334 -29.333 107.001 -58s40 -62 40 -100c0 -55.333 -22.667 -99.833 -68 -133.5s-105.666 -50.5 -180.999 -50.5zM444.996 1387h910c68.667 0 127.167 -23.667 175.5 -71s72.5 -104.666 72.5 -171.999v-919
c0 -67.333 -24.167 -124.833 -72.5 -172.5s-106.833 -71.5 -175.5 -71.5h-910c-68.667 0 -127.167 23.833 -175.5 71.5s-72.5 105.167 -72.5 172.5v919c0 67.333 24.167 124.666 72.5 171.999s106.833 71 175.5 71zM1340 1268h-880c-38.667 0 -71 -12.5 -97 -37.5
s-39 -56.167 -39 -93.5v-905c0 -36.667 13.333 -67.834 40 -93.501s58.667 -38.5 96 -38.5h880c38 0 70.167 12.833 96.5 38.5s39.5 56.834 39.5 93.501v905c0 37.333 -13 68.5 -39 93.5s-58.333 37.5 -97 37.5z" />
    <glyph glyph-name="nine.whitesquare" unicode="&#x39;&#x20de;" 
d="M1009 803c0 36.667 -10.8311 66.333 -32.498 89s-50.5 34 -86.5 34c-34.667 0 -63.5 -11.333 -86.5 -34s-34.5 -51.667 -34.5 -87s11.167 -64 33.5 -86s51.166 -33 86.499 -33s64.166 11 86.499 33s33.5 50 33.5 84zM785.002 513.999
c5.33301 -15.333 17.166 -28.002 35.499 -38.002s39.166 -15 62.499 -15c47.333 0 83.5 19.333 108.5 58s36.833 94.334 35.5 167.001h-3c-13.333 -25.333 -35.166 -46.166 -65.499 -62.499s-63.166 -24.5 -98.499 -24.5c-61.333 0 -111.333 19 -150 57s-58 87.333 -58 148
c0 64.667 21.833 116.5 65.5 155.5s101.834 58.5 174.501 58.5c81.333 0 143.5 -26.833 186.5 -80.5s64.5 -131.167 64.5 -232.5c0 -224 -87 -336 -261 -336c-57.333 0 -105.833 13.5 -145.5 40.5s-61.834 61.833 -66.501 104.5h115zM445.002 1387h910
c68.667 0 127.167 -23.667 175.5 -71s72.5 -104.666 72.5 -171.999v-919c0 -67.333 -24.167 -124.833 -72.5 -172.5s-106.833 -71.5 -175.5 -71.5h-910c-68.667 0 -127.167 23.833 -175.5 71.5s-72.5 105.167 -72.5 172.5v919c0 67.333 24.167 124.666 72.5 171.999
s106.833 71 175.5 71zM1340 1268h-880c-38.667 0 -71 -12.5 -97 -37.5s-39 -56.167 -39 -93.5v-905c0 -36.667 13.333 -67.834 40 -93.501s58.667 -38.5 96 -38.5h880c38 0 70.167 12.833 96.5 38.5s39.5 56.834 39.5 93.501v905c0 37.333 -13 68.5 -39 93.5
s-58.333 37.5 -97 37.5z" />
    <glyph glyph-name="plus.uc.whitesquare" unicode="&#x2b;&#x20de;" 
d="M950 646v-198h-100v198h-191v95h191v188h100v-188h191v-95h-191zM445 1387h910c68.667 0 127.167 -23.667 175.5 -71s72.5 -104.666 72.5 -171.999v-919c0 -67.333 -24.167 -124.833 -72.5 -172.5s-106.833 -71.5 -175.5 -71.5h-910
c-68.667 0 -127.167 23.833 -175.5 71.5s-72.5 105.167 -72.5 172.5v919c0 67.333 24.167 124.666 72.5 171.999s106.833 71 175.5 71zM1340 1268h-880c-38.667 0 -71 -12.5 -97 -37.5s-39 -56.167 -39 -93.5v-905c0 -36.667 13.333 -67.834 40 -93.501
s58.667 -38.5 96 -38.5h880c38 0 70.167 12.833 96.5 38.5s39.5 56.834 39.5 93.501v905c0 37.333 -13 68.5 -39 93.5s-58.333 37.5 -97 37.5z" />
    <glyph glyph-name="minus.uc.whitesquare" unicode="&#x2212;&#x20de;" 
d="M1129 641h-458v98h458v-98zM445 1387h910c68.667 0 127.167 -23.667 175.5 -71s72.5 -104.666 72.5 -171.999v-919c0 -67.333 -24.167 -124.833 -72.5 -172.5s-106.833 -71.5 -175.5 -71.5h-910c-68.667 0 -127.167 23.833 -175.5 71.5s-72.5 105.167 -72.5 172.5v919
c0 67.333 24.167 124.666 72.5 171.999s106.833 71 175.5 71zM1340 1268h-880c-38.667 0 -71 -12.5 -97 -37.5s-39 -56.167 -39 -93.5v-905c0 -36.667 13.333 -67.834 40 -93.501s58.667 -38.5 96 -38.5h880c38 0 70.167 12.833 96.5 38.5s39.5 56.834 39.5 93.501v905
c0 37.333 -13 68.5 -39 93.5s-58.333 37.5 -97 37.5z" />
    <glyph glyph-name="multiply.uc.whitesquare" unicode="&#xd7;&#x20de;" 
d="M900 759l148 140l70 -70l-145 -140l145 -141l-70 -69l-148 141l-148 -141l-70 69l145 141l-145 140l70 70zM445 1387h910c68.667 0 127.167 -23.667 175.5 -71s72.5 -104.666 72.5 -171.999v-919c0 -67.333 -24.167 -124.833 -72.5 -172.5s-106.833 -71.5 -175.5 -71.5
h-910c-68.667 0 -127.167 23.833 -175.5 71.5s-72.5 105.167 -72.5 172.5v919c0 67.333 24.167 124.666 72.5 171.999s106.833 71 175.5 71zM1340 1268h-880c-38.667 0 -71 -12.5 -97 -37.5s-39 -56.167 -39 -93.5v-905c0 -36.667 13.333 -67.834 40 -93.501
s58.667 -38.5 96 -38.5h880c38 0 70.167 12.833 96.5 38.5s39.5 56.834 39.5 93.501v905c0 37.333 -13 68.5 -39 93.5s-58.333 37.5 -97 37.5z" />
    <glyph glyph-name="divide.uc.whitesquare" unicode="&#xf7;&#x20de;" 
d="M828 877c0 20 6.66602 36.333 19.999 49s30.333 19 51 19c22.667 0 40.834 -6.16699 54.501 -18.5s20.5 -28.833 20.5 -49.5c0 -19.333 -7 -35.333 -21 -48s-32 -19 -54 -19c-20.667 0 -37.667 6.33301 -51 19s-20 28.667 -20 48zM1129 648h-458v84h458v-84zM827.999 504
c0 20 6.66895 36.333 20.002 49s30.666 19 51.999 19c22 0 39.833 -6.33301 53.5 -19s20.5 -29 20.5 -49c0 -19.333 -6.83301 -35.333 -20.5 -48s-31.5 -19 -53.5 -19c-20.667 0 -37.834 6.33301 -51.501 19s-20.5 28.667 -20.5 48zM445.001 1387h910
c68.667 0 127.167 -23.667 175.5 -71s72.5 -104.666 72.5 -171.999v-919c0 -67.333 -24.167 -124.833 -72.5 -172.5s-106.833 -71.5 -175.5 -71.5h-910c-68.667 0 -127.167 23.833 -175.5 71.5s-72.5 105.167 -72.5 172.5v919c0 67.333 24.167 124.666 72.5 171.999
s106.833 71 175.5 71zM1340 1268h-880c-38.667 0 -71 -12.5 -97 -37.5s-39 -56.167 -39 -93.5v-905c0 -36.667 13.333 -67.834 40 -93.501s58.667 -38.5 96 -38.5h880c38 0 70.167 12.833 96.5 38.5s39.5 56.834 39.5 93.501v905c0 37.333 -13 68.5 -39 93.5
s-58.333 37.5 -97 37.5z" />
    <glyph glyph-name="equal.uc.whitesquare" unicode="&#x3d;&#x20de;" 
d="M1119 751h-438v87h438v-87zM1119 539h-438v88h438v-88zM445 1387h910c68.667 0 127.167 -23.667 175.5 -71s72.5 -104.666 72.5 -171.999v-919c0 -67.333 -24.167 -124.833 -72.5 -172.5s-106.833 -71.5 -175.5 -71.5h-910c-68.667 0 -127.167 23.833 -175.5 71.5
s-72.5 105.167 -72.5 172.5v919c0 67.333 24.167 124.666 72.5 171.999s106.833 71 175.5 71zM1340 1268h-880c-38.667 0 -71 -12.5 -97 -37.5s-39 -56.167 -39 -93.5v-905c0 -36.667 13.333 -67.834 40 -93.501s58.667 -38.5 96 -38.5h880c38 0 70.167 12.833 96.5 38.5
s39.5 56.834 39.5 93.501v905c0 37.333 -13 68.5 -39 93.5s-58.333 37.5 -97 37.5z" />
    <glyph glyph-name="greater.uc.whitesquare" unicode="&#x3e;&#x20de;" 
d="M711 409v114l300 158v3l-300 157v114l437 -236v-74zM445 1387h910c68.667 0 127.167 -23.667 175.5 -71s72.5 -104.666 72.5 -171.999v-919c0 -67.333 -24.167 -124.833 -72.5 -172.5s-106.833 -71.5 -175.5 -71.5h-910c-68.667 0 -127.167 23.833 -175.5 71.5
s-72.5 105.167 -72.5 172.5v919c0 67.333 24.167 124.666 72.5 171.999s106.833 71 175.5 71zM1340 1268h-880c-38.667 0 -71 -12.5 -97 -37.5s-39 -56.167 -39 -93.5v-905c0 -36.667 13.333 -67.834 40 -93.501s58.667 -38.5 96 -38.5h880c38 0 70.167 12.833 96.5 38.5
s39.5 56.834 39.5 93.501v905c0 37.333 -13 68.5 -39 93.5s-58.333 37.5 -97 37.5z" />
    <glyph glyph-name="less.uc.whitesquare" unicode="&#x3c;&#x20de;" 
d="M1098 409l-437 236v74l437 236v-114l-300 -157v-3l300 -158v-114zM445 1387h910c68.667 0 127.167 -23.667 175.5 -71s72.5 -104.666 72.5 -171.999v-919c0 -67.333 -24.167 -124.833 -72.5 -172.5s-106.833 -71.5 -175.5 -71.5h-910
c-68.667 0 -127.167 23.833 -175.5 71.5s-72.5 105.167 -72.5 172.5v919c0 67.333 24.167 124.666 72.5 171.999s106.833 71 175.5 71zM1340 1268h-880c-38.667 0 -71 -12.5 -97 -37.5s-39 -56.167 -39 -93.5v-905c0 -36.667 13.333 -67.834 40 -93.501
s58.667 -38.5 96 -38.5h880c38 0 70.167 12.833 96.5 38.5s39.5 56.834 39.5 93.501v905c0 37.333 -13 68.5 -39 93.5s-58.333 37.5 -97 37.5z" />
    <glyph glyph-name="numbersign.whitesquare" unicode="&#x23;&#x20de;" 
d="M846 762l-31 -141h132l31 141h-132zM1159 757h-100l-29 -126h98l-17 -82h-96l-36 -172h-90l37 172h-118l-38 -172h-86l35 172h-95l16 82h93l29 126h-90l16 81h91l34 166h89l-35 -166h119l34 166h89l-33 -166h100zM445 1387h910c68.667 0 127.167 -23.667 175.5 -71
s72.5 -104.666 72.5 -171.999v-919c0 -67.333 -24.167 -124.833 -72.5 -172.5s-106.833 -71.5 -175.5 -71.5h-910c-68.667 0 -127.167 23.833 -175.5 71.5s-72.5 105.167 -72.5 172.5v919c0 67.333 24.167 124.666 72.5 171.999s106.833 71 175.5 71zM1340 1268h-880
c-38.667 0 -71 -12.5 -97 -37.5s-39 -56.167 -39 -93.5v-905c0 -36.667 13.333 -67.834 40 -93.501s58.667 -38.5 96 -38.5h880c38 0 70.167 12.833 96.5 38.5s39.5 56.834 39.5 93.501v905c0 37.333 -13 68.5 -39 93.5s-58.333 37.5 -97 37.5z" />
    <glyph glyph-name="uni25BC.whitesquare" unicode="&#x25bc;&#x20de;" 
d="M616 881h568l-284 -491zM445 1387h910c68.667 0 127.167 -23.667 175.5 -71s72.5 -104.666 72.5 -171.999v-919c0 -67.333 -24.167 -124.833 -72.5 -172.5s-106.833 -71.5 -175.5 -71.5h-910c-68.667 0 -127.167 23.833 -175.5 71.5s-72.5 105.167 -72.5 172.5v919
c0 67.333 24.167 124.666 72.5 171.999s106.833 71 175.5 71zM1340 1268h-880c-38.667 0 -71 -12.5 -97 -37.5s-39 -56.167 -39 -93.5v-905c0 -36.667 13.333 -67.834 40 -93.501s58.667 -38.5 96 -38.5h880c38 0 70.167 12.833 96.5 38.5s39.5 56.834 39.5 93.501v905
c0 37.333 -13 68.5 -39 93.5s-58.333 37.5 -97 37.5z" />
    <glyph glyph-name="uni25B2.whitesquare" unicode="&#x25b2;&#x20de;" 
d="M616 498l284 491l284 -491h-568zM445 1387h910c68.667 0 127.167 -23.667 175.5 -71s72.5 -104.666 72.5 -171.999v-919c0 -67.333 -24.167 -124.833 -72.5 -172.5s-106.833 -71.5 -175.5 -71.5h-910c-68.667 0 -127.167 23.833 -175.5 71.5s-72.5 105.167 -72.5 172.5
v919c0 67.333 24.167 124.666 72.5 171.999s106.833 71 175.5 71zM1340 1268h-880c-38.667 0 -71 -12.5 -97 -37.5s-39 -56.167 -39 -93.5v-905c0 -36.667 13.333 -67.834 40 -93.501s58.667 -38.5 96 -38.5h880c38 0 70.167 12.833 96.5 38.5s39.5 56.834 39.5 93.501v905
c0 37.333 -13 68.5 -39 93.5s-58.333 37.5 -97 37.5z" />
    <glyph glyph-name="uni25C0.whitesquare" unicode="&#x25c0;&#x20de;" 
d="M1092 406l-491 284l491 284v-568zM445 1387h910c68.667 0 127.167 -23.667 175.5 -71s72.5 -104.666 72.5 -171.999v-919c0 -67.333 -24.167 -124.833 -72.5 -172.5s-106.833 -71.5 -175.5 -71.5h-910c-68.667 0 -127.167 23.833 -175.5 71.5s-72.5 105.167 -72.5 172.5
v919c0 67.333 24.167 124.666 72.5 171.999s106.833 71 175.5 71zM1340 1268h-880c-38.667 0 -71 -12.5 -97 -37.5s-39 -56.167 -39 -93.5v-905c0 -36.667 13.333 -67.834 40 -93.501s58.667 -38.5 96 -38.5h880c38 0 70.167 12.833 96.5 38.5s39.5 56.834 39.5 93.501v905
c0 37.333 -13 68.5 -39 93.5s-58.333 37.5 -97 37.5z" />
    <glyph glyph-name="uni25B6.whitesquare" unicode="&#x25b6;&#x20de;" 
d="M708 406v568l491 -284zM445 1387h910c68.667 0 127.167 -23.667 175.5 -71s72.5 -104.666 72.5 -171.999v-919c0 -67.333 -24.167 -124.833 -72.5 -172.5s-106.833 -71.5 -175.5 -71.5h-910c-68.667 0 -127.167 23.833 -175.5 71.5s-72.5 105.167 -72.5 172.5v919
c0 67.333 24.167 124.666 72.5 171.999s106.833 71 175.5 71zM1340 1268h-880c-38.667 0 -71 -12.5 -97 -37.5s-39 -56.167 -39 -93.5v-905c0 -36.667 13.333 -67.834 40 -93.501s58.667 -38.5 96 -38.5h880c38 0 70.167 12.833 96.5 38.5s39.5 56.834 39.5 93.501v905
c0 37.333 -13 68.5 -39 93.5s-58.333 37.5 -97 37.5z" />
    <glyph glyph-name="question.whitesquare" unicode="&#x3f;&#x20de;" 
d="M706 837c0 56.667 18.999 101.335 56.999 134.002s89.667 49 155 49c63.333 0 114 -14.833 152 -44.5s57 -69.834 57 -120.501c0 -28 -7.33301 -53.333 -22 -76s-38.667 -46 -72 -70c-33.333 -24.667 -55 -43.334 -65 -56.001s-15 -29.667 -15 -51v-23h-107v30
c-2.66699 56.667 25.333 104.667 84 144c28.667 20 48.5 36.833 59.5 50.5s16.5 29.167 16.5 46.5c0 24 -8.66699 43.333 -26 58s-40.333 22 -69 22c-29.333 0 -52.666 -8.5 -69.999 -25.5s-26.333 -39.5 -27 -67.5h-108zM816.999 441.001c0 20.667 7.5 37.5 22.5 50.5
s34.833 19.5 59.5 19.5s44.5 -6.33301 59.5 -19s22.5 -29.667 22.5 -51c0 -20.667 -7.33301 -37.167 -22 -49.5s-34.667 -18.5 -60 -18.5c-24.667 0 -44.5 6.16699 -59.5 18.5s-22.5 28.833 -22.5 49.5zM444.999 1387h910c68.667 0 127.167 -23.667 175.5 -71
s72.5 -104.666 72.5 -171.999v-919c0 -67.333 -24.167 -124.833 -72.5 -172.5s-106.833 -71.5 -175.5 -71.5h-910c-68.667 0 -127.167 23.833 -175.5 71.5s-72.5 105.167 -72.5 172.5v919c0 67.333 24.167 124.666 72.5 171.999s106.833 71 175.5 71zM1340 1268h-880
c-38.667 0 -71 -12.5 -97 -37.5s-39 -56.167 -39 -93.5v-905c0 -36.667 13.333 -67.834 40 -93.501s58.667 -38.5 96 -38.5h880c38 0 70.167 12.833 96.5 38.5s39.5 56.834 39.5 93.501v905c0 37.333 -13 68.5 -39 93.5s-58.333 37.5 -97 37.5z" />
    <glyph glyph-name="exclam.whitesquare" unicode="&#x21;&#x20de;" 
d="M835 1008h131l-14 -409h-104zM818 440c0 21.333 7.66699 38.333 23 51s35 19 59 19c25.333 0 45.5 -6.33301 60.5 -19s22.5 -29.667 22.5 -51c0 -20.667 -7.5 -37.167 -22.5 -49.5s-35.167 -18.5 -60.5 -18.5c-24 0 -43.667 6.16699 -59 18.5s-23 28.833 -23 49.5z
M445 1387h910c68.667 0 127.167 -23.667 175.5 -71s72.5 -104.666 72.5 -171.999v-919c0 -67.333 -24.167 -124.833 -72.5 -172.5s-106.833 -71.5 -175.5 -71.5h-910c-68.667 0 -127.167 23.833 -175.5 71.5s-72.5 105.167 -72.5 172.5v919
c0 67.333 24.167 124.666 72.5 171.999s106.833 71 175.5 71zM1340 1268h-880c-38.667 0 -71 -12.5 -97 -37.5s-39 -56.167 -39 -93.5v-905c0 -36.667 13.333 -67.834 40 -93.501s58.667 -38.5 96 -38.5h880c38 0 70.167 12.833 96.5 38.5s39.5 56.834 39.5 93.501v905
c0 37.333 -13 68.5 -39 93.5s-58.333 37.5 -97 37.5z" />
    <glyph glyph-name="uni2717.whitesquare" unicode="&#x2717;&#x20de;" 
d="M900 758l234 235l74 -75l-234 -233l233 -233l-75 -74l-232 233l-232 -233l-75 74l233 233l-234 233l74 75zM445 1387h910c68.667 0 127.167 -23.667 175.5 -71s72.5 -104.666 72.5 -171.999v-919c0 -67.333 -24.167 -124.833 -72.5 -172.5s-106.833 -71.5 -175.5 -71.5
h-910c-68.667 0 -127.167 23.833 -175.5 71.5s-72.5 105.167 -72.5 172.5v919c0 67.333 24.167 124.666 72.5 171.999s106.833 71 175.5 71zM1340 1268h-880c-38.667 0 -71 -12.5 -97 -37.5s-39 -56.167 -39 -93.5v-905c0 -36.667 13.333 -67.834 40 -93.501
s58.667 -38.5 96 -38.5h880c38 0 70.167 12.833 96.5 38.5s39.5 56.834 39.5 93.501v905c0 37.333 -13 68.5 -39 93.5s-58.333 37.5 -97 37.5z" />
    <glyph glyph-name="uni2713.whitesquare" unicode="&#x2713;&#x20de;" 
d="M1284 888l-492 -490l-259 257l78 78l181 -181l415 414zM445 1387h910c68.667 0 127.167 -23.667 175.5 -71s72.5 -104.666 72.5 -171.999v-919c0 -67.333 -24.167 -124.833 -72.5 -172.5s-106.833 -71.5 -175.5 -71.5h-910c-68.667 0 -127.167 23.833 -175.5 71.5
s-72.5 105.167 -72.5 172.5v919c0 67.333 24.167 124.666 72.5 171.999s106.833 71 175.5 71zM1340 1268h-880c-38.667 0 -71 -12.5 -97 -37.5s-39 -56.167 -39 -93.5v-905c0 -36.667 13.333 -67.834 40 -93.501s58.667 -38.5 96 -38.5h880c38 0 70.167 12.833 96.5 38.5
s39.5 56.834 39.5 93.501v905c0 37.333 -13 68.5 -39 93.5s-58.333 37.5 -97 37.5z" />
    <glyph glyph-name=".notdef" horiz-adv-x="2048" 
d="M100 -494v286h1848v-286h-1848zM100 -62v285h1848v-285h-1848zM100 369v286h1848v-286h-1848zM100 801v286h1848v-286h-1848zM100 1233v285h1848v-285h-1848zM100 1664v286h1848v-286h-1848z" />
    <glyph glyph-name="space" unicode=" " horiz-adv-x="410" 
 />
    <glyph glyph-name="exclam" unicode="!" horiz-adv-x="517" 
d="M161 1365h195l-22 -959h-151zM143 94c0 32 11.167 59 33.5 81s49.5 33 81.5 33s59.167 -11 81.5 -33s33.5 -49 33.5 -81c0 -31.333 -11.167 -58 -33.5 -80s-49.5 -33 -81.5 -33c-31.333 0 -58.333 11 -81 33s-34 48.667 -34 80z" />
    <glyph glyph-name="quotedbl" unicode="&#x22;" horiz-adv-x="731" 
d="M117 1365h167l-21 -419h-125zM446 1365h167l-21 -419h-125z" />
    <glyph glyph-name="numbersign" unicode="#" horiz-adv-x="1190" 
d="M1148 854h-228l-69 -331h226l-27 -134h-226l-78 -389h-138l79 389h-317l-80 -389h-138l78 389h-214l28 134h216l67 331h-213l26 132h214l76 379h140l-78 -379h318l77 379h137l-77 -379h228zM464 856l-70 -336h321l70 336h-321z" />
    <glyph glyph-name="dollar" unicode="$" horiz-adv-x="1138" 
d="M280 1020c0 -88.667 56 -154.667 168 -198c34 -11.333 53.333 -17.666 58 -18.999v433c-68 -8.66699 -122.667 -31.334 -164 -68.001s-62 -86 -62 -148zM891 373c0 54.667 -16.332 99.833 -48.999 135.5s-90.334 66.167 -173.001 91.5c-7.33301 1.33301 -18.333 4 -33 8
v-467c78 7.33301 140 31 186 71s69 93.667 69 161zM636.001 -129.001l-131.004 -0.00195312v127c-135.333 10 -239.166 50.5 -311.499 121.5s-109.166 156.167 -110.499 255.5h164c4.66699 -62.667 29 -114.5 73 -155.5s106 -66.5 186 -76.5v497l-76 20
c-42 10.667 -80.5 24.834 -115.5 42.501s-67.833 40 -98.5 67s-54.667 60.833 -72 101.5s-26 86.334 -26 137.001c0 109.333 35.833 196 107.5 260s164.834 101.667 279.501 113v132h131v-131c112.667 -10.667 205.834 -48.334 279.501 -113.001
s112.167 -149.334 115.5 -254.001h-162c-2 57.333 -23.833 106.333 -65.5 147s-97.5 65.334 -167.5 74.001v-467l79 -20c112 -29.333 196.5 -72.166 253.5 -128.499s85.5 -134.833 85.5 -235.5c0 -116 -38.5 -206.833 -115.5 -272.5s-177.833 -103.5 -302.5 -113.5v-128z
" />
    <glyph glyph-name="percent" unicode="%" horiz-adv-x="1400" 
d="M1007 346v-40c0 -62 8.83301 -108.833 26.5 -140.5s41.834 -47.5 72.501 -47.5c30 0 53.833 16 71.5 48s26.5 78.667 26.5 140v40c0 61.333 -8.83301 107.833 -26.5 139.5s-41.5 47.5 -71.5 47.5c-30.667 0 -54.834 -15.833 -72.501 -47.5s-26.5 -78.167 -26.5 -139.5z
M845 305v42c0 95.333 23.167 171.833 69.5 229.5s110.5 86.5 192.5 86.5c82.667 0 146.5 -28.5 191.5 -85.5s67.5 -133.833 67.5 -230.5v-42c0 -92.667 -22.833 -168.667 -68.5 -228s-110.167 -89 -193.5 -89c-82 0 -145.667 28.833 -191 86.5s-68 134.5 -68 230.5z
M196 1100v-40c0 -62 8.83301 -108.833 26.5 -140.5s41.834 -47.5 72.501 -47.5c30 0 53.833 16 71.5 48s26.5 78.667 26.5 140v40c0 61.333 -8.83301 107.833 -26.5 139.5s-41.5 47.5 -71.5 47.5c-30.667 0 -54.834 -15.833 -72.501 -47.5s-26.5 -78.167 -26.5 -139.5z
M34 1059v42c0 95.333 23.167 171.833 69.5 229.5s110.5 86.5 192.5 86.5c82.667 0 146.5 -28.5 191.5 -85.5s67.5 -133.833 67.5 -230.5v-42c0 -92.667 -22.833 -168.667 -68.5 -228s-110.167 -89 -193.5 -89c-82 0 -145.667 28.833 -191 86.5s-68 134.5 -68 230.5zM263 0
h-166l525 687l516 678h166l-523 -685z" />
    <glyph glyph-name="ampersand" unicode="&#x26;" horiz-adv-x="1299" 
d="M1095 0l-123.004 133c-63.333 -56 -133 -96.5 -209 -121.5s-150.667 -37.5 -224 -37.5c-84.667 0 -161.334 15 -230.001 45s-123.5 74.667 -164.5 134s-61.5 128 -61.5 206c0 84.667 23.333 157 70 217s112.334 113.333 197.001 160c3.33301 2 8.33301 4.66699 15 8
l18.5 9l16.5 8c-54 57.333 -95.5 109.833 -124.5 157.5s-43.5 99.834 -43.5 156.501c0 84.667 32.333 156.167 97 214.5s147.334 87.5 248.001 87.5c98.667 0 180.834 -28.5 246.501 -85.5s98.5 -130.167 98.5 -219.5c0 -32.667 -5.16699 -63.5 -15.5 -92.5
s-23.666 -54.833 -39.999 -77.5s-37.666 -44.834 -63.999 -66.501s-52.5 -40.667 -78.5 -57s-56.667 -33.833 -92 -52.5l331 -361c42 78.667 63 202.667 63 372v41h160v-42c0 -210 -37 -371.667 -111 -485l236 -251h-216zM448.996 636
c-64 -34.667 -112.665 -72.833 -145.998 -114.5s-50 -91.834 -50 -150.501c0 -55.333 14.667 -102.666 44 -141.999s66.166 -68 110.499 -86s93.166 -27 146.499 -27c56 0 113 10.333 171 31s107 52 147 94l-379 418c-23.333 -12 -38 -19.667 -44 -23zM538.998 822.001
c74.667 38.667 130.167 75.667 166.5 111s54.5 80 54.5 134c0 52.667 -17 95.167 -51 127.5s-77.667 48.5 -131 48.5c-54 0 -97.833 -16.667 -131.5 -50s-50.5 -76 -50.5 -128c0 -36 10.333 -72 31 -108s58 -81 112 -135z" />
    <glyph glyph-name="quotesingle" unicode="'" horiz-adv-x="401" 
d="M117 1365h167l-21 -419h-125z" />
    <glyph glyph-name="parenleft" unicode="(" horiz-adv-x="670" 
d="M487 1437h143c-72.667 -83.333 -133 -205.166 -181 -365.499s-72 -323.5 -72 -489.5c0 -159.333 20.333 -309.833 61 -451.5s103.667 -288.167 189 -439.5h-149c-86 109.333 -152.833 241.166 -200.5 395.499s-71.5 318.833 -71.5 493.5c0 177.333 22.667 335.5 68 474.5
s116.333 266.5 213 382.5z" />
    <glyph glyph-name="parenright" unicode=")" horiz-adv-x="670" 
d="M39 1437h142.999c96.667 -116 167.834 -243.5 213.501 -382.5s68.5 -297.167 68.5 -474.5c0 -174.667 -23.833 -339.167 -71.5 -493.5s-114.5 -286.166 -200.5 -395.499h-150c86 150.667 149.167 297 189.5 439s60.5 292.667 60.5 452c0 166 -24 329.167 -72 489.5
s-108.333 282.166 -181 365.499z" />
    <glyph glyph-name="asterisk" unicode="*" horiz-adv-x="930" 
d="M524 746h-117l12 242l-203 -134l-60 105l213 108l-213 109l60 106l203 -137l-13 245h119l-14 -244l203 136l60 -105l-214 -110l214 -108l-60 -105l-203 134z" />
    <glyph glyph-name="plus" unicode="+" horiz-adv-x="1138" 
d="M639 472v-446h-141v446h-408v142h408v422h141v-422h410v-142h-410z" />
    <glyph glyph-name="comma" unicode="," horiz-adv-x="430" 
d="M153 -227h-125l114 402h184z" />
    <glyph glyph-name="hyphen" unicode="&#x2011;" horiz-adv-x="786" 
d="M708 483h-630v154h630v-154z" />
    <glyph glyph-name="hyphen" unicode="-" horiz-adv-x="786" 
d="M708 483h-630v154h630v-154z" />
    <glyph glyph-name="period" unicode="." horiz-adv-x="482" 
d="M127 96c0 32 11.333 59.333 34 82s49.667 34 81 34c32 0 59.333 -11.333 82 -34s34 -50 34 -82c0 -31.333 -11.333 -58.333 -34 -81s-50 -34 -82 -34c-31.333 0 -58.333 11.333 -81 34s-34 49.667 -34 81z" />
    <glyph glyph-name="slash" unicode="/" horiz-adv-x="670" 
d="M168 -309h-159l492 1746h159z" />
    <glyph glyph-name="zero" unicode="0" horiz-adv-x="1155" 
d="M270 733v-103c0 -160.667 27.333 -285.167 82 -373.5s130 -132.5 226 -132.5s171.167 44.333 225.5 133s81.5 213 81.5 373v103c0 160.667 -27.333 285.5 -82 374.5s-129.667 133.5 -225 133.5c-96 0 -171.333 -44.5 -226 -133.5s-82 -213.833 -82 -374.5zM97 628
v106.001c0 204 42 365 126 483s202.667 177 356 177s271.5 -58.833 354.5 -176.5s124.5 -278.834 124.5 -483.501v-106c0 -203.333 -41.5 -363.666 -124.5 -480.999s-201.5 -176 -355.5 -176c-153.333 0 -271.833 58.667 -355.5 176s-125.5 277.666 -125.5 480.999z" />
    <glyph glyph-name="one" unicode="1" horiz-adv-x="806" 
d="M609 0h-172.998v1180h-3c-34.667 -18 -85.834 -48 -153.501 -90s-123.834 -78.333 -168.501 -109v178c93.333 67.333 205.333 136 336 206h162v-1365z" />
    <glyph glyph-name="two" unicode="2" horiz-adv-x="1107" 
d="M286 988l-169.996 0.000976562v6c0 52.667 9.66699 103 29 151s46.666 90.5 81.999 127.5s80.666 66.5 135.999 88.5s116.666 33 183.999 33c126 0 227.833 -35.167 305.5 -105.5s116.5 -159.833 116.5 -268.5c0 -32 -4.33301 -63.833 -13 -95.5
s-18.167 -58.834 -28.5 -81.501s-28.166 -51.167 -53.499 -85.5s-45.333 -60.5 -60 -78.5l-77 -91l-368 -432v-3h626v-153h-870v110l510 591c24.667 28 44.167 51.167 58.5 69.5s30.166 41.166 47.499 68.499s30.166 55 38.499 83s12.5 56.667 12.5 86
c0 71.333 -23.5 128.333 -70.5 171s-106.833 64 -179.5 64c-78 0 -140.167 -24.167 -186.5 -72.5s-69.5 -107.166 -69.5 -176.499v-6z" />
    <glyph glyph-name="three" unicode="3" horiz-adv-x="1128" 
d="M407 628l0.00195312 152.002h131c77.333 0 140.5 22.167 189.5 66.5s73.167 101.166 72.5 170.499c-0.666992 67.333 -24 122 -70 164s-107 63 -183 63c-78.667 0 -138.834 -21.833 -180.501 -65.5s-65.167 -95.167 -70.5 -154.5h-167c1.33301 46 11 90.5 29 133.5
s43.667 82.333 77 118s77.166 64.334 131.499 86.001s114.5 32.5 180.5 32.5c126 0 228.333 -33 307 -99s119.667 -149 123 -249c2 -89.333 -23.667 -164.666 -77 -225.999s-110.333 -97 -171 -107v-3c31.333 -2.66699 63.166 -11.167 95.499 -25.5s63.833 -34.333 94.5 -60
s56 -59.834 76 -102.501s30.667 -90.334 32 -143.001c1.33301 -76.667 -18.667 -146.334 -60 -209.001s-99.333 -111.667 -174 -147s-158.667 -53 -252 -53c-140 0 -248.333 36.167 -325 108.5s-117 163.833 -121 274.5h164c10 -68.667 38.833 -124.5 86.5 -167.5
s114.834 -64.5 201.501 -64.5c95.333 0 170 24 224 72s80.333 110.333 79 187c-1.33301 75.333 -28.833 135.5 -82.5 180.5s-127.5 67.5 -221.5 67.5h-139z" />
    <glyph glyph-name="four" unicode="4" horiz-adv-x="1164" 
d="M670 1365h252v-928h178v-154h-178v-283h-167v283h-663v150c156 281.333 348.667 592 578 932zM267 437h488v776h-3c-172 -251.333 -333.667 -509.333 -485 -774v-2z" />
    <glyph glyph-name="five" unicode="5" horiz-adv-x="1187" 
d="M137 343l167.998 -0.000976562c10.667 -70.667 42.167 -125.167 94.5 -163.5s118.5 -57.5 198.5 -57.5c48.667 0 95.667 11.667 141 35s83.833 59.833 115.5 109.5s47.5 107.5 47.5 173.5c0 94.667 -28.833 170.834 -86.5 228.501s-129.167 86.5 -214.5 86.5
c-77.333 0 -140.833 -17.5 -190.5 -52.5s-86.167 -78.167 -109.5 -129.5h-148l75 794h748v-153h-601l-45 -428h3c20 28 57.333 54.5 112 79.5s115.334 37.5 182.001 37.5c125.333 0 231.833 -42.833 319.5 -128.5s131.5 -195.5 131.5 -329.5
c0 -92 -21.5 -174.167 -64.5 -246.5s-101.833 -128.333 -176.5 -168s-158 -59.5 -250 -59.5c-68.667 0 -131 10 -187 30s-102.333 47.333 -139 82s-65.667 74.167 -87 118.5s-33.666 91.5 -36.999 141.5z" />
    <glyph glyph-name="six" unicode="6" horiz-adv-x="1134" 
d="M1016 1048h-175.002c-4 46 -27.667 89.667 -71 131s-101.333 62 -174 62c-94 0 -172 -46 -234 -138s-95.667 -231 -101 -417h1h2c22 54.667 63.833 102 125.5 142s133.834 60 216.501 60c56.667 0 111.334 -10 164.001 -30s100.167 -48.333 142.5 -85
s76.333 -83.834 102 -141.501s38.5 -121.5 38.5 -191.5c0 -143.333 -44.667 -257.166 -134 -341.499s-201.333 -126.5 -336 -126.5c-150.667 0 -269.334 53.667 -356.001 161c-90.667 114 -136 279.667 -136 497c0 248 46.833 436.833 140.5 566.5s217.5 194.5 371.5 194.5
c60.667 0 116.834 -10 168.501 -30s94.334 -46.5 128.001 -79.5s60.667 -69.667 81 -110s32.166 -81.5 35.499 -123.5zM285.998 429c0 -96 29.1699 -171.002 87.5029 -225.002s129.166 -81 212.499 -81c38.667 0 75.167 6.33301 109.5 19s65.666 31 93.999 55
s50.666 56.167 66.999 96.5s24.5 85.833 24.5 136.5c0 66.667 -14.667 123.834 -44 171.501s-66 82.334 -110 104.001s-91.667 32.5 -143 32.5c-83.333 0 -153.833 -27.5 -211.5 -82.5s-86.5 -130.5 -86.5 -226.5z" />
    <glyph glyph-name="seven" unicode="7" horiz-adv-x="1078" 
d="M96 1365h866v-160l-559 -1205h-183l575 1209v3h-699v153z" />
    <glyph glyph-name="eight" unicode="8" horiz-adv-x="1175" 
d="M588 117c89.333 0 163.5 24.333 222.5 73s88.5 111.334 88.5 188.001c0 77.333 -29.333 140.5 -88 189.5s-133 73.5 -223 73.5c-89.333 0 -163.5 -24.5 -222.5 -73.5s-88.5 -112.167 -88.5 -189.5c0 -76.667 29.5 -139.334 88.5 -188.001s133.167 -73 222.5 -73zM588 784
c75.333 0 137.333 21.667 186 65s73 99.333 73 168c0 68 -24.167 123.167 -72.5 165.5s-110.5 63.5 -186.5 63.5c-75.333 0 -137.333 -21.167 -186 -63.5s-73 -97.5 -73 -165.5s24.5 -123.833 73.5 -167.5s110.833 -65.5 185.5 -65.5zM584 -29
c-140.667 0 -255.5 37.165 -344.5 111.498s-133.5 170.833 -133.5 289.5c0 50.667 8.83301 97.334 26.5 140.001s40.834 77.5 69.501 104.5s58 49 88 66s60.667 29.167 92 36.5v2c-25.333 8.66699 -50.333 21 -75 37s-48.334 36.333 -71.001 61s-41 55.167 -55 91.5
s-21 75.833 -21 118.5c0 106 40.333 193.333 121 262s183 103 307 103s226.5 -34.333 307.5 -103s121.5 -156 121.5 -262c0 -43.333 -7.33301 -83.5 -22 -120.5s-33.667 -67.667 -57 -92s-47 -44.333 -71 -60s-48.333 -27.5 -73 -35.5v-2c31.333 -7.33301 62 -19.5 92 -36.5
s59.333 -39.167 88 -66.5s51.667 -62.166 69 -104.499s26 -88.5 26 -138.5c0 -118 -45.667 -214.5 -137 -289.5s-207.333 -112.5 -348 -112.5z" />
    <glyph glyph-name="nine" unicode="9" horiz-adv-x="1134" 
d="M107 334h174.999c6 -54 32.667 -102.5 80 -145.5s110.333 -64.5 189 -64.5c106.667 0 188.834 49.5 246.501 148.5s86.834 234.167 87.501 405.5h-7c-20.667 -57.333 -62.167 -105.333 -124.5 -144s-138.833 -58 -229.5 -58c-55.333 0 -108.333 9.83301 -159 29.5
s-96.334 48 -137.001 85s-73 84.667 -97 143s-36 123.5 -36 195.5c0 93.333 22 175.833 66 247.5s100.5 125.5 169.5 161.5s143.833 54 224.5 54c333.333 0 500 -227.667 500 -683c0 -231.333 -45.167 -411.666 -135.5 -540.999s-215.833 -194 -376.5 -194
c-68 0 -129.833 11 -185.5 33s-100.834 50.667 -135.501 86s-61.667 73.666 -81 114.999s-30.666 83.333 -33.999 126zM862.999 927c0 102 -28 180.003 -84 234.003s-127 81 -213 81c-38.667 0 -75.5 -6.33301 -110.5 -19s-66.667 -31.334 -95 -56.001
s-51 -57.334 -68 -98.001s-25.5 -86.334 -25.5 -137.001c0 -99.333 28.167 -175.333 84.5 -228s125.833 -79 208.5 -79c82 0 153 28.667 213 86s90 129.333 90 216z" />
    <glyph glyph-name="colon" unicode=":" horiz-adv-x="526" 
d="M144 96c0 32 11.333 59.333 34 82s50 34 82 34c31.333 0 58.333 -11.333 81 -34s34 -50 34 -82c0 -31.333 -11.333 -58.333 -34 -81s-49.667 -34 -81 -34c-32 0 -59.333 11.333 -82 34s-34 49.667 -34 81zM144 808c0 31.333 11.333 58.333 34 81s50 34 82 34
c31.333 0 58.333 -11.333 81 -34s34 -49.667 34 -81c0 -32 -11.333 -59.333 -34 -82s-49.667 -34 -81 -34c-32 0 -59.333 11.333 -82 34s-34 50 -34 82z" />
    <glyph glyph-name="semicolon" unicode=";" horiz-adv-x="527" 
d="M178 -232h-124l113 408h184zM145 808c0 31.333 11.333 58.333 34 81s49.667 34 81 34c32 0 59.333 -11.333 82 -34s34 -49.667 34 -81c0 -32 -11.333 -59.333 -34 -82s-50 -34 -82 -34c-31.333 0 -58.333 11.333 -81 34s-34 50 -34 82z" />
    <glyph glyph-name="less" unicode="&#x3c;" horiz-adv-x="1138" 
d="M141 440v141l855 515v-183l-674 -391v-10l674 -369v-182z" />
    <glyph glyph-name="equal" unicode="=" horiz-adv-x="1138" 
d="M987 293h-836v138h836v-138zM987 659h-836v140h836v-140z" />
    <glyph glyph-name="greater" unicode="&#x3e;" horiz-adv-x="1138" 
d="M997 581v-141l-856 -479v182l676 369v10l-676 391v183z" />
    <glyph glyph-name="question" unicode="?" horiz-adv-x="947" 
d="M66 1007c0 57.333 8.33301 108.831 25 154.498s38.5 83 65.5 112s58.833 53 95.5 72s73.667 32.333 111 40s76 11.5 116 11.5c52.667 0 102.5 -7 149.5 -21s89.5 -34.667 127.5 -62s68.167 -63.166 90.5 -107.499s33.5 -94.5 33.5 -150.5c0 -32 -4 -62.333 -12 -91
s-17.333 -52.834 -28 -72.501s-25.834 -40.5 -45.501 -62.5s-36.5 -39.167 -50.5 -51.5s-33 -28.166 -57 -47.499c-64.667 -51.333 -107 -91 -127 -119s-30 -69 -30 -123v-61h-168l-1 87c0 34 4.83301 65.667 14.5 95s24.834 56.833 45.501 82.5s40.167 47 58.5 64
s42.5 37.5 72.5 61.5l64.5 54c13.667 12 28.667 27.667 45 47s27.5 39 33.5 59s9 42.667 9 68c0 68.667 -22.167 119.834 -66.5 153.501s-99.5 50.5 -165.5 50.5c-78 0 -137.667 -22.5 -179 -67.5s-62 -103.5 -62 -175.5h-165zM335 93.998c0 32 11.167 59 33.5 81
s49.5 33 81.5 33s59.167 -11 81.5 -33s33.5 -49 33.5 -81c0 -31.333 -11.167 -58 -33.5 -80s-49.5 -33 -81.5 -33c-31.333 0 -58.333 11 -81 33s-34 48.667 -34 80z" />
    <glyph glyph-name="at" unicode="@" horiz-adv-x="1669" 
d="M1245 133c-66.667 0 -119.833 13.8359 -159.5 41.5029s-63.167 59.834 -70.5 96.501h-10c-9.33301 -34.667 -34.333 -66.334 -75 -95.001s-88.667 -43 -144 -43c-82 0 -146 29.833 -192 89.5s-69 139.167 -69 238.5v90c0 97.333 23.667 175.666 71 234.999
s113.666 89 198.999 89c52 0 95.167 -13 129.5 -39s56.833 -55.333 67.5 -88h8v113h141v-488c0 -38.667 11.333 -68.334 34 -89.001s52.334 -31 89.001 -31c54 0 99 29 135 87s54 143 54 255v36c0 73.333 -13.167 143 -39.5 209s-63.833 124.667 -112.5 176
s-110.834 92 -186.501 122s-159.5 45 -251.5 45h-8c-87.333 0 -169 -15.167 -245 -45.5s-141.833 -73 -197.5 -128s-99.5 -123.333 -131.5 -205s-48 -171.834 -48 -270.501v-47c0 -103.333 16.333 -195.833 49 -277.5s77.5 -148 134.5 -199s122.167 -89.667 195.5 -116
s152.666 -39.5 237.999 -39.5h8c138.667 0 247.334 17 326.001 51v-127c-68.667 -32 -177.667 -48 -327 -48h-8c-105.333 0 -203.333 15.833 -294 47.5s-170.5 78 -239.5 139s-123.333 139.833 -163 236.5s-59.5 205.667 -59.5 327v59c0 153.333 33.333 288.5 100 405.5
s157.5 206.5 272.5 268.5s244.833 93 389.5 93h8c114 0 217.833 -18.667 311.5 -56s170.334 -87.5 230.001 -150.5s105.5 -134.5 137.5 -214.5s48 -163.667 48 -251v-51c0 -135.333 -32.5 -244.333 -97.5 -327s-147.5 -124 -247.5 -124zM672.001 480.003
c0 -74.667 14.5 -129.834 43.5 -165.501s68.833 -53.5 119.5 -53.5c50 0 89.5 17.167 118.5 51.5s43.5 87.5 43.5 159.5v80c0 64.667 -15.333 114.834 -46 150.501s-70 53.5 -118 53.5c-47.333 0 -86 -18 -116 -54s-45 -89 -45 -159v-63z" />
    <glyph glyph-name="A" unicode="A" horiz-adv-x="1200" 
d="M207 0h-182l486 1365h178l486 -1365h-184l-138 410h-508zM602 1159h-5l-205 -608h414z" />
    <glyph glyph-name="B" unicode="B" horiz-adv-x="1222" 
d="M164 0l-0.000976562 1365h512c116 0 208.167 -30.333 276.5 -91s102.5 -142.334 102.5 -245.001c0 -76.667 -18.833 -140.667 -56.5 -192s-91.5 -88 -161.5 -110v-7c92.667 -12.667 165.167 -48.5 217.5 -107.5s78.5 -135.833 78.5 -230.5
c0 -118.667 -42.667 -212 -128 -280s-201.666 -102 -348.999 -102h-492zM337.999 1212l-0.000976562 -434.999h209c114 0 197.833 18 251.5 54s80.5 92 80.5 168c0 67.333 -20.167 119.666 -60.5 156.999s-97.166 56 -170.499 56h-310zM337.998 627.002v-474.001h237
c134.667 0 231.5 17.833 290.5 53.5s88.5 93.834 88.5 174.501c0 78 -25 138.5 -75 181.5s-120.667 64.5 -212 64.5h-329z" />
    <glyph glyph-name="C" unicode="C" horiz-adv-x="1248" 
d="M284 768v-179c0 -147.333 31.333 -261 94 -341s152.334 -120 269.001 -120c96 0 174.167 26.167 234.5 78.5s91.833 120.833 94.5 205.5h172v-4c0 -126 -47.5 -230.333 -142.5 -313s-214.833 -124 -359.5 -124c-168.667 0 -300.167 54.5 -394.5 163.5
s-141.5 260.5 -141.5 454.5v179c0 196.667 47.167 350.167 141.5 460.5s225.833 165.5 394.5 165.5c145.333 0 265.333 -43.333 360 -130s142 -197 142 -331v-3h-172c-2.66699 91.333 -34.167 165.333 -94.5 222s-138.5 85 -234.5 85
c-116.667 0 -206.334 -40.667 -269.001 -122s-94 -197 -94 -347z" />
    <glyph glyph-name="D" unicode="D" horiz-adv-x="1291" 
d="M164 1365h437.999c198 0 347.5 -57.5 448.5 -172.5s151.5 -284.833 151.5 -509.5c0 -224 -50.667 -393.833 -152 -509.5s-250.666 -173.5 -447.999 -173.5h-438v1365zM338.999 1209v-1053h253c286 0 429 175.667 429 527c0 350.667 -143 526 -429 526h-253z" />
    <glyph glyph-name="E" unicode="E" horiz-adv-x="1098" 
d="M983 156v-156h-819v1365h819v-156h-645v-436h609v-152h-609v-465h645z" />
    <glyph glyph-name="F" unicode="F" horiz-adv-x="1029" 
d="M339 0h-175v1365h806v-156h-631v-464h579v-156h-579v-589z" />
    <glyph glyph-name="G" unicode="G" horiz-adv-x="1273" 
d="M1160 949l-172.999 -0.00292969c-11.333 90 -46.5 160.5 -105.5 211.5s-135.5 76.5 -229.5 76.5c-116 0 -206.333 -39 -271 -117s-97 -186.667 -97 -326v-202c0 -148.667 32 -263.167 96 -343.5s156.333 -120.5 277 -120.5c100 0 181 27.667 243 83s93 127.333 93 216
v132h-352v152h522v-281c0 -131.333 -47.667 -240.666 -143 -327.999s-216.666 -131 -363.999 -131c-176.667 0 -311.834 53.833 -405.501 161.5s-140.5 260.834 -140.5 459.501v202c0 186.667 48 333.334 144 440.001s228.667 160 398 160
c144.667 0 263.167 -40.833 355.5 -122.5s143.166 -189.167 152.499 -322.5z" />
    <glyph glyph-name="H" unicode="H" horiz-adv-x="1364" 
d="M1201 0h-175v629h-687v-629h-175v1365h175v-581h687v581h175v-1365z" />
    <glyph glyph-name="I" unicode="I" horiz-adv-x="502" 
d="M339 0h-175v1365h175v-1365z" />
    <glyph glyph-name="J" unicode="J" horiz-adv-x="965" 
d="M24 313l171 -0.00292969c2.66699 -55.333 22.167 -99.666 58.5 -132.999s87.5 -50 153.5 -50c76 0 132.333 22.833 169 68.5s55 114.834 55 207.501v959h175v-959c0 -140 -34.5 -247.5 -103.5 -322.5s-167.5 -112.5 -295.5 -112.5
c-114.667 0 -207.167 31.833 -277.5 95.5s-105.5 145.834 -105.5 246.501z" />
    <glyph glyph-name="K" unicode="K" horiz-adv-x="1185" 
d="M1146 1365l-509 -581l536 -784h-222l-444 663l-168 -183v-480h-175v1365h175v-660h7l594 660h206z" />
    <glyph glyph-name="L" unicode="L" horiz-adv-x="989" 
d="M967 157v-157h-803v1365h175v-1208h628z" />
    <glyph glyph-name="M" unicode="M" horiz-adv-x="1585" 
d="M327 0h-158v1365h170l452 -1055h4l451 1055h170v-1365h-158v992h-6l-386 -878h-148l-386 878h-5v-992z" />
    <glyph glyph-name="N" unicode="N" horiz-adv-x="1361" 
d="M331 0h-167v1365h168l694 -1066h4v1066h167v-1365h-168l-694 1067h-4v-1067z" />
    <glyph glyph-name="O" unicode="O" horiz-adv-x="1314" 
d="M285 777l-0.000976562 -202c0 -146.667 34.333 -257.834 103 -333.501s158.334 -113.5 269.001 -113.5c111.333 0 201.166 37.833 269.499 113.5s102.5 186.834 102.5 333.501v202c0 147.333 -34.5 260.833 -103.5 340.5s-158.5 119.5 -268.5 119.5
c-109.333 0 -198.666 -39.833 -267.999 -119.5s-104 -193.167 -104 -340.5zM109.999 575l0.000976562 201.001c0 192 49.667 343 149 453s232.666 165 399.999 165c166.667 0 299.167 -54.833 397.5 -164.5s147.5 -260.834 147.5 -453.501v-201
c0 -190.667 -49.5 -339 -148.5 -445s-232.5 -159 -400.5 -159c-167.333 0 -300 53 -398 159s-147 254.333 -147 445z" />
    <glyph glyph-name="P" unicode="P" horiz-adv-x="1149" 
d="M164 1365h497c130 0 234.833 -39 314.5 -117s119.5 -180.667 119.5 -308c0 -128 -39.833 -230.667 -119.5 -308s-184.5 -116 -314.5 -116h-323v-516h-174v1365zM338 1210v-539.999h207c50 0 93 2.16699 129 6.5s70 12.333 102 24s57.833 27.5 77.5 47.5s35 46 46 78
s16.5 70 16.5 114c0 85.333 -23.5 151.666 -70.5 198.999s-112.833 71 -197.5 71h-310z" />
    <glyph glyph-name="Q" unicode="Q" horiz-adv-x="1314" 
d="M110 582l-0.000976562 200c0 191.333 49.167 341.166 147.5 449.499s230.833 162.5 397.5 162.5c167.333 0 300.5 -54.167 399.5 -162.5s148.5 -258.166 148.5 -449.499v-200c0 -208 -58.667 -366.333 -176 -475l188 -261h-196l-126 173
c-73.333 -32 -152.666 -48 -237.999 -48c-166.667 0 -299.167 54 -397.5 162s-147.5 257.667 -147.5 449zM282.999 781v-198c0 -148 34.5 -261.167 103.5 -339.5s158.5 -117.833 268.5 -118.5c49.333 0 96.333 9.33301 141 28l-185 253h196l119 -159
c68.667 80.667 103 192.667 103 336v198c0 147.333 -34.667 260.166 -104 338.499s-159.333 117.5 -270 117.5c-110 0 -199.5 -39.167 -268.5 -117.5s-103.5 -191.166 -103.5 -338.499z" />
    <glyph glyph-name="R" unicode="R" horiz-adv-x="1213" 
d="M657 1365c73.333 0 138.667 -11 196 -33s103.333 -52.167 138 -90.5s60.834 -81.5 78.501 -129.5s26.5 -99.333 26.5 -154c0 -53.333 -7.33301 -102.333 -22 -147s-34.834 -82 -60.501 -112s-52.667 -54.833 -81 -74.5s-58.5 -35.167 -90.5 -46.5l278 -578h-199l-252 543
h-331v-543h-174v1365h493zM338.001 696l289 0.000976562c94.667 0 166.5 21.667 215.5 65s73.5 105.666 73.5 186.999c0 85.333 -25.167 150.5 -75.5 195.5s-118.833 67.5 -205.5 67.5h-297v-515z" />
    <glyph glyph-name="S" unicode="S" horiz-adv-x="1155" 
d="M61 368l175.004 -0.000976562c6.66699 -70 39.167 -127.833 97.5 -173.5s137.833 -68.5 238.5 -68.5c95.333 0 171.166 21.667 227.499 65s84.5 102 84.5 176c0 56 -18 101 -54 135s-92.333 61 -169 81l-240 63c-43.333 11.333 -83 26.166 -119 44.499
s-69.5 41.5 -100.5 69.5s-55.333 62.833 -73 104.5s-26.5 88.167 -26.5 139.5c0 62 13.167 118.333 39.5 169s61.5 92 105.5 124s94.167 56.667 150.5 74s115.5 26 177.5 26c47.333 0 93.166 -4.83301 137.499 -14.5s86.666 -25 126.999 -46s75.5 -46.333 105.5 -76
s54.167 -66.167 72.5 -109.5s28.166 -90.666 29.499 -141.999h-173c-6 68.667 -35.167 124.834 -87.5 168.501s-124.166 65.5 -215.499 65.5c-86.667 0 -157 -20 -211 -60s-81 -95.667 -81 -167c0 -102.667 64 -170 192 -202l236 -63
c55.333 -14.667 103.5 -31.667 144.5 -51s78 -43.5 111 -72.5s57.833 -64.167 74.5 -105.5s25 -88.666 25 -141.999c0 -65.333 -13.167 -124.333 -39.5 -177s-62.5 -95.667 -108.5 -129s-99.833 -58.833 -161.5 -76.5s-128.167 -26.5 -199.5 -26.5
c-86 0 -161.833 12.167 -227.5 36.5s-116.834 56.5 -153.501 96.5s-64 82.167 -82 126.5s-27.667 90.166 -29 137.499z" />
    <glyph glyph-name="T" unicode="T" horiz-adv-x="1043" 
d="M608 0h-173v1209h-415v156h1003v-156h-415v-1209z" />
    <glyph glyph-name="U" unicode="U" horiz-adv-x="1331" 
d="M321 1365l-0.000976562 -888c0 -106.667 31.167 -191.5 93.5 -254.5s145.833 -94.5 250.5 -94.5s188.334 31.667 251.001 95s94 148 94 254v888h173v-911c0 -143.333 -46.333 -259.666 -139 -348.999s-219 -134 -379 -134c-159.333 0 -285.333 44.667 -378 134
s-139 205.666 -139 348.999v911h173z" />
    <glyph glyph-name="V" unicode="V" horiz-adv-x="1197" 
d="M688 0h-180l-491 1365h199l381 -1140h6l379 1140h198z" />
    <glyph glyph-name="W" unicode="W" horiz-adv-x="1671" 
d="M546 0h-157l-375 1365h193l264 -1068h5l271 1068h178l269 -1068h6l264 1068h194l-377 -1365h-155l-287 1071h-6z" />
    <glyph glyph-name="X" unicode="X" horiz-adv-x="1124" 
d="M1118 1365l-453 -689l443 -676h-210l-341 540h-9l-344 -540h-198l447 688l-440 677h210l344 -541h9l341 541h201z" />
    <glyph glyph-name="Y" unicode="Y" horiz-adv-x="1088" 
d="M630 0h-173v588l-457 777h200l341 -606h6l342 606h198l-457 -776v-589z" />
    <glyph glyph-name="Z" unicode="Z" horiz-adv-x="1146" 
d="M83 0v123l731 1082v5h-705v155h921v-121l-726 -1084v-5h743v-155h-964z" />
    <glyph glyph-name="bracketleft" unicode="[" horiz-adv-x="670" 
d="M185 1437h445v-136h-281v-1474h281v-136h-445v1746z" />
    <glyph glyph-name="backslash" unicode="\" horiz-adv-x="670" 
d="M501 -309l-492 1746h159l492 -1746h-159z" />
    <glyph glyph-name="bracketright" unicode="]" horiz-adv-x="670" 
d="M39 1437h446v-1746h-446v136h283v1474h-283v136z" />
    <glyph glyph-name="asciicircum" unicode="^" horiz-adv-x="757" 
d="M710 795h-147l-182 430h-5l-183 -430h-146l250 570h165z" />
    <glyph glyph-name="underscore" unicode="_" horiz-adv-x="842" 
d="M870 -239h-898v136h898v-136z" />
    <glyph glyph-name="grave" unicode="`" horiz-adv-x="945" 
d="M633 1187h-132l-227 273h175z" />
    <glyph glyph-name="a" unicode="a" horiz-adv-x="1054" 
d="M740 131c-61.333 -98.667 -162.67 -148 -304.003 -148c-102 0 -184.667 29.167 -248 87.5s-95 135.5 -95 231.5c0 93.333 31.833 166.666 95.5 219.999s154.834 80.333 273.501 81h277v107c0 68.667 -19.167 121.5 -57.5 158.5s-93.166 55.5 -164.499 55.5
c-66 0 -118.167 -15.667 -156.5 -47s-60.166 -73.666 -65.499 -126.999h-162c6 96 41.833 173 107.5 231s159.834 87 282.501 87c115.333 0 208.666 -30.167 279.999 -90.5s107 -144.5 107 -252.5v-725h-165v131h-5zM481.996 126c74 0 135.334 20.833 184.001 62.5
s73 95.167 73 160.5v122h-264c-69.333 0 -121 -14.667 -155 -44s-51 -69 -51 -119c0 -58.667 20.667 -103.667 62 -135s91.666 -47 150.999 -47z" />
    <glyph glyph-name="b" unicode="b" horiz-adv-x="1170" 
d="M640 -17c-142.667 0 -247.332 58.332 -313.999 174.999h-5v-158h-165v1437h172v-530h5c27.333 46.667 69.333 85 126 115s117.667 45 183 45c125.333 0 226.166 -43 302.499 -129s114.5 -206.333 114.5 -361v-102c0 -151.333 -38 -271.166 -114 -359.499
s-177.667 -132.5 -305 -132.5zM619.002 132.999c80.667 0 145.334 30.832 194.001 92.499s73 147.834 73 258.501v83c0 110.667 -24.333 196.667 -73 258s-113.334 92 -194.001 92c-92.667 0 -164.667 -30.167 -216 -90.5s-77 -146.833 -77 -259.5v-81
c0 -113.333 25.667 -200.5 77 -261.5s123.333 -91.5 216 -91.5z" />
    <glyph glyph-name="c" unicode="c" horiz-adv-x="1042" 
d="M111 478l0.00195312 103.999c0 144 39 261 117 351s184.333 135 319 135c77.333 0 146.666 -15.833 207.999 -47.5s107.833 -71.667 139.5 -120s49.167 -99.833 52.5 -154.5h-169c-12 47.333 -38 87.5 -78 120.5s-87.333 49.5 -142 49.5
c-86.667 0 -154.167 -30.167 -202.5 -90.5s-72.5 -143.833 -72.5 -250.5v-98c0 -103.333 25 -186.166 75 -248.499s117 -93.5 201 -93.5c62.667 0 113.667 14.5 153 43.5s64 65.833 74 110.5h169c-18 -94 -61.5 -168.5 -130.5 -223.5s-161.5 -82.5 -277.5 -82.5
c-90.667 0 -169.334 22 -236.001 66s-116.667 103 -150 177s-50 158 -50 252z" />
    <glyph glyph-name="d" unicode="d" horiz-adv-x="1166" 
d="M531 1067c67.333 0 127.668 -14.999 181.001 -44.999s93.666 -69 120.999 -117h5v532h172v-1437h-165v158h-4c-30 -54.667 -71.833 -97.334 -125.5 -128.001s-115.167 -46 -184.5 -46c-134 0 -237.5 44.833 -310.5 134.5s-109.5 209.5 -109.5 359.5v95
c0 146 37.5 264.833 112.5 356.5s177.5 137.5 307.5 137.5zM555.002 917.001c-81.333 0 -146.833 -30 -196.5 -90s-74.5 -146.667 -74.5 -260v-83c0 -113.333 25 -200 75 -260s116.333 -90 199 -90c88.667 0 158 30.5 208 91.5s75 146.833 75 257.5v84
c0 106.667 -25.667 191.667 -77 255s-121 95 -209 95z" />
    <glyph glyph-name="e" unicode="e" horiz-adv-x="1084" 
d="M552 -17c-136 0 -243.5 44.499 -322.5 133.499s-118.5 208.5 -118.5 358.5v118c0 141.333 38.333 255.833 115 343.5s182.667 131.5 318 131.5s241.333 -44.5 318 -133.5s115 -206.833 115 -353.5v-98h-694v-19c0 -101.333 24.333 -182.833 73 -244.5
s115.334 -92.5 200.001 -92.5c60 0 110 14 150 42s68.667 67 86 117h171c-20.667 -91.333 -66.334 -164.666 -137.001 -219.999s-162 -83 -274 -83zM283 621.999h522v3c0 85.333 -24 156.5 -72 213.5s-110.667 85.5 -188 85.5c-78 0 -141.167 -28.667 -189.5 -86
s-72.5 -128.333 -72.5 -213v-3z" />
    <glyph glyph-name="f" unicode="f" horiz-adv-x="678" 
d="M219 0v906.999h-142v144h142v105c0 100.667 25.833 174.834 77.5 222.501s131.5 71.5 239.5 71.5c27.333 0 53 -2 77 -6v-141c-20 2.66699 -38 4 -54 4c-59.333 0 -102.333 -12 -129 -36s-40 -67 -40 -129v-91h207v-144h-206v-907h-172z" />
    <glyph glyph-name="g" unicode="g" horiz-adv-x="1165" 
d="M563 -241c84 0 150.664 23.168 199.997 69.501s74 110.5 74 192.5v155h-5c-22 -47.333 -60.167 -86.833 -114.5 -118.5s-116.166 -47.5 -185.499 -47.5c-126 0 -227.5 42.667 -304.5 128s-115.5 205 -115.5 359v87c0 151.333 38.5 269.666 115.5 354.999
s178.5 128 304.5 128c68.667 0 130.334 -15.667 185.001 -47s95 -70.333 121 -117h5v148h166v-1032c0 -65.333 -12 -124 -36 -176s-56.833 -94.333 -98.5 -127s-89 -57.667 -142 -75s-109.833 -26 -170.5 -26c-128 0 -228 28 -300 84s-114.333 130.333 -127 223h176
c10 -45.333 37.333 -83.833 82 -115.5s101.334 -47.5 170.001 -47.5zM564.997 919.001c-88.667 0 -157.667 -30.333 -207 -91s-74 -146.334 -74 -257.001v-65c0 -109.333 24.833 -194.833 74.5 -256.5s118.5 -92.5 206.5 -92.5c85.333 0 152 31 200 93s72 147.333 72 256v65
c0 106.667 -24.5 191.334 -73.5 254.001s-115.167 94 -198.5 94z" />
    <glyph glyph-name="h" unicode="h" horiz-adv-x="1153" 
d="M156 0l-0.000976562 1437h172v-525h5c24 41.333 61.833 77.666 113.5 108.999s115.834 47 192.501 47c112 0 202.833 -34.5 272.5 -103.5s104.5 -165.833 104.5 -290.5v-674h-172v645c0 86.667 -23 152.834 -69 198.501s-108.667 68.5 -188 68.5
c-85.333 0 -149.833 -25.833 -193.5 -77.5s-65.5 -116.5 -65.5 -194.5v-640h-172z" />
    <glyph glyph-name="i" unicode="i" horiz-adv-x="499" 
d="M163 0v1051h172v-1051h-172zM139 1304c0 30.667 10.667 56.667 32 78s47.333 32 78 32s56.834 -10.667 78.501 -32s32.5 -47.333 32.5 -78s-10.833 -56.5 -32.5 -77.5s-47.834 -31.5 -78.501 -31.5s-56.667 10.5 -78 31.5s-32 46.833 -32 77.5z" />
    <glyph glyph-name="j" unicode="j" horiz-adv-x="499" 
d="M139 1304c0 30.667 10.667 56.667 32 78s47.333 32 78 32s56.834 -10.667 78.501 -32s32.5 -47.333 32.5 -78s-10.833 -56.5 -32.5 -77.5s-47.834 -31.5 -78.501 -31.5s-56.667 10.5 -78 31.5s-32 46.833 -32 77.5zM335 1051v-1076c0 -229.333 -94.667 -344 -284 -344
c-44 0 -77.333 3 -100 9v137c18 -3.33301 40 -5 66 -5c53.333 0 91 16.167 113 48.5s33 84.5 33 156.5v1074h172z" />
    <glyph glyph-name="k" unicode="k" horiz-adv-x="972" 
d="M328 379v-379h-172v1437h172v-851h7l419 465h213l-415 -457l441 -594h-211l-357 485z" />
    <glyph glyph-name="l" unicode="l" horiz-adv-x="491" 
d="M160 0v1437h171v-1437h-171z" />
    <glyph glyph-name="m" unicode="m" horiz-adv-x="1734" 
d="M153 0v1051h171v-129h9c18.667 40 51.5 74.333 98.5 103s102.833 43 167.5 43c157.333 0 258.333 -56.333 303 -169h8c21.333 48.667 60 89 116 121s124.667 48 206 48c110 0 196.333 -31.667 259 -95s94 -149.333 94 -258v-715h-171v680
c0 69.333 -19.667 125.5 -59 168.5s-95.333 64.5 -168 64.5s-129.5 -22.833 -170.5 -68.5s-61.5 -105.834 -61.5 -180.501v-664h-171v664c0 80 -20.167 141.5 -60.5 184.5s-96.5 64.5 -168.5 64.5c-66.667 0 -121.667 -21.833 -165 -65.5s-65 -104.167 -65 -181.5v-666h-172
z" />
    <glyph glyph-name="n" unicode="n" horiz-adv-x="1150" 
d="M153 0v1051h171v-139h5c24 41.333 61.833 77.666 113.5 108.999s116.167 47 193.5 47c111.333 0 202 -34.5 272 -103.5s105 -165.833 105 -290.5v-674h-172v645c0 86.667 -23.167 152.834 -69.5 198.501s-108.833 68.5 -187.5 68.5
c-85.333 0 -149.833 -25.833 -193.5 -77.5s-65.5 -116.5 -65.5 -194.5v-640h-172z" />
    <glyph glyph-name="o" unicode="o" horiz-adv-x="1125" 
d="M563 1068c142.667 0 253.332 -46 331.999 -138s118 -210.667 118 -356v-94c0 -147.333 -39.167 -267 -117.5 -359s-189.166 -138 -332.499 -138s-254.5 46 -333.5 138s-118.5 211.667 -118.5 359v94c0 145.333 39.667 264 119 356s190.333 138 333 138zM562.998 921
c-89.333 0 -158.333 -31.498 -207 -94.498s-73 -149.167 -73 -258.5v-82c0 -108.667 24.333 -194.834 73 -258.501s117.667 -95.5 207 -95.5c88.667 0 157.167 31.667 205.5 95s72.5 149.666 72.5 258.999v82c0 109.333 -24.167 195.5 -72.5 258.5
s-116.833 94.5 -205.5 94.5z" />
    <glyph glyph-name="p" unicode="p" horiz-adv-x="1159" 
d="M629 -17c-64.667 0 -122.499 14.167 -173.499 42.5s-91.833 66.5 -122.5 114.5h-5v-489h-172v1400h165v-151h5c31.333 51.333 73.666 92 126.999 122s114.333 45 183 45c121.333 0 220.333 -44.167 297 -132.5s115 -208.5 115 -360.5v-97
c0 -151.333 -38.5 -271.5 -115.5 -360.5s-178.167 -133.5 -303.5 -133.5zM612.001 133c80 0 143.834 31.168 191.501 93.501s71.5 150.166 71.5 263.499v78c0 110.667 -23.5 196.834 -70.5 258.501s-112.833 92.5 -197.5 92.5c-86.667 0 -155.334 -32 -206.001 -96
s-76 -148.667 -76 -254v-79c0 -108.667 25.667 -195.334 77 -260.001s121.333 -97 210 -97z" />
    <glyph glyph-name="q" unicode="q" horiz-adv-x="1168" 
d="M111 572c0 150 37.501 270 112.501 360s174.833 135 299.5 135c144 0 250.333 -54.667 319 -164h5v148h165v-1400h-172v499h-5c-24 -48 -63.833 -87.833 -119.5 -119.5s-120.834 -47.5 -195.501 -47.5c-124.667 0 -224 45.5 -298 136.5s-111 214.167 -111 369.5v83z
M557.001 917c-85.333 0 -152.167 -31.1689 -200.5 -93.502s-72.5 -149.166 -72.5 -260.499v-69c0 -111.333 24.333 -199.666 73 -264.999s116 -98 202 -98c88 0 157.333 32.833 208 98.5s76 153.834 76 264.501v69c0 107.333 -25.5 193.166 -76.5 257.499
s-120.833 96.5 -209.5 96.5z" />
    <glyph glyph-name="r" unicode="r" horiz-adv-x="693" 
d="M153 0v1051h172v-129h5c19.333 38.667 50.5 72.5 93.5 101.5s98.167 43.5 165.5 43.5c20 0 41.667 -1.66699 65 -5v-157c-16 2.66699 -44 4 -84 4c-162.667 0 -244 -86 -244 -258v-651h-173z" />
    <glyph glyph-name="s" unicode="s" horiz-adv-x="992" 
d="M110 750c0 53.333 10.6611 100.838 31.9941 142.505s50.333 75 87 100s77.834 43.833 123.501 56.5s94.5 19 146.5 19c118.667 0 210.667 -29.667 276 -89s98 -134.666 98 -225.999h-160c-1.33301 22 -6 42.5 -14 61.5s-20 37.333 -36 55s-38.5 31.667 -67.5 42
s-63.167 15.5 -102.5 15.5c-64.667 0 -116.667 -13.833 -156 -41.5s-59 -66.834 -59 -117.501c0 -16.667 3 -31.834 9 -45.501s13 -25.334 21 -35.001s19.667 -18.667 35 -27s28.833 -15 40.5 -20s28.334 -10.333 50.001 -16s38.5 -9.66699 50.5 -12s29.667 -5.5 53 -9.5
c44.667 -8 82.834 -16.167 114.501 -24.5s64.167 -20 97.5 -35s60.333 -32.333 81 -52s37.5 -44.834 50.5 -75.501s19.5 -66 19.5 -106c0 -102.667 -37.833 -182.834 -113.5 -240.501s-176.5 -86.5 -302.5 -86.5c-117.333 0 -212 26.667 -284 80s-108 126.666 -108 219.999
h168c8 -49.333 32.333 -88.166 73 -116.499s95.334 -42.5 164.001 -42.5c76.667 0 134.834 15.667 174.501 47s59.5 70.666 59.5 117.999c0 19.333 -2.66699 36.5 -8 51.5s-14.833 28.167 -28.5 39.5s-26.667 20.666 -39 27.999s-31 14.5 -56 21.5s-45.333 12.167 -61 15.5
l-71.5 15c-43.333 8.66699 -81 17.667 -113 27s-64.167 21.833 -96.5 37.5s-58.666 33.334 -78.999 53.001s-36.833 44.167 -49.5 73.5s-19 62.333 -19 99z" />
    <glyph glyph-name="t" unicode="t" horiz-adv-x="690" 
d="M219 1051l0.000976562 261.999h171v-262h208v-144h-208v-615c0 -62 12.167 -103.833 36.5 -125.5s69.166 -32.5 134.499 -32.5c20 0 34.667 0.666992 44 2v-138c-23.333 -4.66699 -52.333 -7 -87 -7c-62 0 -112.667 5.83301 -152 17.5s-69.833 30.834 -91.5 57.501
s-36.5 57.5 -44.5 92.5s-12 80.167 -12 135.5v613h-141v144h142z" />
    <glyph glyph-name="u" unicode="u" horiz-adv-x="1144" 
d="M991 1051v-1051h-171v138h-7c-20 -45.333 -55.833 -82.5 -107.5 -111.5s-117.167 -43.5 -196.5 -43.5c-112 0 -202 31.5 -270 94.5s-102 153.167 -102 270.5v703h173v-654c0 -92 22.833 -158.167 68.5 -198.5s106.5 -60.5 182.5 -60.5c77.333 0 139.5 23.167 186.5 69.5
s70.5 110.5 70.5 192.5v651h173z" />
    <glyph glyph-name="v" unicode="v" horiz-adv-x="938" 
d="M372 0l-368 1051h182l274 -844h6l294 844h174l-377 -1051h-185z" />
    <glyph glyph-name="w" unicode="w" horiz-adv-x="1470" 
d="M1430 1051l-275 -1051h-178l-240 810h-4l-239 -810h-179l-274 1051h174l193 -831h8l237 831h164l238 -831h8l193 831h174z" />
    <glyph glyph-name="x" unicode="x" horiz-adv-x="989" 
d="M757 0l-268 397h-1l-266 -397h-195l361 526l-352 525h206l257 -399h1l257 399h197l-354 -525l362 -526h-205z" />
    <glyph glyph-name="y" unicode="y" horiz-adv-x="959" 
d="M954 1051c-3.33301 -10 -36.167 -102.998 -98.5 -278.998l-184.5 -520c-60.667 -170.667 -91.334 -256.334 -92.001 -257.001l-27 -73c-40 -108.667 -87.667 -184.334 -143 -227.001s-128.333 -64 -219 -64c-36 0 -68.333 3 -97 9v140c22.667 -2.66699 48 -4 76 -4
c60 0 105.833 11.5 137.5 34.5s54.834 62.167 69.501 117.5l16 57l-387 1066h191l284 -860h6l285 860h183z" />
    <glyph glyph-name="z" unicode="z" horiz-adv-x="967" 
d="M100 0v127l564 769v6h-560v149h774v-128l-562 -769v-5h568v-149h-784z" />
    <glyph glyph-name="braceleft" unicode="{" horiz-adv-x="670" 
d="M199 595v-23.001c113.333 -10 170 -84.667 170 -224v-310c0 -74 16.667 -127.667 50 -161s90 -50 170 -50h41v-136h-57c-118.667 0 -209 26.667 -271 80s-93 138.333 -93 255v265c0 72.667 -11.833 124.334 -35.5 155.001s-68.5 46 -134.5 46v181
c66 0 110.833 15.5 134.5 46.5s35.5 82.833 35.5 155.5v236c0 116 30.833 199.333 92.5 250s152.167 76 271.5 76h57v-135h-41c-80 0 -136.667 -16.667 -170 -50s-50 -87 -50 -161v-275c0 -136 -56.667 -209.667 -170 -221z" />
    <glyph glyph-name="bar" unicode="|" horiz-adv-x="670" 
d="M410 -309h-150v1746h150v-1746z" />
    <glyph glyph-name="braceright" unicode="}" horiz-adv-x="670" 
d="M471 572v23.001c-113.333 11.333 -170 85 -170 221v275c0 74 -16.667 127.667 -50 161s-90.333 50 -171 50h-41v135h58c119.333 0 209.833 -25.5 271.5 -76.5s92.5 -134.167 92.5 -249.5v-236c0 -72.667 11.833 -124.5 35.5 -155.5s68.167 -46.5 133.5 -46.5v-181
c-65.333 0 -109.833 -15.333 -133.5 -46s-35.5 -82.334 -35.5 -155.001v-265c-0.666992 -116.667 -32 -201.667 -94 -255s-152 -80 -270 -80h-58v136h41c80.667 0 137.667 16.667 171 50s50 87 50 161v310c0 139.333 56.667 214 170 224z" />
    <glyph glyph-name="asciitilde" unicode="~" horiz-adv-x="1113" 
d="M764 493c-40 0 -77.334 7.50098 -112.001 22.501s-64 33.167 -88 54.5s-46.833 42.666 -68.5 63.999s-44.5 39.5 -68.5 54.5s-48.333 22.5 -73 22.5c-39.333 0 -70.166 -16.5 -92.499 -49.5s-34.5 -74.833 -36.5 -125.5h-152c-0.666992 90 22.833 166.833 70.5 230.5
s116.167 95.5 205.5 95.5c40.667 0 78.5 -7.5 113.5 -22.5s64.5 -33.333 88.5 -55s46.667 -43.167 68 -64.5s43.666 -39.5 66.999 -54.5s47.333 -22.5 72 -22.5c38.667 0 69 16.667 91 50s34.333 75.333 37 126h152c0.666992 -58 -8.66602 -111 -27.999 -159
s-50.333 -87.833 -93 -119.5s-93.667 -47.5 -153 -47.5z" />
    <glyph glyph-name="nonbreakingspace" unicode="&#xa0;" horiz-adv-x="410" 
 />
    <glyph glyph-name="exclamdown" unicode="&#xa1;" horiz-adv-x="517" 
d="M356 -275h-195l22 958h151zM373 992c0 -31.333 -11.167 -58.166 -33.5 -80.499s-49.5 -33.5 -81.5 -33.5c-31.333 0 -58.333 11.167 -81 33.5s-34 49.166 -34 80.499s11.333 58 34 80s49.667 33 81 33c32 0 59.167 -11 81.5 -33s33.5 -48.667 33.5 -80z" />
    <glyph glyph-name="cent" unicode="&#xa2;" horiz-adv-x="1138" 
d="M990 495c-3.33301 -84.667 -35.8311 -155 -97.498 -211s-141.834 -88.667 -240.501 -98v-201h-138v202c-113.333 13.333 -203 59.833 -269 139.5s-99 183.167 -99 310.5v104c0 125.333 33.167 227.833 99.5 307.5s155.833 126.167 268.5 139.5v201h138v-201
c96 -10.667 174.333 -45.667 235 -105s92.334 -131.333 95.001 -216h-165c-8.66699 54.667 -34.167 98 -76.5 130s-94.5 48 -156.5 48c-84.667 0 -150.834 -27.333 -198.501 -82s-71.5 -130.667 -71.5 -228v-100c0 -92 24.167 -164.5 72.5 -217.5
s114.166 -79.5 197.499 -79.5c138 0 218 52.333 240 157h166z" />
    <glyph glyph-name="sterling" unicode="&#xa3;" horiz-adv-x="1138" 
d="M401 144h620.998v-144h-893v141c76 16 137.167 53.667 183.5 113s69.5 129 69.5 209c0 44.667 -7.66699 97.667 -23 159h-239v129h200c-34 110 -51 195 -51 255c0 120 40.833 214.667 122.5 284s192.5 104 332.5 104c86.667 0 168.334 -17.667 245.001 -53v-152
c-75.333 36 -153.666 54 -234.999 54c-88 0 -158.833 -21.667 -212.5 -65s-80.5 -102 -80.5 -176c0 -59.333 16 -143 48 -251h393v-129h-355c13.333 -54.667 20 -105 20 -151c0 -144.667 -48.667 -248.667 -146 -312v-15z" />
    <glyph glyph-name="currency" unicode="&#xa4;" horiz-adv-x="1138" 
d="M947 171l-175 175.001c-61.333 -39.333 -128 -59 -200 -59c-74.667 0 -143 21 -205 63l-178 -179l-98 98l177 178c-44 62 -66 131.333 -66 208c0 75.333 20.333 142.666 61 201.999l-172 173l99 99l170 -172c63.333 45.333 134 68 212 68
c75.333 0 144.333 -21.333 207 -64l167 168l99 -99l-167 -168c42 -63.333 63 -132.333 63 -207c0 -78.667 -23 -150 -69 -214l173 -172zM326 655.001c0 -67.333 24 -125 72 -173s106 -72 174 -72c67.333 0 125.333 24 174 72s73 105.667 73 173
c0 68 -24.333 126.167 -73 174.5s-106.667 72.5 -174 72.5c-68 0 -126 -24.167 -174 -72.5s-72 -106.5 -72 -174.5z" />
    <glyph glyph-name="yen" unicode="&#xa5;" horiz-adv-x="1138" 
d="M943 286h-286v-286h-174v286h-288v123h288v147h-288v123h235l-384 686h199l320 -606h10l319 606h198l-382 -686h233v-123h-286v-147h286v-123z" />
    <glyph glyph-name="brokenbar" unicode="&#xa6;" horiz-adv-x="670" 
d="M410 764h-150v673h150v-673zM410 -309h-150v674h150v-674z" />
    <glyph glyph-name="section" unicode="&#xa7;" horiz-adv-x="930" 
d="M684 72c0 23.333 -5.1709 44.335 -15.5039 63.002s-20.333 33.167 -30 43.5s-29.334 21.166 -59.001 32.499s-50.667 18.666 -63 21.999s-39.166 10 -80.499 20c-4.66699 1.33301 -8.33398 2.33301 -11.001 3c-51.333 12.667 -95.166 26.167 -131.499 40.5
s-70.833 33 -103.5 56s-57.334 51.833 -74.001 86.5s-25 75 -25 121c0 58.667 16.333 108 49 148s72.334 71.667 119.001 95v8c-108.667 61.333 -163 146.333 -163 255c0 70 17.833 130.333 53.5 181s81.334 88 137.001 112s117.167 36 184.5 36c108 0 196 -29.667 264 -89
s102 -133.666 102 -222.999h-158c-2.66699 41.333 -22.667 79.5 -60 114.5s-88.666 52.5 -153.999 52.5c-60 0 -108.5 -16.167 -145.5 -48.5s-55.5 -74.833 -55.5 -127.5c0 -24.667 5 -46.5 15 -65.5s21.833 -34.5 35.5 -46.5s33.167 -23 58.5 -33s47.5 -17.5 66.5 -22.5
s44.5 -11.167 76.5 -18.5c34 -8 62.333 -15.333 85 -22s48.834 -15.5 78.501 -26.5s54 -23.833 73 -38.5s37.333 -32 55 -52s30.834 -44 39.501 -72s13 -59.333 13 -94c0 -54.667 -14.5 -103.334 -43.5 -146.001s-64.833 -78 -107.5 -106v-7c44 -28 79.167 -60 105.5 -96
s39.5 -82.667 39.5 -140c0 -103.333 -37 -186 -111 -248s-169 -93 -285 -93c-109.333 0 -201.166 28 -275.499 84s-111.5 131.333 -111.5 226h164c8 -50.667 31.167 -90.5 69.5 -119.5s90.166 -43.5 155.499 -43.5c75.333 0 131.5 16.833 168.5 50.5s55.5 76.167 55.5 127.5
zM573.996 371.002c33.333 12.667 61.3311 37.168 83.998 73.501s34 74.5 34 114.5c0 52 -19 92.5 -57 121.5s-94 51.167 -168 66.5l-78 17c-31.333 -8.66699 -61.333 -30.667 -90 -66s-43 -74.666 -43 -117.999c0 -52.667 18.667 -92.834 56 -120.501
s92.333 -49.834 165 -66.501c0.666992 0 16.834 -3.66699 48.501 -11s47.834 -11 48.501 -11z" />
    <glyph glyph-name="dieresis" unicode="&#xa8;" horiz-adv-x="944" 
d="M299 1200c-25.333 0 -46.833 9 -64.5 27s-26.5 40.333 -26.5 67c0 28 8.66699 51 26 69s39 27 65 27c26.667 0 48.667 -9 66 -27s26 -41 26 -69c0 -26.667 -8.66699 -49 -26 -67s-39.333 -27 -66 -27zM643 1200c-25.333 0 -46.833 9 -64.5 27s-26.5 40.333 -26.5 67
c0 28 8.66699 51 26 69s39 27 65 27c27.333 0 49.833 -9 67.5 -27s26.5 -41 26.5 -69c0 -26.667 -9 -49 -27 -67s-40.333 -27 -67 -27z" />
    <glyph glyph-name="copyright" unicode="&#xa9;" horiz-adv-x="1639" 
d="M506 632l0.000976562 98.998c0 104.667 29.167 186.167 87.5 244.5s137.5 87.5 237.5 87.5c90.667 0 162.5 -24.667 215.5 -74s80.167 -106.666 81.5 -171.999h-125c-2.66699 14 -7 27.667 -13 41s-15.167 27.333 -27.5 42s-29.833 26.334 -52.5 35.001
s-48.667 13 -78 13c-66 0 -116 -18.833 -150 -56.5s-51 -93.167 -51 -166.5v-94c0 -70.667 17.667 -123.834 53 -159.501s84.666 -53.5 147.999 -53.5c100 0 159 37.667 177 113h125c-2.66699 -63.333 -30 -118.166 -82 -164.499s-125.667 -69.5 -221 -69.5
c-100.667 0 -180 29 -238 87s-87 140.667 -87 248zM227.001 639.998c0 -170.667 55.168 -310.832 165.501 -420.499s254.5 -164.5 432.5 -164.5s322.5 54.833 433.5 164.5s166.5 249.834 166.5 420.501v107c0 77.333 -14.667 150.666 -44 219.999s-70 129.166 -122 179.499
s-115.5 90.333 -190.5 120s-156.167 44.5 -243.5 44.5c-116 0 -219.833 -25.167 -311.5 -75.5s-162.334 -118.333 -212.001 -204s-74.5 -180.5 -74.5 -284.5v-107zM825.002 -64c-139.333 0 -264.001 30.666 -374.001 91.999s-195.167 145.833 -255.5 253.5
s-90.5 228.5 -90.5 362.5v103c0 94.667 18 184 54 268s85.333 156.667 148 218s139 109.833 229 145.5s186.333 53.5 289 53.5c103.333 0 200 -18 290 -54s166.167 -84.833 228.5 -146.5s111.5 -134.5 147.5 -218.5s54 -172.667 54 -266v-103
c0 -100.667 -17.667 -194.667 -53 -282s-84.166 -162.166 -146.499 -224.499s-138.5 -111.5 -228.5 -147.5s-187.333 -54 -292 -54z" />
    <glyph glyph-name="ordfeminine" unicode="&#xaa;" horiz-adv-x="671" 
d="M438 793c-33.333 -59.333 -92.667 -89.001 -178 -89.001c-64 0 -115.667 17.833 -155 53.5s-59 83.834 -59 144.501c0 59.333 20.333 106 61 140s98.667 51 174 51h156v59c0 32.667 -9.33301 58 -28 76s-45 27 -79 27c-32.667 0 -58.5 -8 -77.5 -24
s-29.5 -37.333 -31.5 -64h-151c3.33301 61.333 26.5 111.333 69.5 150s107.5 58 193.5 58c79.333 0 143 -18.667 191 -56s72 -92.333 72 -165v-440h-151v79h-7zM311.999 820.999c35.333 0 64.999 10 88.999 30s36 45.667 36 77v68h-123
c-35.333 0 -62.166 -7.5 -80.499 -22.5s-27.5 -35.5 -27.5 -61.5c0 -28.667 10.333 -51 31 -67s45.667 -24 75 -24z" />
    <glyph glyph-name="guillemotleft" unicode="&#xab;" horiz-adv-x="1252" 
d="M596 565l344 385h175l-339 -384v-6l339 -386h-184l-335 383v8zM120 565l344 385h175l-339 -384v-6l339 -386h-184l-335 383v8z" />
    <glyph glyph-name="logicalnot" unicode="&#xac;" horiz-adv-x="1138" 
d="M1048 98h-151v376h-807v141h958v-517z" />
    <glyph glyph-name="registered" unicode="&#xae;" horiz-adv-x="1006" 
d="M503 566c-118.667 0 -216.835 37.333 -294.502 112s-116.5 169 -116.5 283v57c0 107.333 39.333 197.833 118 271.5s176.334 110.5 293.001 110.5c116 0 213.5 -37.167 292.5 -111.5s118.5 -164.5 118.5 -270.5v-57c0 -114 -38.667 -208.333 -116 -283
s-175.666 -112 -294.999 -112zM502.999 653c94 0 171.501 29.167 232.501 87.5s91.5 131.833 91.5 220.5v57c0 83.333 -30.833 153.833 -92.5 211.5s-138.834 86.5 -231.501 86.5s-169.667 -28.833 -231 -86.5s-92 -128.167 -92 -211.5v-57
c0 -88.667 30.333 -162.167 91 -220.5s138 -87.5 232 -87.5zM438 1131v-127h64c57.333 0 86 21.667 86 65c0 41.333 -25 62 -75 62h-75zM437 790l-82.001 0.000976562v404h190c36.667 0 66.834 -11.5 90.501 -34.5s35.5 -51.833 35.5 -86.5
c0 -29.333 -7.5 -54.833 -22.5 -76.5s-34.167 -35.834 -57.5 -42.501l93 -164h-96l-81 153h-70v-153z" />
    <glyph glyph-name="macron" unicode="&#xaf;" horiz-adv-x="945" 
d="M745 1242h-546v116h546v-116z" />
    <glyph glyph-name="degree" unicode="&#xb0;" horiz-adv-x="537" 
d="M270 940c-62 0 -114.5 21.6689 -157.5 65.002s-64.5 95.666 -64.5 156.999s21.5 113.5 64.5 156.5s95.5 64.5 157.5 64.5c60.667 0 112.667 -21.5 156 -64.5s65 -95.167 65 -156.5c0 -60.667 -21.667 -112.834 -65 -156.501s-95.333 -65.5 -156 -65.5zM270 1047
c31.333 0 58.167 11.5 80.5 34.5s33.5 49.833 33.5 80.5c0 32.667 -11 60 -33 82s-49 33 -81 33c-31.333 0 -58.333 -11.167 -81 -33.5s-34 -49.5 -34 -81.5c0 -30.667 11.5 -57.5 34.5 -80.5s49.833 -34.5 80.5 -34.5z" />
    <glyph glyph-name="plusminus" unicode="&#xb1;" horiz-adv-x="1138" 
d="M637 657v-288h-141v288h-404v139h404v275h141v-275h406v-139h-406zM1046 119h-951v140h951v-140z" />
    <glyph glyph-name="two.sups" unicode="&#xb2;" horiz-adv-x="562" 
d="M191 1505h-152v9c0 56 20.5 104.667 61.5 146s99.833 62 176.5 62c71.333 0 128.666 -17.667 171.999 -53s65 -80 65 -134c0 -10 -0.5 -19.667 -1.5 -29s-3.33301 -18.666 -7 -27.999s-6.66699 -17.333 -9 -24s-6.66602 -14.667 -12.999 -24s-10.833 -16.333 -13.5 -21
s-8.33398 -11.834 -17.001 -21.501l-17 -19c-2.66699 -3 -9 -9.66699 -19 -20l-18 -18.5l-129 -138v-5h255v-128h-476v100l237 242c14.667 15.333 25.834 27.5 33.501 36.5s15.5 21.333 23.5 37s12 30.834 12 45.501c0 21.333 -7.83301 39.5 -23.5 54.5
s-35.167 22.5 -58.5 22.5c-24.667 0 -44.5 -7.83301 -59.5 -23.5s-22.5 -34.834 -22.5 -57.501v-11z" />
    <glyph glyph-name="three.sups" unicode="&#xb3;" horiz-adv-x="574" 
d="M209 1335l0.000976562 115.999h67c26.667 0 48.167 7.16699 64.5 21.5s24.5 32.833 24.5 55.5c0 21.333 -8.16699 39 -24.5 53s-37.5 21 -63.5 21c-26.667 0 -47.834 -8 -63.501 -24s-24.167 -34.667 -25.5 -56h-150c2 60.667 24.667 109.167 68 145.5s103 54.5 179 54.5
c68.667 0 125.5 -16 170.5 -48s67.833 -73.333 68.5 -124c0.666992 -42 -11.5 -75.833 -36.5 -101.5s-52.167 -40.167 -81.5 -43.5v-8c36 -2 67.833 -16.5 95.5 -43.5s41.5 -63.833 41.5 -110.5c0 -59.333 -25.5 -106.833 -76.5 -142.5s-113.833 -53.5 -188.5 -53.5
c-79.333 0 -140.5 19.333 -183.5 58s-64.833 87 -65.5 145h149c1.33301 -24 11.5 -43.5 30.5 -58.5s43.167 -22.5 72.5 -22.5c30.667 0 55 7.83301 73 23.5s26.667 35.834 26 60.501c0 24 -8.83301 43.667 -26.5 59s-42.5 23 -74.5 23h-70z" />
    <glyph glyph-name="acute" unicode="&#xb4;" horiz-adv-x="945" 
d="M446 1187h-132l184 273h175z" />
    <glyph glyph-name="mugreek" unicode="&#x3bc;" horiz-adv-x="1227" 
d="M156 -349v1400h173v-657c0 -79.333 20 -141.833 60 -187.5s96.667 -68.5 170 -68.5c80 0 144.833 25 194.5 75s74.5 109.667 74.5 179v659h173v-792c0 -49.333 6.16699 -82.5 18.5 -99.5s35.166 -25.5 68.499 -25.5c16.667 0 31.334 1.66699 44.001 5v-140
c-22.667 -6 -51 -9 -85 -9c-124.667 0 -192.667 53.333 -204 160l-2 21h-5c-26 -58 -63 -103.833 -111 -137.5s-104.333 -50.5 -169 -50.5c-48 0 -92.5 10.833 -133.5 32.5s-70.167 51.834 -87.5 90.501h-7v-455h-172z" />
    <glyph glyph-name="mugreek" unicode="&#xb5;" horiz-adv-x="1227" 
d="M156 -349v1400h173v-657c0 -79.333 20 -141.833 60 -187.5s96.667 -68.5 170 -68.5c80 0 144.833 25 194.5 75s74.5 109.667 74.5 179v659h173v-792c0 -49.333 6.16699 -82.5 18.5 -99.5s35.166 -25.5 68.499 -25.5c16.667 0 31.334 1.66699 44.001 5v-140
c-22.667 -6 -51 -9 -85 -9c-124.667 0 -192.667 53.333 -204 160l-2 21h-5c-26 -58 -63 -103.833 -111 -137.5s-104.333 -50.5 -169 -50.5c-48 0 -92.5 10.833 -133.5 32.5s-70.167 51.834 -87.5 90.501h-7v-455h-172z" />
    <glyph glyph-name="paragraph" unicode="&#xb6;" horiz-adv-x="1242" 
d="M728 -210l-170.001 0.000976562v735h-20c-34 0 -69.667 4.16699 -107 12.5s-76 23 -116 44s-75.667 47 -107 78s-57.166 71.167 -77.499 120.5s-30.5 104 -30.5 164c0 65.333 10.333 123.666 31 174.999s46.334 92 77.001 122s66.5 54.667 107.5 74s79.667 32.5 116 39.5
s72.166 10.5 107.499 10.5h189v-1575zM886.999 -209.999v1575h170v-1575h-170z" />
    <glyph glyph-name="periodcentered" unicode="&#xb7;" horiz-adv-x="606" 
d="M186 541c0 32.667 11.5 60.5 34.5 83.5s50.5 34.5 82.5 34.5c32.667 0 60.5 -11.5 83.5 -34.5s34.5 -50.833 34.5 -83.5c0 -32 -11.5 -59.5 -34.5 -82.5s-50.833 -34.5 -83.5 -34.5c-32 0 -59.5 11.5 -82.5 34.5s-34.5 50.5 -34.5 82.5z" />
    <glyph glyph-name="cedilla" unicode="&#xb8;" horiz-adv-x="945" 
d="M351 -234l-0.000976562 78l61 165h120l-54 -146c65.333 0 117 -13.667 155 -41s57 -67.333 57 -120c0 -60 -20.667 -105.667 -62 -137s-94.666 -48.333 -159.999 -51c-54.667 -2.66699 -105 2.33301 -151 15v104c29.333 -8.66699 68 -13 116 -13c32.667 0 60.5 6 83.5 18
s34.5 32 34.5 60c0 16 -3.83301 29 -11.5 39s-20 16.833 -37 20.5s-31.667 6 -44 7s-30.833 1.5 -55.5 1.5h-52z" />
    <glyph glyph-name="one.sups" unicode="&#xb9;" horiz-adv-x="420" 
d="M351 1059l-160.999 0.000976562v502h-8c-5.33301 -2 -28.833 -16.833 -70.5 -44.5s-66.834 -44.834 -75.501 -51.501v144c77.333 53.333 129.333 87 156 101h159v-651z" />
    <glyph glyph-name="ordmasculine" unicode="&#xba;" horiz-adv-x="703" 
d="M353 1376c93.333 0 166 -28.666 218 -85.999s78 -132 78 -224v-48c0 -96.667 -25.833 -173.334 -77.5 -230.001s-124.5 -85 -218.5 -85c-94.667 0 -168.167 28.333 -220.5 85s-78.5 133 -78.5 229v49c0 92 26.333 166.667 79 224s126 86 220 86zM352 1253
c-45.333 0 -79.333 -17.167 -102 -51.5s-34 -79.833 -34 -136.5v-50c0 -55.333 11.333 -100.333 34 -135s56.667 -52 102 -52c44.667 0 78.334 17.5 101.001 52.5s34 79.833 34 134.5v50c0 56.667 -11.333 102.167 -34 136.5s-56.334 51.5 -101.001 51.5z" />
    <glyph glyph-name="guillemotright" unicode="&#xbb;" horiz-adv-x="1252" 
d="M1124 565v-8l-335 -383h-184l339 386v6l-339 384h175zM648 565v-8l-335 -383h-184l339 386v6l-339 384h175z" />
    <glyph glyph-name="onequarter" unicode="&#xbc;" horiz-adv-x="1394" 
d="M351 714l-160.999 0.000976562v502h-8c-5.33301 -2 -28.833 -16.833 -70.5 -44.5s-66.834 -44.834 -75.501 -51.501v144c77.333 53.333 129.333 87 156 101h159v-651zM260.001 0.000976562h-166l525 687l516 678h166l-523 -685zM1068 651.001h228v-416h76v-126h-76v-109
h-152v109h-314v127c56.667 112 136 250.333 238 415zM971.001 235.001h173.001v299h-6c-74.667 -124.667 -130.334 -223.667 -167.001 -297v-2z" />
    <glyph glyph-name="onehalf" unicode="&#xbd;" horiz-adv-x="1423" 
d="M351 714l-160.999 0.000976562v502h-8c-5.33301 -2 -28.833 -16.833 -70.5 -44.5s-66.834 -44.834 -75.501 -51.501v144c77.333 53.333 129.333 87 156 101h159v-651zM242.001 0.000976562h-166l525 687l516 678h166l-523 -685zM1052 446.001h-152v9
c0 56 20.5 104.667 61.5 146s99.833 62 176.5 62c71.333 0 128.666 -17.667 171.999 -53s65 -80 65 -134c0 -10 -0.5 -19.667 -1.5 -29s-3.33301 -18.666 -7 -27.999s-6.66699 -17.333 -9 -24s-6.66602 -14.667 -12.999 -24s-10.833 -16.333 -13.5 -21
s-8.33398 -11.834 -17.001 -21.501l-17 -19c-2.66699 -3 -9 -9.66699 -19 -20l-18 -18.5l-129 -138v-5h255v-128h-476v100l237 242c14.667 15.333 25.834 27.5 33.501 36.5s15.5 21.333 23.5 37s12 30.834 12 45.501c0 21.333 -7.83301 39.5 -23.5 54.5
s-35.167 22.5 -58.5 22.5c-24.667 0 -44.5 -7.83301 -59.5 -23.5s-22.5 -34.834 -22.5 -57.501v-11z" />
    <glyph glyph-name="threequarters" unicode="&#xbe;" horiz-adv-x="1407" 
d="M209 990l0.000976562 115.999h67c26.667 0 48.167 7.16699 64.5 21.5s24.5 32.833 24.5 55.5c0 21.333 -8.16699 39 -24.5 53s-37.5 21 -63.5 21c-26.667 0 -47.834 -8 -63.501 -24s-24.167 -34.667 -25.5 -56h-150c2 60.667 24.667 109.167 68 145.5s103 54.5 179 54.5
c68.667 0 125.5 -16 170.5 -48s67.833 -73.333 68.5 -124c0.666992 -42 -11.5 -75.833 -36.5 -101.5s-52.167 -40.167 -81.5 -43.5v-8c36 -2 67.833 -16.5 95.5 -43.5s41.5 -63.833 41.5 -110.5c0 -59.333 -25.5 -106.833 -76.5 -142.5s-113.833 -53.5 -188.5 -53.5
c-79.333 0 -140.5 19.333 -183.5 58s-64.833 87 -65.5 145h149c1.33301 -24 11.5 -43.5 30.5 -58.5s43.167 -22.5 72.5 -22.5c30.667 0 55 7.83301 73 23.5s26.667 35.834 26 60.501c0 24 -8.83301 43.667 -26.5 59s-42.5 23 -74.5 23h-70zM273.001 -0.000976562h-166
l525 687l516 678h166l-523 -685zM1081 650.999h228v-416h76v-126h-76v-109h-152v109h-314v127c56.667 112 136 250.333 238 415zM984.001 234.999h173.001v299h-6c-74.667 -124.667 -130.334 -223.667 -167.001 -297v-2z" />
    <glyph glyph-name="questiondown" unicode="&#xbf;" horiz-adv-x="946" 
d="M881 79c0 -57.333 -8.33496 -108.83 -25.002 -154.497s-38.5 -83 -65.5 -112s-59 -53 -96 -72s-74.167 -32.333 -111.5 -40s-76 -11.5 -116 -11.5c-52 0 -101.5 7 -148.5 21s-89.5 34.667 -127.5 62s-68.167 63.166 -90.5 107.499s-33.5 94.5 -33.5 150.5
c0 32 4 62.167 12 90.5s17.333 52.5 28 72.5s25.834 41 45.501 63s36.5 39.167 50.5 51.5s33 28.166 57 47.499c64.667 51.333 107 91 127 119s30 69 30 123v61h168v-87c0.666992 -27.333 -2.66602 -53.666 -9.99902 -78.999s-16.333 -47.333 -27 -66
s-25.5 -38.334 -44.5 -59.001s-36 -37.667 -51 -51s-34.5 -29.333 -58.5 -48c-29.333 -23.333 -50.833 -41.333 -64.5 -54s-28.5 -28.5 -44.5 -47.5s-27 -38.5 -33 -58.5s-9 -42.667 -9 -68c0 -68.667 22.167 -119.834 66.5 -153.501s99.5 -50.5 165.5 -50.5
c78 0 137.667 22.5 179 67.5s62 103.5 62 175.5h165zM611.998 992.003c0 -31.333 -11.333 -58.166 -34 -80.499s-49.667 -33.5 -81 -33.5c-32 0 -59.167 11.167 -81.5 33.5s-33.5 49.166 -33.5 80.499s11.167 58 33.5 80s49.5 33 81.5 33c31.333 0 58.333 -11 81 -33
s34 -48.667 34 -80z" />
    <glyph glyph-name="Agrave" unicode="&#xc0;" horiz-adv-x="1200" 
d="M207 0h-182l486 1365h178l486 -1365h-184l-138 410h-508zM602 1159h-5l-205 -608h414zM676 1513h-132l-227 273h174z" />
    <glyph glyph-name="Aacute" unicode="&#xc1;" horiz-adv-x="1200" 
d="M207 0h-182l486 1365h178l486 -1365h-184l-138 410h-508zM602 1159h-5l-205 -608h414zM656 1513h-132l185 273h174z" />
    <glyph glyph-name="Acircumflex" unicode="&#xc2;" horiz-adv-x="1200" 
d="M207 0h-182l486 1365h178l486 -1365h-184l-138 410h-508zM602 1159h-5l-205 -608h414zM338 1513l211 296h102l211 -296h-142l-119 180h-2l-119 -180h-142z" />
    <glyph glyph-name="Atilde" unicode="&#xc3;" horiz-adv-x="1200" 
d="M207 0h-182l486 1365h178l486 -1365h-184l-138 410h-508zM602 1159h-5l-205 -608h414zM706 1482c-26.667 0 -51.498 6 -74.498 18s-41 25 -54 39s-27.333 27 -43 39s-30.167 18 -43.5 18c-36 0 -55 -32 -57 -96h-105c0 54 13.833 100 41.5 138s67.5 57 119.5 57
c26.667 0 51.667 -6 75 -18s41.666 -25 54.999 -39s27.666 -27 42.999 -39s29.333 -18 42 -18c19.333 0 34 9.83301 44 29.5s16.333 42.167 19 67.5h105c0 -50 -14.667 -95.167 -44 -135.5s-70.333 -60.5 -123 -60.5z" />
    <glyph glyph-name="Adieresis" unicode="&#xc4;" horiz-adv-x="1200" 
d="M207 0h-182l486 1365h178l486 -1365h-184l-138 410h-508zM602 1159h-5l-205 -608h414zM446 1495c-24.667 0 -45.334 8.66699 -62.001 26s-25 38.666 -25 63.999c0 26 8.33301 47.667 25 65s37.334 26 62.001 26c25.333 0 46.333 -8.5 63 -25.5s25 -38.833 25 -65.5
c0 -25.333 -8.5 -46.666 -25.5 -63.999s-37.833 -26 -62.5 -26zM753 1495c-24.667 0 -45.334 8.66699 -62.001 26s-25 38.666 -25 63.999c0 26 8.33301 47.667 25 65s37.334 26 62.001 26c25.333 0 46.333 -8.5 63 -25.5s25 -38.833 25 -65.5
c0 -25.333 -8.33301 -46.666 -25 -63.999s-37.667 -26 -63 -26z" />
    <glyph glyph-name="Aring" unicode="&#xc5;" horiz-adv-x="1200" 
d="M207 0h-182l486 1365h178l486 -1365h-184l-138 410h-508zM602 1159h-5l-205 -608h414zM600 1494c-52.667 0 -97.5 17.833 -134.5 53.5s-55.5 79.834 -55.5 132.501c0 52 18.5 95.833 55.5 131.5s81.833 53.5 134.5 53.5c53.333 0 98.333 -17.833 135 -53.5
s55 -79.5 55 -131.5c0 -52.667 -18.333 -96.834 -55 -132.501s-81.667 -53.5 -135 -53.5zM498 1680c0 -29.333 9.83301 -54 29.5 -74s43.834 -30 72.501 -30s52.667 10 72 30s29 44.667 29 74c0 28.667 -9.66699 52.834 -29 72.501s-43.333 29.5 -72 29.5
s-52.834 -9.83301 -72.501 -29.5s-29.5 -43.834 -29.5 -72.501z" />
    <glyph glyph-name="AE" unicode="&#xc6;" horiz-adv-x="1850" 
d="M853 1209l-337 -635h409v635h-72zM925 430h-484l-230 -430h-197l742 1365h979v-156h-636v-436h600v-152h-600v-465h636v-156h-810v430z" />
    <glyph glyph-name="Ccedilla" unicode="&#xc7;" horiz-adv-x="1248" 
d="M619 -486c-53.333 0 -97.333 5.00195 -132 15.002v104c34.667 -8.66699 73.334 -13 116.001 -13c36 0 64.667 6.66699 86 20s32 31.666 32 54.999c0 26 -11 44.333 -33 55s-60.333 16 -115 16h-52v78l49 131c-146.667 16.667 -260 78.667 -340 186s-120 250 -120 428v179
c0 196.667 47.167 350.167 141.5 460.5s225.833 165.5 394.5 165.5c145.333 0 265.333 -43.333 360 -130s142 -197 142 -331v-3h-172c-2.66699 91.333 -34.334 165.333 -95.001 222s-138.667 85 -234 85c-116.667 0 -206.334 -40.667 -269.001 -122s-94 -197 -94 -347v-179
c0 -147.333 31.333 -261 94 -341s152.334 -120 269.001 -120c96 0 174.167 26.167 234.5 78.5s91.833 120.833 94.5 205.5h172v-4c0 -118.667 -43.167 -218.834 -129.5 -300.501s-196.5 -126.5 -330.5 -134.5l-40 -110c67.333 0 119.5 -14 156.5 -42s55.5 -67.667 55.5 -119
c0 -59.333 -21.167 -105.5 -63.5 -138.5s-101.5 -49.5 -177.5 -49.5z" />
    <glyph glyph-name="Egrave" unicode="&#xc8;" horiz-adv-x="1098" 
d="M983 156v-156h-819v1365h819v-156h-645v-436h609v-152h-609v-465h645zM645 1513h-132l-227 273h174z" />
    <glyph glyph-name="Eacute" unicode="&#xc9;" horiz-adv-x="1098" 
d="M983 156v-156h-819v1365h819v-156h-645v-436h609v-152h-609v-465h645zM625 1513h-132l185 273h174z" />
    <glyph glyph-name="Ecircumflex" unicode="&#xca;" horiz-adv-x="1098" 
d="M983 156v-156h-819v1365h819v-156h-645v-436h609v-152h-609v-465h645zM307 1513l211 296h102l211 -296h-142l-119 180h-2l-119 -180h-142z" />
    <glyph glyph-name="Edieresis" unicode="&#xcb;" horiz-adv-x="1098" 
d="M983 156v-156h-819v1365h819v-156h-645v-436h609v-152h-609v-465h645zM415 1495c-24.667 0 -45.334 8.66699 -62.001 26s-25 38.666 -25 63.999c0 26 8.33301 47.667 25 65s37.334 26 62.001 26c25.333 0 46.333 -8.5 63 -25.5s25 -38.833 25 -65.5
c0 -25.333 -8.5 -46.666 -25.5 -63.999s-37.833 -26 -62.5 -26zM722 1495c-24.667 0 -45.334 8.66699 -62.001 26s-25 38.666 -25 63.999c0 26 8.33301 47.667 25 65s37.334 26 62.001 26c25.333 0 46.333 -8.5 63 -25.5s25 -38.833 25 -65.5
c0 -25.333 -8.33301 -46.666 -25 -63.999s-37.667 -26 -63 -26z" />
    <glyph glyph-name="Igrave" unicode="&#xcc;" horiz-adv-x="502" 
d="M339 0h-175v1365h175v-1365zM327 1513h-132l-227 273h174z" />
    <glyph glyph-name="Iacute" unicode="&#xcd;" horiz-adv-x="502" 
d="M339 0h-175v1365h175v-1365zM307 1513h-132l185 273h174z" />
    <glyph glyph-name="Icircumflex" unicode="&#xce;" horiz-adv-x="502" 
d="M339 0h-175v1365h175v-1365zM-11 1513l211 296h102l211 -296h-142l-119 180h-2l-119 -180h-142z" />
    <glyph glyph-name="Idieresis" unicode="&#xcf;" horiz-adv-x="502" 
d="M339 0h-175v1365h175v-1365zM97 1495c-24.667 0 -45.334 8.66699 -62.001 26s-25 38.666 -25 63.999c0 26 8.33301 47.667 25 65s37.334 26 62.001 26c25.333 0 46.333 -8.5 63 -25.5s25 -38.833 25 -65.5c0 -25.333 -8.5 -46.666 -25.5 -63.999s-37.833 -26 -62.5 -26z
M404 1495c-24.667 0 -45.334 8.66699 -62.001 26s-25 38.666 -25 63.999c0 26 8.33301 47.667 25 65s37.334 26 62.001 26c25.333 0 46.333 -8.5 63 -25.5s25 -38.833 25 -65.5c0 -25.333 -8.33301 -46.666 -25 -63.999s-37.667 -26 -63 -26z" />
    <glyph glyph-name="Eth" unicode="&#xd0;" horiz-adv-x="1369" 
d="M608 0h-438v622h-89v153h89v590h438c198 0 347.5 -57.5 448.5 -172.5s151.5 -284.833 151.5 -509.5c0 -224 -50.5 -393.833 -151.5 -509.5s-250.5 -173.5 -448.5 -173.5zM345 156h253c286 0 429 175.667 429 527s-143 527 -429 527h-253v-435h378v-153h-378v-466z" />
    <glyph glyph-name="Ntilde" unicode="&#xd1;" horiz-adv-x="1361" 
d="M331 0h-167v1365h168l694 -1066h4v1066h167v-1365h-168l-694 1067h-4v-1067zM786 1482c-26.667 0 -51.498 6 -74.498 18s-41 25 -54 39s-27.333 27 -43 39s-30.167 18 -43.5 18c-36 0 -55 -32 -57 -96h-105c0 54 13.833 100 41.5 138s67.5 57 119.5 57
c26.667 0 51.667 -6 75 -18s41.666 -25 54.999 -39s27.666 -27 42.999 -39s29.333 -18 42 -18c19.333 0 34 9.83301 44 29.5s16.333 42.167 19 67.5h105c0 -50 -14.667 -95.167 -44 -135.5s-70.333 -60.5 -123 -60.5z" />
    <glyph glyph-name="Ograve" unicode="&#xd2;" horiz-adv-x="1314" 
d="M285 777l-0.000976562 -202c0 -146.667 34.333 -257.834 103 -333.501s158.334 -113.5 269.001 -113.5c111.333 0 201.166 37.833 269.499 113.5s102.5 186.834 102.5 333.501v202c0 147.333 -34.5 260.833 -103.5 340.5s-158.5 119.5 -268.5 119.5
c-109.333 0 -198.666 -39.833 -267.999 -119.5s-104 -193.167 -104 -340.5zM109.999 575l0.000976562 201.001c0 192 49.667 343 149 453s232.666 165 399.999 165c166.667 0 299.167 -54.833 397.5 -164.5s147.5 -260.834 147.5 -453.501v-201
c0 -190.667 -49.5 -339 -148.5 -445s-232.5 -159 -400.5 -159c-167.333 0 -300 53 -398 159s-147 254.333 -147 445zM731 1513h-132l-227 273h174z" />
    <glyph glyph-name="Oacute" unicode="&#xd3;" horiz-adv-x="1314" 
d="M285 777l-0.000976562 -202c0 -146.667 34.333 -257.834 103 -333.501s158.334 -113.5 269.001 -113.5c111.333 0 201.166 37.833 269.499 113.5s102.5 186.834 102.5 333.501v202c0 147.333 -34.5 260.833 -103.5 340.5s-158.5 119.5 -268.5 119.5
c-109.333 0 -198.666 -39.833 -267.999 -119.5s-104 -193.167 -104 -340.5zM109.999 575l0.000976562 201.001c0 192 49.667 343 149 453s232.666 165 399.999 165c166.667 0 299.167 -54.833 397.5 -164.5s147.5 -260.834 147.5 -453.501v-201
c0 -190.667 -49.5 -339 -148.5 -445s-232.5 -159 -400.5 -159c-167.333 0 -300 53 -398 159s-147 254.333 -147 445zM711 1513h-132l185 273h174z" />
    <glyph glyph-name="Ocircumflex" unicode="&#xd4;" horiz-adv-x="1314" 
d="M285 777l-0.000976562 -202c0 -146.667 34.333 -257.834 103 -333.501s158.334 -113.5 269.001 -113.5c111.333 0 201.166 37.833 269.499 113.5s102.5 186.834 102.5 333.501v202c0 147.333 -34.5 260.833 -103.5 340.5s-158.5 119.5 -268.5 119.5
c-109.333 0 -198.666 -39.833 -267.999 -119.5s-104 -193.167 -104 -340.5zM109.999 575l0.000976562 201.001c0 192 49.667 343 149 453s232.666 165 399.999 165c166.667 0 299.167 -54.833 397.5 -164.5s147.5 -260.834 147.5 -453.501v-201
c0 -190.667 -49.5 -339 -148.5 -445s-232.5 -159 -400.5 -159c-167.333 0 -300 53 -398 159s-147 254.333 -147 445zM393 1513l211 296h102l211 -296h-142l-119 180h-2l-119 -180h-142z" />
    <glyph glyph-name="Otilde" unicode="&#xd5;" horiz-adv-x="1314" 
d="M285 777l-0.000976562 -202c0 -146.667 34.333 -257.834 103 -333.501s158.334 -113.5 269.001 -113.5c111.333 0 201.166 37.833 269.499 113.5s102.5 186.834 102.5 333.501v202c0 147.333 -34.5 260.833 -103.5 340.5s-158.5 119.5 -268.5 119.5
c-109.333 0 -198.666 -39.833 -267.999 -119.5s-104 -193.167 -104 -340.5zM109.999 575l0.000976562 201.001c0 192 49.667 343 149 453s232.666 165 399.999 165c166.667 0 299.167 -54.833 397.5 -164.5s147.5 -260.834 147.5 -453.501v-201
c0 -190.667 -49.5 -339 -148.5 -445s-232.5 -159 -400.5 -159c-167.333 0 -300 53 -398 159s-147 254.333 -147 445zM761 1482c-26.667 0 -51.498 6 -74.498 18s-41 25 -54 39s-27.333 27 -43 39s-30.167 18 -43.5 18c-36 0 -55 -32 -57 -96h-105c0 54 13.833 100 41.5 138
s67.5 57 119.5 57c26.667 0 51.667 -6 75 -18s41.666 -25 54.999 -39s27.666 -27 42.999 -39s29.333 -18 42 -18c19.333 0 34 9.83301 44 29.5s16.333 42.167 19 67.5h105c0 -50 -14.667 -95.167 -44 -135.5s-70.333 -60.5 -123 -60.5z" />
    <glyph glyph-name="Odieresis" unicode="&#xd6;" horiz-adv-x="1314" 
d="M285 777l-0.000976562 -202c0 -146.667 34.333 -257.834 103 -333.501s158.334 -113.5 269.001 -113.5c111.333 0 201.166 37.833 269.499 113.5s102.5 186.834 102.5 333.501v202c0 147.333 -34.5 260.833 -103.5 340.5s-158.5 119.5 -268.5 119.5
c-109.333 0 -198.666 -39.833 -267.999 -119.5s-104 -193.167 -104 -340.5zM109.999 575l0.000976562 201.001c0 192 49.667 343 149 453s232.666 165 399.999 165c166.667 0 299.167 -54.833 397.5 -164.5s147.5 -260.834 147.5 -453.501v-201
c0 -190.667 -49.5 -339 -148.5 -445s-232.5 -159 -400.5 -159c-167.333 0 -300 53 -398 159s-147 254.333 -147 445zM501 1495c-24.667 0 -45.334 8.66699 -62.001 26s-25 38.666 -25 63.999c0 26 8.33301 47.667 25 65s37.334 26 62.001 26c25.333 0 46.333 -8.5 63 -25.5
s25 -38.833 25 -65.5c0 -25.333 -8.5 -46.666 -25.5 -63.999s-37.833 -26 -62.5 -26zM808 1495c-24.667 0 -45.334 8.66699 -62.001 26s-25 38.666 -25 63.999c0 26 8.33301 47.667 25 65s37.334 26 62.001 26c25.333 0 46.333 -8.5 63 -25.5s25 -38.833 25 -65.5
c0 -25.333 -8.33301 -46.666 -25 -63.999s-37.667 -26 -63 -26z" />
    <glyph glyph-name="multiply" unicode="&#xd7;" horiz-adv-x="1138" 
d="M882 76l-313 313l-314 -313l-100 102l312 312l-312 314l101 100l313 -313l313 313l100 -100l-312 -314l312 -312z" />
    <glyph glyph-name="Oslash" unicode="&#xd8;" horiz-adv-x="1312" 
d="M653 -29c-159.333 0 -286 47.667 -380 143l-101 -125l-98 80l119 147c-55.333 97.333 -83 217 -83 359v201c0 192 49.333 343 148 453s231.667 165 399 165c152.667 0 277 -46.333 373 -139l98 121l101 -73l-120 -149c62 -100.667 93 -226.667 93 -378v-201
c0 -190.667 -49.5 -339 -148.5 -445s-232.5 -159 -400.5 -159zM283 575c0 -77.333 10.667 -146.333 32 -207l607 753c-68 78 -157 117 -267 117s-199.5 -39.833 -268.5 -119.5s-103.5 -193.5 -103.5 -341.5v-202zM655 127c111.333 0 201.333 37.833 270 113.5
s103 187.167 103 334.5v202c0 86 -13 161.667 -39 227l-609 -757c66 -80 157.667 -120 275 -120z" />
    <glyph glyph-name="Ugrave" unicode="&#xd9;" horiz-adv-x="1331" 
d="M321 1365l-0.000976562 -888c0 -106.667 31.167 -191.5 93.5 -254.5s145.833 -94.5 250.5 -94.5s188.334 31.667 251.001 95s94 148 94 254v888h173v-911c0 -143.333 -46.333 -259.666 -139 -348.999s-219 -134 -379 -134c-159.333 0 -285.333 44.667 -378 134
s-139 205.666 -139 348.999v911h173zM740.999 1513h-132l-227 273h174z" />
    <glyph glyph-name="Uacute" unicode="&#xda;" horiz-adv-x="1331" 
d="M321 1365l-0.000976562 -888c0 -106.667 31.167 -191.5 93.5 -254.5s145.833 -94.5 250.5 -94.5s188.334 31.667 251.001 95s94 148 94 254v888h173v-911c0 -143.333 -46.333 -259.666 -139 -348.999s-219 -134 -379 -134c-159.333 0 -285.333 44.667 -378 134
s-139 205.666 -139 348.999v911h173zM720.999 1513h-132l185 273h174z" />
    <glyph glyph-name="Ucircumflex" unicode="&#xdb;" horiz-adv-x="1331" 
d="M321 1365l-0.000976562 -888c0 -106.667 31.167 -191.5 93.5 -254.5s145.833 -94.5 250.5 -94.5s188.334 31.667 251.001 95s94 148 94 254v888h173v-911c0 -143.333 -46.333 -259.666 -139 -348.999s-219 -134 -379 -134c-159.333 0 -285.333 44.667 -378 134
s-139 205.666 -139 348.999v911h173zM402.999 1513l211 296h102l211 -296h-142l-119 180h-2l-119 -180h-142z" />
    <glyph glyph-name="Udieresis" unicode="&#xdc;" horiz-adv-x="1331" 
d="M321 1365l-0.000976562 -888c0 -106.667 31.167 -191.5 93.5 -254.5s145.833 -94.5 250.5 -94.5s188.334 31.667 251.001 95s94 148 94 254v888h173v-911c0 -143.333 -46.333 -259.666 -139 -348.999s-219 -134 -379 -134c-159.333 0 -285.333 44.667 -378 134
s-139 205.666 -139 348.999v911h173zM510.999 1495c-24.667 0 -45.334 8.66699 -62.001 26s-25 38.666 -25 63.999c0 26 8.33301 47.667 25 65s37.334 26 62.001 26c25.333 0 46.333 -8.5 63 -25.5s25 -38.833 25 -65.5c0 -25.333 -8.5 -46.666 -25.5 -63.999
s-37.833 -26 -62.5 -26zM817.999 1495c-24.667 0 -45.334 8.66699 -62.001 26s-25 38.666 -25 63.999c0 26 8.33301 47.667 25 65s37.334 26 62.001 26c25.333 0 46.333 -8.5 63 -25.5s25 -38.833 25 -65.5c0 -25.333 -8.33301 -46.666 -25 -63.999s-37.667 -26 -63 -26z
" />
    <glyph glyph-name="Yacute" unicode="&#xdd;" horiz-adv-x="1087" 
d="M630 0h-173v588l-457 777h200l341 -606h6l342 606h198l-457 -776v-589zM599 1513h-132l185 273h174z" />
    <glyph glyph-name="Thorn" unicode="&#xde;" horiz-adv-x="1145" 
d="M164 1365l173 -0.000976562v-263h305c133.333 0 239.166 -33.333 317.499 -100s117.5 -162 117.5 -286c0 -125.333 -39.167 -221.166 -117.5 -287.499s-184.166 -99.5 -317.499 -99.5h-304v-329h-174v1365zM338 947.999l-0.000976562 -466h250
c39.333 0 72.5 1.33301 99.5 4s54.833 8.5 83.5 17.5s51.334 21.833 68.001 38.5s30.5 39.5 41.5 68.5s16.5 64.167 16.5 105.5c0 154.667 -89 232 -267 232h-292z" />
    <glyph glyph-name="germandbls" unicode="&#xdf;" horiz-adv-x="1225" 
d="M335 0l-171.999 -0.000976562v1044c0 122 38 218.167 114 288.5s178.667 105.5 308 105.5c126 0 227.667 -32.333 305 -97s116 -149.334 116 -254.001c0 -50.667 -9 -97.167 -27 -139.5s-40.833 -76.166 -68.5 -101.499s-55.834 -45.333 -84.501 -60s-55.667 -23 -81 -25
v-13c48 0 94.667 -7.66699 140 -23s86.666 -37.5 123.999 -66.5s67.5 -67.167 90.5 -114.5s34.5 -100.333 34.5 -159c0 -65.333 -13.5 -124.166 -40.5 -176.499s-63 -94.5 -108 -126.5s-95.667 -56.5 -152 -73.5s-115.166 -25.5 -176.499 -25.5
c-57.333 0 -106.333 6.33301 -147 19v143c33.333 -12.667 81 -19 143 -19c30 0 58.833 2.66699 86.5 8s55.167 14.333 82.5 27s51 28.5 71 47.5s36.167 43.5 48.5 73.5s18.5 64 18.5 102c0 82 -31.167 147 -93.5 195s-146.5 72 -252.5 72h-77v171h47
c62 0 119.167 23.5 171.5 70.5s78.5 106.833 78.5 179.5c0 65.333 -22 118.333 -66 159s-103.667 61 -179 61c-86.667 0 -150.667 -23.5 -192 -70.5s-62 -113.167 -62 -198.5v-1023z" />
    <glyph glyph-name="agrave" unicode="&#xe0;" horiz-adv-x="1054" 
d="M740 131c-61.333 -98.667 -162.67 -148 -304.003 -148c-102 0 -184.667 29.167 -248 87.5s-95 135.5 -95 231.5c0 93.333 31.833 166.666 95.5 219.999s154.834 80.333 273.501 81h277v107c0 68.667 -19.167 121.5 -57.5 158.5s-93.166 55.5 -164.499 55.5
c-66 0 -118.167 -15.667 -156.5 -47s-60.166 -73.666 -65.499 -126.999h-162c6 96 41.833 173 107.5 231s159.834 87 282.501 87c115.333 0 208.666 -30.167 279.999 -90.5s107 -144.5 107 -252.5v-725h-165v131h-5zM481.996 126c74 0 135.334 20.833 184.001 62.5
s73 95.167 73 160.5v122h-264c-69.333 0 -121 -14.667 -155 -44s-51 -69 -51 -119c0 -58.667 20.667 -103.667 62 -135s91.666 -47 150.999 -47zM606.997 1187h-132l-227 273h175z" />
    <glyph glyph-name="aacute" unicode="&#xe1;" horiz-adv-x="1054" 
d="M740 131c-61.333 -98.667 -162.67 -148 -304.003 -148c-102 0 -184.667 29.167 -248 87.5s-95 135.5 -95 231.5c0 93.333 31.833 166.666 95.5 219.999s154.834 80.333 273.501 81h277v107c0 68.667 -19.167 121.5 -57.5 158.5s-93.166 55.5 -164.499 55.5
c-66 0 -118.167 -15.667 -156.5 -47s-60.166 -73.666 -65.499 -126.999h-162c6 96 41.833 173 107.5 231s159.834 87 282.501 87c115.333 0 208.666 -30.167 279.999 -90.5s107 -144.5 107 -252.5v-725h-165v131h-5zM481.996 126c74 0 135.334 20.833 184.001 62.5
s73 95.167 73 160.5v122h-264c-69.333 0 -121 -14.667 -155 -44s-51 -69 -51 -119c0 -58.667 20.667 -103.667 62 -135s91.666 -47 150.999 -47zM582.997 1187h-132l184 273h175z" />
    <glyph glyph-name="acircumflex" unicode="&#xe2;" horiz-adv-x="1054" 
d="M740 131c-61.333 -98.667 -162.67 -148 -304.003 -148c-102 0 -184.667 29.167 -248 87.5s-95 135.5 -95 231.5c0 93.333 31.833 166.666 95.5 219.999s154.834 80.333 273.501 81h277v107c0 68.667 -19.167 121.5 -57.5 158.5s-93.166 55.5 -164.499 55.5
c-66 0 -118.167 -15.667 -156.5 -47s-60.166 -73.666 -65.499 -126.999h-162c6 96 41.833 173 107.5 231s159.834 87 282.501 87c115.333 0 208.666 -30.167 279.999 -90.5s107 -144.5 107 -252.5v-725h-165v131h-5zM481.996 126c74 0 135.334 20.833 184.001 62.5
s73 95.167 73 160.5v122h-264c-69.333 0 -121 -14.667 -155 -44s-51 -69 -51 -119c0 -58.667 20.667 -103.667 62 -135s91.666 -47 150.999 -47zM266.997 1187l211 301h102l211 -301h-142l-119 184h-2l-119 -184h-142z" />
    <glyph glyph-name="atilde" unicode="&#xe3;" horiz-adv-x="1054" 
d="M740 131c-61.333 -98.667 -162.67 -148 -304.003 -148c-102 0 -184.667 29.167 -248 87.5s-95 135.5 -95 231.5c0 93.333 31.833 166.666 95.5 219.999s154.834 80.333 273.501 81h277v107c0 68.667 -19.167 121.5 -57.5 158.5s-93.166 55.5 -164.499 55.5
c-66 0 -118.167 -15.667 -156.5 -47s-60.166 -73.666 -65.499 -126.999h-162c6 96 41.833 173 107.5 231s159.834 87 282.501 87c115.333 0 208.666 -30.167 279.999 -90.5s107 -144.5 107 -252.5v-725h-165v131h-5zM481.996 126c74 0 135.334 20.833 184.001 62.5
s73 95.167 73 160.5v122h-264c-69.333 0 -121 -14.667 -155 -44s-51 -69 -51 -119c0 -58.667 20.667 -103.667 62 -135s91.666 -47 150.999 -47zM633.997 1185c-29.333 0 -56.6689 6.83301 -82.002 20.5s-45.333 28.5 -60 44.5s-30.667 30.833 -48 44.5s-34 20.5 -50 20.5
c-13.333 0 -24.5 -3.83301 -33.5 -11.5s-15.667 -18 -20 -31s-7.5 -24.833 -9.5 -35.5s-3 -21.667 -3 -33h-117c0 61.333 16 113.833 48 157.5s76.667 65.5 134 65.5c29.333 0 56.833 -6.83301 82.5 -20.5s45.834 -28.5 60.501 -44.5s30.667 -30.833 48 -44.5
s33.666 -20.5 48.999 -20.5c22.667 0 39.834 11.5 51.501 34.5s18.834 48.833 21.501 77.5h118c0 -56.667 -16.833 -108.167 -50.5 -154.5s-80.167 -69.5 -139.5 -69.5z" />
    <glyph glyph-name="adieresis" unicode="&#xe4;" horiz-adv-x="1054" 
d="M740 131c-61.333 -98.667 -162.67 -148 -304.003 -148c-102 0 -184.667 29.167 -248 87.5s-95 135.5 -95 231.5c0 93.333 31.833 166.666 95.5 219.999s154.834 80.333 273.501 81h277v107c0 68.667 -19.167 121.5 -57.5 158.5s-93.166 55.5 -164.499 55.5
c-66 0 -118.167 -15.667 -156.5 -47s-60.166 -73.666 -65.499 -126.999h-162c6 96 41.833 173 107.5 231s159.834 87 282.501 87c115.333 0 208.666 -30.167 279.999 -90.5s107 -144.5 107 -252.5v-725h-165v131h-5zM481.996 126c74 0 135.334 20.833 184.001 62.5
s73 95.167 73 160.5v122h-264c-69.333 0 -121 -14.667 -155 -44s-51 -69 -51 -119c0 -58.667 20.667 -103.667 62 -135s91.666 -47 150.999 -47zM367.997 1200c-25.333 0 -46.833 9 -64.5 27s-26.5 40.333 -26.5 67c0 28 8.66699 51 26 69s39 27 65 27
c26.667 0 48.667 -9 66 -27s26 -41 26 -69c0 -26.667 -8.66699 -49 -26 -67s-39.333 -27 -66 -27zM711.997 1200c-25.333 0 -46.833 9 -64.5 27s-26.5 40.333 -26.5 67c0 28 8.66699 51 26 69s39 27 65 27c27.333 0 49.833 -9 67.5 -27s26.5 -41 26.5 -69
c0 -26.667 -9 -49 -27 -67s-40.333 -27 -67 -27z" />
    <glyph glyph-name="aring" unicode="&#xe5;" horiz-adv-x="1054" 
d="M740 131c-61.333 -98.667 -162.67 -148 -304.003 -148c-102 0 -184.667 29.167 -248 87.5s-95 135.5 -95 231.5c0 93.333 31.833 166.666 95.5 219.999s154.834 80.333 273.501 81h277v107c0 68.667 -19.167 121.5 -57.5 158.5s-93.166 55.5 -164.499 55.5
c-66 0 -118.167 -15.667 -156.5 -47s-60.166 -73.666 -65.499 -126.999h-162c6 96 41.833 173 107.5 231s159.834 87 282.501 87c115.333 0 208.666 -30.167 279.999 -90.5s107 -144.5 107 -252.5v-725h-165v131h-5zM481.996 126c74 0 135.334 20.833 184.001 62.5
s73 95.167 73 160.5v122h-264c-69.333 0 -121 -14.667 -155 -44s-51 -69 -51 -119c0 -58.667 20.667 -103.667 62 -135s91.666 -47 150.999 -47zM528.997 1182c-52.667 0 -97.5 17.833 -134.5 53.5s-55.5 79.834 -55.5 132.501c0 52 18.5 95.833 55.5 131.5
s81.833 53.5 134.5 53.5c53.333 0 98.333 -17.833 135 -53.5s55 -79.5 55 -131.5c0 -52.667 -18.333 -96.834 -55 -132.501s-81.667 -53.5 -135 -53.5zM426.997 1368c0 -29.333 9.83301 -54 29.5 -74s43.834 -30 72.501 -30s52.667 10 72 30s29 44.667 29 74
c0 28.667 -9.66699 52.834 -29 72.501s-43.333 29.5 -72 29.5s-52.834 -9.83301 -72.501 -29.5s-29.5 -43.834 -29.5 -72.501z" />
    <glyph glyph-name="ae" unicode="&#xe6;" horiz-adv-x="1715" 
d="M1189 -17c-172 0 -295.673 67.0029 -371.006 201.003h-1c-36.667 -60.667 -84 -109.334 -142 -146.001s-134 -55 -228 -55c-107.333 0 -193.166 29 -257.499 87s-96.5 135.333 -96.5 232c0 97.333 32 174.666 96 231.999s155 86 273 86h277v90
c0 68.667 -19.167 121.5 -57.5 158.5s-93.166 55.5 -164.499 55.5c-66 0 -118.167 -15.667 -156.5 -47s-60.166 -73.666 -65.499 -126.999h-162c6 96 41.833 173 107.5 231s159.834 87 282.501 87c72 0 136.333 -12.667 193 -38s101.334 -61.333 134.001 -108h1
c74.667 97.333 183 146 325 146c141.333 0 248.833 -45.167 322.5 -135.5s110.5 -210.833 110.5 -361.5v-88h-694v-28c0 -42.667 5.33301 -82.834 16 -120.501s26.5 -71.834 47.5 -102.501s49.5 -55 85.5 -73s77.333 -27 124 -27c68 0 120.5 14.667 157.5 44
s60.833 66 71.5 110h177c-6 -36 -17.667 -70.667 -35 -104s-41.333 -65.5 -72 -96.5s-71.667 -55.833 -123 -74.5s-109.666 -28 -174.999 -28zM914.994 622.003l522.001 -0.000976562v3c0 88 -23.333 159.5 -70 214.5s-110.334 82.5 -191.001 82.5
c-80 0 -143.5 -27.667 -190.5 -83s-70.5 -126.666 -70.5 -213.999v-3zM481.995 126.002c74 0 135.334 20.833 184.001 62.5s73 95.167 73 160.5v133h-256c-142.667 0 -214 -58 -214 -174c0 -58.667 20.667 -103.667 62 -135s91.666 -47 150.999 -47z" />
    <glyph glyph-name="ccedilla" unicode="&#xe7;" horiz-adv-x="1042" 
d="M543 -467c-58 -2 -107.998 3 -149.998 15v105c31.333 -9.33301 70 -14 116 -14c32.667 0 60.5 6.16699 83.5 18.5s34.5 32.5 34.5 60.5c0 11.333 -1.5 21 -4.5 29s-8.33301 14.333 -16 19s-14.834 8.5 -21.501 11.5s-16.5 5 -29.5 6s-23.5 1.66699 -31.5 2
s-20 0.5 -36 0.5h-52v78l53 122c-118.667 13.333 -211.334 65.333 -278.001 156s-100 202.667 -100 336v104c0 144 39 261 117 351s184.333 135 319 135c77.333 0 146.666 -15.833 207.999 -47.5s107.833 -71.667 139.5 -120s49.167 -99.833 52.5 -154.5h-169
c-12 47.333 -38 87.5 -78 120.5s-87.333 49.5 -142 49.5c-86.667 0 -154.167 -30.167 -202.5 -90.5s-72.5 -143.833 -72.5 -250.5v-98c0 -103.333 25 -186.166 75 -248.499s117 -93.5 201 -93.5c62.667 0 113.667 14.5 153 43.5s64 65.833 74 110.5h169
c-16.667 -84.667 -54.167 -153.834 -112.5 -207.501s-136.166 -85.5 -233.499 -95.5l-46 -104c64.667 0 114.667 -13.5 150 -40.5s53 -67.167 53 -120.5c0 -60 -20.667 -105.5 -62 -136.5s-95 -48.167 -161 -51.5z" />
    <glyph glyph-name="egrave" unicode="&#xe8;" horiz-adv-x="1084" 
d="M552 -17c-136 0 -243.5 44.499 -322.5 133.499s-118.5 208.5 -118.5 358.5v118c0 141.333 38.333 255.833 115 343.5s182.667 131.5 318 131.5s241.333 -44.5 318 -133.5s115 -206.833 115 -353.5v-98h-694v-19c0 -101.333 24.333 -182.833 73 -244.5
s115.334 -92.5 200.001 -92.5c60 0 110 14 150 42s68.667 67 86 117h171c-20.667 -91.333 -66.334 -164.666 -137.001 -219.999s-162 -83 -274 -83zM283 621.999h522v3c0 85.333 -24 156.5 -72 213.5s-110.667 85.5 -188 85.5c-78 0 -141.167 -28.667 -189.5 -86
s-72.5 -128.333 -72.5 -213v-3zM622 1187h-132l-227 273h175z" />
    <glyph glyph-name="eacute" unicode="&#xe9;" horiz-adv-x="1084" 
d="M552 -17c-136 0 -243.5 44.499 -322.5 133.499s-118.5 208.5 -118.5 358.5v118c0 141.333 38.333 255.833 115 343.5s182.667 131.5 318 131.5s241.333 -44.5 318 -133.5s115 -206.833 115 -353.5v-98h-694v-19c0 -101.333 24.333 -182.833 73 -244.5
s115.334 -92.5 200.001 -92.5c60 0 110 14 150 42s68.667 67 86 117h171c-20.667 -91.333 -66.334 -164.666 -137.001 -219.999s-162 -83 -274 -83zM283 621.999h522v3c0 85.333 -24 156.5 -72 213.5s-110.667 85.5 -188 85.5c-78 0 -141.167 -28.667 -189.5 -86
s-72.5 -128.333 -72.5 -213v-3zM598 1187h-132l184 273h175z" />
    <glyph glyph-name="ecircumflex" unicode="&#xea;" horiz-adv-x="1084" 
d="M552 -17c-136 0 -243.5 44.499 -322.5 133.499s-118.5 208.5 -118.5 358.5v118c0 141.333 38.333 255.833 115 343.5s182.667 131.5 318 131.5s241.333 -44.5 318 -133.5s115 -206.833 115 -353.5v-98h-694v-19c0 -101.333 24.333 -182.833 73 -244.5
s115.334 -92.5 200.001 -92.5c60 0 110 14 150 42s68.667 67 86 117h171c-20.667 -91.333 -66.334 -164.666 -137.001 -219.999s-162 -83 -274 -83zM283 621.999h522v3c0 85.333 -24 156.5 -72 213.5s-110.667 85.5 -188 85.5c-78 0 -141.167 -28.667 -189.5 -86
s-72.5 -128.333 -72.5 -213v-3zM282 1187l211 301h102l211 -301h-142l-119 184h-2l-119 -184h-142z" />
    <glyph glyph-name="edieresis" unicode="&#xeb;" horiz-adv-x="1084" 
d="M552 -17c-136 0 -243.5 44.499 -322.5 133.499s-118.5 208.5 -118.5 358.5v118c0 141.333 38.333 255.833 115 343.5s182.667 131.5 318 131.5s241.333 -44.5 318 -133.5s115 -206.833 115 -353.5v-98h-694v-19c0 -101.333 24.333 -182.833 73 -244.5
s115.334 -92.5 200.001 -92.5c60 0 110 14 150 42s68.667 67 86 117h171c-20.667 -91.333 -66.334 -164.666 -137.001 -219.999s-162 -83 -274 -83zM283 621.999h522v3c0 85.333 -24 156.5 -72 213.5s-110.667 85.5 -188 85.5c-78 0 -141.167 -28.667 -189.5 -86
s-72.5 -128.333 -72.5 -213v-3zM383 1200c-25.333 0 -46.833 9 -64.5 27s-26.5 40.333 -26.5 67c0 28 8.66699 51 26 69s39 27 65 27c26.667 0 48.667 -9 66 -27s26 -41 26 -69c0 -26.667 -8.66699 -49 -26 -67s-39.333 -27 -66 -27zM727 1200c-25.333 0 -46.833 9 -64.5 27
s-26.5 40.333 -26.5 67c0 28 8.66699 51 26 69s39 27 65 27c27.333 0 49.833 -9 67.5 -27s26.5 -41 26.5 -69c0 -26.667 -9 -49 -27 -67s-40.333 -27 -67 -27z" />
    <glyph glyph-name="igrave" unicode="&#xec;" horiz-adv-x="499" 
d="M163 0v1051h172v-1051h-172zM326 1187h-132l-227 273h175z" />
    <glyph glyph-name="iacute" unicode="&#xed;" horiz-adv-x="499" 
d="M163 0v1051h172v-1051h-172zM302 1187h-132l184 273h175z" />
    <glyph glyph-name="icircumflex" unicode="&#xee;" horiz-adv-x="499" 
d="M163 0v1051h172v-1051h-172zM-14 1187l211 301h102l211 -301h-142l-119 184h-2l-119 -184h-142z" />
    <glyph glyph-name="idieresis" unicode="&#xef;" horiz-adv-x="499" 
d="M163 0v1051h172v-1051h-172zM87 1200c-25.333 0 -46.833 9 -64.5 27s-26.5 40.333 -26.5 67c0 28 8.66699 51 26 69s39 27 65 27c26.667 0 48.667 -9 66 -27s26 -41 26 -69c0 -26.667 -8.66699 -49 -26 -67s-39.333 -27 -66 -27zM431 1200c-25.333 0 -46.833 9 -64.5 27
s-26.5 40.333 -26.5 67c0 28 8.66699 51 26 69s39 27 65 27c27.333 0 49.833 -9 67.5 -27s26.5 -41 26.5 -69c0 -26.667 -9 -49 -27 -67s-40.333 -27 -67 -27z" />
    <glyph glyph-name="eth" unicode="&#xf0;" horiz-adv-x="1106" 
d="M565 -17c-144.667 0 -256.501 45.833 -335.501 137.5s-118.5 211.5 -118.5 359.5v36c0 143.333 38.833 261.5 116.5 354.5s181.5 139.5 311.5 139.5c120.667 0 211.334 -43.333 272.001 -130h9c-3.33301 11.333 -10.666 33 -21.999 65
c-36.667 103.333 -82.334 190.333 -137.001 261l-251 -89l-42 99l221 75c-83.333 94.667 -158.333 170 -225 226h216c58 -48 112.667 -104.667 164 -170l277 97l37 -92l-244 -90c66 -101.333 115.667 -212.333 149 -333s50 -243.667 50 -369v-82
c0 -96 -16 -180.5 -48 -253.5s-82.167 -131.5 -150.5 -175.5s-151.5 -66 -249.5 -66zM562.999 863c-88.667 0 -157.5 -31.333 -206.5 -94s-73.5 -148.667 -73.5 -258v-25c0 -110 24.5 -196.333 73.5 -259s117.833 -94 206.5 -94s157.334 31.333 206.001 94s73 149 73 259v25
c0 109.333 -24.333 195.333 -73 258s-117.334 94 -206.001 94z" />
    <glyph glyph-name="ntilde" unicode="&#xf1;" horiz-adv-x="1150" 
d="M153 0v1051h171v-139h5c24 41.333 61.833 77.666 113.5 108.999s116.167 47 193.5 47c111.333 0 202 -34.5 272 -103.5s105 -165.833 105 -290.5v-674h-172v645c0 86.667 -23.167 152.834 -69.5 198.501s-108.833 68.5 -187.5 68.5
c-85.333 0 -149.833 -25.833 -193.5 -77.5s-65.5 -116.5 -65.5 -194.5v-640h-172zM683 1185c-29.333 0 -56.6689 6.83301 -82.002 20.5s-45.333 28.5 -60 44.5s-30.667 30.833 -48 44.5s-34 20.5 -50 20.5c-13.333 0 -24.5 -3.83301 -33.5 -11.5s-15.667 -18 -20 -31
s-7.5 -24.833 -9.5 -35.5s-3 -21.667 -3 -33h-117c0 61.333 16 113.833 48 157.5s76.667 65.5 134 65.5c29.333 0 56.833 -6.83301 82.5 -20.5s45.834 -28.5 60.501 -44.5s30.667 -30.833 48 -44.5s33.666 -20.5 48.999 -20.5c22.667 0 39.834 11.5 51.501 34.5
s18.834 48.833 21.501 77.5h118c0 -56.667 -16.833 -108.167 -50.5 -154.5s-80.167 -69.5 -139.5 -69.5z" />
    <glyph glyph-name="ograve" unicode="&#xf2;" horiz-adv-x="1125" 
d="M563 1068c142.667 0 253.332 -46 331.999 -138s118 -210.667 118 -356v-94c0 -147.333 -39.167 -267 -117.5 -359s-189.166 -138 -332.499 -138s-254.5 46 -333.5 138s-118.5 211.667 -118.5 359v94c0 145.333 39.667 264 119 356s190.333 138 333 138zM562.998 921
c-89.333 0 -158.333 -31.498 -207 -94.498s-73 -149.167 -73 -258.5v-82c0 -108.667 24.333 -194.834 73 -258.501s117.667 -95.5 207 -95.5c88.667 0 157.167 31.667 205.5 95s72.5 149.666 72.5 258.999v82c0 109.333 -24.167 195.5 -72.5 258.5
s-116.833 94.5 -205.5 94.5zM641.998 1187h-132l-227 273h175z" />
    <glyph glyph-name="oacute" unicode="&#xf3;" horiz-adv-x="1125" 
d="M563 1068c142.667 0 253.332 -46 331.999 -138s118 -210.667 118 -356v-94c0 -147.333 -39.167 -267 -117.5 -359s-189.166 -138 -332.499 -138s-254.5 46 -333.5 138s-118.5 211.667 -118.5 359v94c0 145.333 39.667 264 119 356s190.333 138 333 138zM562.998 921
c-89.333 0 -158.333 -31.498 -207 -94.498s-73 -149.167 -73 -258.5v-82c0 -108.667 24.333 -194.834 73 -258.501s117.667 -95.5 207 -95.5c88.667 0 157.167 31.667 205.5 95s72.5 149.666 72.5 258.999v82c0 109.333 -24.167 195.5 -72.5 258.5
s-116.833 94.5 -205.5 94.5zM617.998 1187h-132l184 273h175z" />
    <glyph glyph-name="ocircumflex" unicode="&#xf4;" horiz-adv-x="1125" 
d="M563 1068c142.667 0 253.332 -46 331.999 -138s118 -210.667 118 -356v-94c0 -147.333 -39.167 -267 -117.5 -359s-189.166 -138 -332.499 -138s-254.5 46 -333.5 138s-118.5 211.667 -118.5 359v94c0 145.333 39.667 264 119 356s190.333 138 333 138zM562.998 921
c-89.333 0 -158.333 -31.498 -207 -94.498s-73 -149.167 -73 -258.5v-82c0 -108.667 24.333 -194.834 73 -258.501s117.667 -95.5 207 -95.5c88.667 0 157.167 31.667 205.5 95s72.5 149.666 72.5 258.999v82c0 109.333 -24.167 195.5 -72.5 258.5
s-116.833 94.5 -205.5 94.5zM301.998 1187l211 301h102l211 -301h-142l-119 184h-2l-119 -184h-142z" />
    <glyph glyph-name="otilde" unicode="&#xf5;" horiz-adv-x="1125" 
d="M563 1068c142.667 0 253.332 -46 331.999 -138s118 -210.667 118 -356v-94c0 -147.333 -39.167 -267 -117.5 -359s-189.166 -138 -332.499 -138s-254.5 46 -333.5 138s-118.5 211.667 -118.5 359v94c0 145.333 39.667 264 119 356s190.333 138 333 138zM562.998 921
c-89.333 0 -158.333 -31.498 -207 -94.498s-73 -149.167 -73 -258.5v-82c0 -108.667 24.333 -194.834 73 -258.501s117.667 -95.5 207 -95.5c88.667 0 157.167 31.667 205.5 95s72.5 149.666 72.5 258.999v82c0 109.333 -24.167 195.5 -72.5 258.5
s-116.833 94.5 -205.5 94.5zM668.998 1185c-29.333 0 -56.6689 6.83301 -82.002 20.5s-45.333 28.5 -60 44.5s-30.667 30.833 -48 44.5s-34 20.5 -50 20.5c-13.333 0 -24.5 -3.83301 -33.5 -11.5s-15.667 -18 -20 -31s-7.5 -24.833 -9.5 -35.5s-3 -21.667 -3 -33h-117
c0 61.333 16 113.833 48 157.5s76.667 65.5 134 65.5c29.333 0 56.833 -6.83301 82.5 -20.5s45.834 -28.5 60.501 -44.5s30.667 -30.833 48 -44.5s33.666 -20.5 48.999 -20.5c22.667 0 39.834 11.5 51.501 34.5s18.834 48.833 21.501 77.5h118
c0 -56.667 -16.833 -108.167 -50.5 -154.5s-80.167 -69.5 -139.5 -69.5z" />
    <glyph glyph-name="odieresis" unicode="&#xf6;" horiz-adv-x="1125" 
d="M563 1068c142.667 0 253.332 -46 331.999 -138s118 -210.667 118 -356v-94c0 -147.333 -39.167 -267 -117.5 -359s-189.166 -138 -332.499 -138s-254.5 46 -333.5 138s-118.5 211.667 -118.5 359v94c0 145.333 39.667 264 119 356s190.333 138 333 138zM562.998 921
c-89.333 0 -158.333 -31.498 -207 -94.498s-73 -149.167 -73 -258.5v-82c0 -108.667 24.333 -194.834 73 -258.501s117.667 -95.5 207 -95.5c88.667 0 157.167 31.667 205.5 95s72.5 149.666 72.5 258.999v82c0 109.333 -24.167 195.5 -72.5 258.5
s-116.833 94.5 -205.5 94.5zM402.998 1200c-25.333 0 -46.833 9 -64.5 27s-26.5 40.333 -26.5 67c0 28 8.66699 51 26 69s39 27 65 27c26.667 0 48.667 -9 66 -27s26 -41 26 -69c0 -26.667 -8.66699 -49 -26 -67s-39.333 -27 -66 -27zM746.998 1200
c-25.333 0 -46.833 9 -64.5 27s-26.5 40.333 -26.5 67c0 28 8.66699 51 26 69s39 27 65 27c27.333 0 49.833 -9 67.5 -27s26.5 -41 26.5 -69c0 -26.667 -9 -49 -27 -67s-40.333 -27 -67 -27z" />
    <glyph glyph-name="divide" unicode="&#xf7;" horiz-adv-x="1138" 
d="M1045 480h-951v137h951v-137zM455 179c0 33.333 10.833 60.668 32.5 82.001s48.167 32 79.5 32c34 0 61.833 -10.5 83.5 -31.5s32.5 -48.5 32.5 -82.5c0 -32 -10.833 -58.5 -32.5 -79.5s-49.5 -31.5 -83.5 -31.5c-30.667 0 -57 10.667 -79 32s-33 47.666 -33 78.999z
M455 923.002c0 32.667 10.833 59.668 32.5 81.001s48.167 32 79.5 32c34 0 61.833 -10.5 83.5 -31.5s32.5 -48.167 32.5 -81.5c0 -32 -10.833 -58.5 -32.5 -79.5s-49.5 -31.5 -83.5 -31.5c-30.667 0 -57 10.667 -79 32s-33 47.666 -33 78.999z" />
    <glyph glyph-name="oslash" unicode="&#xf8;" horiz-adv-x="1125" 
d="M387 194c46 -42 104.668 -62.999 176.001 -62.999c89.333 0 158.166 31.833 206.499 95.5s72.5 150.167 72.5 259.5v82c0 81.333 -14 149.666 -42 204.999zM283.001 486.001c0 -72.667 11.667 -136.001 35 -190.001l409 572c-44 36 -98.667 54 -164 54
c-89.333 0 -158.333 -31.667 -207 -95s-73 -149.666 -73 -258.999v-82zM563.001 -17c-106.667 0 -196.668 26.667 -270.001 80l-103 -142l-96 70l114 158c-64.667 86.667 -97 197 -97 331v94c0 145.333 39.667 264 119 356s190.333 138 333 138
c100.667 0 186 -23.667 256 -71l95 131l94 -71l-101 -141c70.667 -88.667 106 -202.667 106 -342v-94c0 -147.333 -39.167 -267 -117.5 -359s-189.166 -138 -332.499 -138z" />
    <glyph glyph-name="ugrave" unicode="&#xf9;" horiz-adv-x="1144" 
d="M991 1051v-1051h-171v138h-7c-20 -45.333 -55.833 -82.5 -107.5 -111.5s-117.167 -43.5 -196.5 -43.5c-112 0 -202 31.5 -270 94.5s-102 153.167 -102 270.5v703h173v-654c0 -92 22.833 -158.167 68.5 -198.5s106.5 -60.5 182.5 -60.5c77.333 0 139.5 23.167 186.5 69.5
s70.5 110.5 70.5 192.5v651h173zM645 1187h-132l-227 273h175z" />
    <glyph glyph-name="uacute" unicode="&#xfa;" horiz-adv-x="1144" 
d="M991 1051v-1051h-171v138h-7c-20 -45.333 -55.833 -82.5 -107.5 -111.5s-117.167 -43.5 -196.5 -43.5c-112 0 -202 31.5 -270 94.5s-102 153.167 -102 270.5v703h173v-654c0 -92 22.833 -158.167 68.5 -198.5s106.5 -60.5 182.5 -60.5c77.333 0 139.5 23.167 186.5 69.5
s70.5 110.5 70.5 192.5v651h173zM621 1187h-132l184 273h175z" />
    <glyph glyph-name="ucircumflex" unicode="&#xfb;" horiz-adv-x="1144" 
d="M991 1051v-1051h-171v138h-7c-20 -45.333 -55.833 -82.5 -107.5 -111.5s-117.167 -43.5 -196.5 -43.5c-112 0 -202 31.5 -270 94.5s-102 153.167 -102 270.5v703h173v-654c0 -92 22.833 -158.167 68.5 -198.5s106.5 -60.5 182.5 -60.5c77.333 0 139.5 23.167 186.5 69.5
s70.5 110.5 70.5 192.5v651h173zM305 1187l211 301h102l211 -301h-142l-119 184h-2l-119 -184h-142z" />
    <glyph glyph-name="udieresis" unicode="&#xfc;" horiz-adv-x="1144" 
d="M991 1051v-1051h-171v138h-7c-20 -45.333 -55.833 -82.5 -107.5 -111.5s-117.167 -43.5 -196.5 -43.5c-112 0 -202 31.5 -270 94.5s-102 153.167 -102 270.5v703h173v-654c0 -92 22.833 -158.167 68.5 -198.5s106.5 -60.5 182.5 -60.5c77.333 0 139.5 23.167 186.5 69.5
s70.5 110.5 70.5 192.5v651h173zM406 1200c-25.333 0 -46.833 9 -64.5 27s-26.5 40.333 -26.5 67c0 28 8.66699 51 26 69s39 27 65 27c26.667 0 48.667 -9 66 -27s26 -41 26 -69c0 -26.667 -8.66699 -49 -26 -67s-39.333 -27 -66 -27zM750 1200
c-25.333 0 -46.833 9 -64.5 27s-26.5 40.333 -26.5 67c0 28 8.66699 51 26 69s39 27 65 27c27.333 0 49.833 -9 67.5 -27s26.5 -41 26.5 -69c0 -26.667 -9 -49 -27 -67s-40.333 -27 -67 -27z" />
    <glyph glyph-name="yacute" unicode="&#xfd;" horiz-adv-x="959" 
d="M954 1051c-3.33301 -10 -36.167 -102.998 -98.5 -278.998l-184.5 -520c-60.667 -170.667 -91.334 -256.334 -92.001 -257.001l-27 -73c-40 -108.667 -87.667 -184.334 -143 -227.001s-128.333 -64 -219 -64c-36 0 -68.333 3 -97 9v140c22.667 -2.66699 48 -4 76 -4
c60 0 105.833 11.5 137.5 34.5s54.834 62.167 69.501 117.5l16 57l-387 1066h191l284 -860h6l285 860h183zM538.999 1187h-132l184 273h175z" />
    <glyph glyph-name="thorn" unicode="&#xfe;" horiz-adv-x="1159" 
d="M629 -17c-64.667 0 -122.5 14.167 -173.5 42.5s-91.833 66.5 -122.5 114.5h-5v-489h-172v1786h172v-531h5c27.333 49.333 67.333 88.5 120 117.5s113.667 43.5 183 43.5c121.333 0 220.333 -44.167 297 -132.5s115 -208.5 115 -360.5v-97
c0 -151.333 -38.5 -271.5 -115.5 -360.5s-178.167 -133.5 -303.5 -133.5zM612 133c80 0 143.834 31.168 191.501 93.501s71.5 150.166 71.5 263.499v78c0 110.667 -23.5 196.834 -70.5 258.501s-112.833 92.5 -197.5 92.5c-86.667 0 -155.334 -32 -206.001 -96
s-76 -148.667 -76 -254v-79c0 -108.667 25.667 -195.334 77 -260.001s121.333 -97 210 -97z" />
    <glyph glyph-name="ydieresis" unicode="&#xff;" horiz-adv-x="959" 
d="M954 1051c-3.33301 -10 -36.167 -102.998 -98.5 -278.998l-184.5 -520c-60.667 -170.667 -91.334 -256.334 -92.001 -257.001l-27 -73c-40 -108.667 -87.667 -184.334 -143 -227.001s-128.333 -64 -219 -64c-36 0 -68.333 3 -97 9v140c22.667 -2.66699 48 -4 76 -4
c60 0 105.833 11.5 137.5 34.5s54.834 62.167 69.501 117.5l16 57l-387 1066h191l284 -860h6l285 860h183zM323.999 1200c-25.333 0 -46.833 9 -64.5 27s-26.5 40.333 -26.5 67c0 28 8.66699 51 26 69s39 27 65 27c26.667 0 48.667 -9 66 -27s26 -41 26 -69
c0 -26.667 -8.66699 -49 -26 -67s-39.333 -27 -66 -27zM667.999 1200c-25.333 0 -46.833 9 -64.5 27s-26.5 40.333 -26.5 67c0 28 8.66699 51 26 69s39 27 65 27c27.333 0 49.833 -9 67.5 -27s26.5 -41 26.5 -69c0 -26.667 -9 -49 -27 -67s-40.333 -27 -67 -27z" />
    <glyph glyph-name="Amacron" unicode="&#x100;" horiz-adv-x="1200" 
d="M207 0h-182l486 1365h178l486 -1365h-184l-138 410h-508zM602 1159h-5l-205 -608h414zM869 1522h-538v108h538v-108z" />
    <glyph glyph-name="amacron" unicode="&#x101;" horiz-adv-x="1054" 
d="M740 131c-61.333 -98.667 -162.67 -148 -304.003 -148c-102 0 -184.667 29.167 -248 87.5s-95 135.5 -95 231.5c0 93.333 31.833 166.666 95.5 219.999s154.834 80.333 273.501 81h277v107c0 68.667 -19.167 121.5 -57.5 158.5s-93.166 55.5 -164.499 55.5
c-66 0 -118.167 -15.667 -156.5 -47s-60.166 -73.666 -65.499 -126.999h-162c6 96 41.833 173 107.5 231s159.834 87 282.501 87c115.333 0 208.666 -30.167 279.999 -90.5s107 -144.5 107 -252.5v-725h-165v131h-5zM481.996 126c74 0 135.334 20.833 184.001 62.5
s73 95.167 73 160.5v122h-264c-69.333 0 -121 -14.667 -155 -44s-51 -69 -51 -119c0 -58.667 20.667 -103.667 62 -135s91.666 -47 150.999 -47zM801.997 1242h-546v116h546v-116z" />
    <glyph glyph-name="Abreve" unicode="&#x102;" horiz-adv-x="1200" 
d="M207 0h-182l486 1365h178l486 -1365h-184l-138 410h-508zM602 1159h-5l-205 -608h414zM314 1763l118.003 -0.00195312c0 -45.333 14.167 -83.5 42.5 -114.5s70.166 -46.5 125.499 -46.5s97.166 15.5 125.499 46.5s42.5 69.167 42.5 114.5h118
c0 -31.333 -5.66699 -62.166 -17 -92.499s-27.833 -59 -49.5 -86s-51.5 -48.667 -89.5 -65s-81.333 -24.5 -130 -24.5c-39.333 0 -75.333 5.5 -108 16.5s-59.834 25.5 -81.501 43.5s-40 38.667 -55 62s-25.667 47.333 -32 72s-9.5 49.334 -9.5 74.001z" />
    <glyph glyph-name="abreve" unicode="&#x103;" horiz-adv-x="1054" 
d="M740 131c-61.333 -98.667 -162.67 -148 -304.003 -148c-102 0 -184.667 29.167 -248 87.5s-95 135.5 -95 231.5c0 93.333 31.833 166.666 95.5 219.999s154.834 80.333 273.501 81h277v107c0 68.667 -19.167 121.5 -57.5 158.5s-93.166 55.5 -164.499 55.5
c-66 0 -118.167 -15.667 -156.5 -47s-60.166 -73.666 -65.499 -126.999h-162c6 96 41.833 173 107.5 231s159.834 87 282.501 87c115.333 0 208.666 -30.167 279.999 -90.5s107 -144.5 107 -252.5v-725h-165v131h-5zM481.996 126c74 0 135.334 20.833 184.001 62.5
s73 95.167 73 160.5v122h-264c-69.333 0 -121 -14.667 -155 -44s-51 -69 -51 -119c0 -58.667 20.667 -103.667 62 -135s91.666 -47 150.999 -47zM240.997 1458h119.002c0 -46 14.333 -84.833 43 -116.5s70.667 -47.5 126 -47.5s97.166 15.833 125.499 47.5
s42.5 70.5 42.5 116.5h119c0 -32 -5.66699 -63.333 -17 -94s-28 -59.667 -50 -87s-52 -49.333 -90 -66s-81.333 -25 -130 -25s-92.334 8.33301 -131.001 25s-69 38.667 -91 66s-38.5 56.333 -49.5 87s-16.5 62 -16.5 94z" />
    <glyph glyph-name="Aogonek" unicode="&#x104;" horiz-adv-x="1200" 
d="M207 0l-182 -0.000976562l486 1365h178l481 -1351c-58 -13.333 -104 -35.666 -138 -66.999s-51 -67 -51 -107c0 -30.667 10.5 -55.167 31.5 -73.5s49.5 -27.5 85.5 -27.5c24.667 0 51 3 79 9v-114c-28 -13.333 -69.667 -20 -125 -20c-67.333 0 -122 18.5 -164 55.5
s-63 85.833 -63 146.5c0 94.667 52.667 170 158 226v1h-7l-123 367h-508zM602 1159h-5l-205 -608h414z" />
    <glyph glyph-name="aogonek" unicode="&#x105;" horiz-adv-x="1054" 
d="M802 -386c-60 0 -111.004 16 -153.004 48s-63 79.333 -63 142c0 54.667 14.167 100 42.5 136s68.166 69.333 119.499 100v91h-5c-61.333 -98.667 -163.333 -148 -306 -148c-102 0 -184.833 29.167 -248.5 87.5s-95.5 135.5 -95.5 231.5
c0 93.333 31.833 166.666 95.5 219.999s154.834 80.333 273.501 81h277v107c0 68.667 -19.167 121.5 -57.5 158.5s-93.166 55.5 -164.499 55.5c-66 0 -118.167 -15.667 -156.5 -47s-60.166 -73.666 -65.499 -126.999h-162c6 96 41.833 173 107.5 231s159.834 87 282.501 87
c115.333 0 208.666 -30.167 279.999 -90.5s107 -144.5 107 -252.5v-720c-48 -14 -89.5 -35.5 -124.5 -64.5s-52.5 -63.833 -52.5 -104.5c0 -29.333 10.333 -51.833 31 -67.5s47.334 -23.5 80.001 -23.5c30.667 0 58 3 82 9v-118c-31.333 -14.667 -72.666 -22 -123.999 -22z
M481.996 126c74 0 135.334 20.833 184.001 62.5s73 95.167 73 160.5v122h-264c-69.333 0 -121 -14.667 -155 -44s-51 -69 -51 -119c0 -58.667 20.667 -103.667 62 -135s91.666 -47 150.999 -47z" />
    <glyph glyph-name="Cacute" unicode="&#x106;" horiz-adv-x="1248" 
d="M284 768v-179c0 -147.333 31.333 -261 94 -341s152.334 -120 269.001 -120c96 0 174.167 26.167 234.5 78.5s91.833 120.833 94.5 205.5h172v-4c0 -126 -47.5 -230.333 -142.5 -313s-214.833 -124 -359.5 -124c-168.667 0 -300.167 54.5 -394.5 163.5
s-141.5 260.5 -141.5 454.5v179c0 196.667 47.167 350.167 141.5 460.5s225.833 165.5 394.5 165.5c145.333 0 265.333 -43.333 360 -130s142 -197 142 -331v-3h-172c-2.66699 91.333 -34.167 165.333 -94.5 222s-138.5 85 -234.5 85
c-116.667 0 -206.334 -40.667 -269.001 -122s-94 -197 -94 -347zM699 1513h-132l185 273h174z" />
    <glyph glyph-name="cacute" unicode="&#x107;" horiz-adv-x="1042" 
d="M111 478l0.00195312 103.999c0 144 39 261 117 351s184.333 135 319 135c77.333 0 146.666 -15.833 207.999 -47.5s107.833 -71.667 139.5 -120s49.167 -99.833 52.5 -154.5h-169c-12 47.333 -38 87.5 -78 120.5s-87.333 49.5 -142 49.5
c-86.667 0 -154.167 -30.167 -202.5 -90.5s-72.5 -143.833 -72.5 -250.5v-98c0 -103.333 25 -186.166 75 -248.499s117 -93.5 201 -93.5c62.667 0 113.667 14.5 153 43.5s64 65.833 74 110.5h169c-18 -94 -61.5 -168.5 -130.5 -223.5s-161.5 -82.5 -277.5 -82.5
c-90.667 0 -169.334 22 -236.001 66s-116.667 103 -150 177s-50 158 -50 252zM608.002 1187h-132l184 273h175z" />
    <glyph glyph-name="Ccircumflex" unicode="&#x108;" horiz-adv-x="1248" 
d="M284 768v-179c0 -147.333 31.333 -261 94 -341s152.334 -120 269.001 -120c96 0 174.167 26.167 234.5 78.5s91.833 120.833 94.5 205.5h172v-4c0 -126 -47.5 -230.333 -142.5 -313s-214.833 -124 -359.5 -124c-168.667 0 -300.167 54.5 -394.5 163.5
s-141.5 260.5 -141.5 454.5v179c0 196.667 47.167 350.167 141.5 460.5s225.833 165.5 394.5 165.5c145.333 0 265.333 -43.333 360 -130s142 -197 142 -331v-3h-172c-2.66699 91.333 -34.167 165.333 -94.5 222s-138.5 85 -234.5 85
c-116.667 0 -206.334 -40.667 -269.001 -122s-94 -197 -94 -347zM381 1513l211 296h102l211 -296h-142l-119 180h-2l-119 -180h-142z" />
    <glyph glyph-name="ccircumflex" unicode="&#x109;" horiz-adv-x="1042" 
d="M111 478l0.00195312 103.999c0 144 39 261 117 351s184.333 135 319 135c77.333 0 146.666 -15.833 207.999 -47.5s107.833 -71.667 139.5 -120s49.167 -99.833 52.5 -154.5h-169c-12 47.333 -38 87.5 -78 120.5s-87.333 49.5 -142 49.5
c-86.667 0 -154.167 -30.167 -202.5 -90.5s-72.5 -143.833 -72.5 -250.5v-98c0 -103.333 25 -186.166 75 -248.499s117 -93.5 201 -93.5c62.667 0 113.667 14.5 153 43.5s64 65.833 74 110.5h169c-18 -94 -61.5 -168.5 -130.5 -223.5s-161.5 -82.5 -277.5 -82.5
c-90.667 0 -169.334 22 -236.001 66s-116.667 103 -150 177s-50 158 -50 252zM292.002 1187l211 301h102l211 -301h-142l-119 184h-2l-119 -184h-142z" />
    </font>
</defs>
</svg>
