<svg width="150" height="150" viewBox="0 0 150 150" fill="none" xmlns="http://www.w3.org/2000/svg">
<rect width="150" height="150" fill="#E5E5E5"/>
<rect width="1440" height="1024" transform="translate(-644 -400)" fill="white"/>
<path d="M73.4366 27.0801V24.5801H73.3943L73.3521 24.5815L73.4366 27.0801ZM45.1953 42.4464L47.4375 43.552L45.1953 42.4464ZM40.5707 53.0598L42.8933 53.9847L42.8933 53.9847L40.5707 53.0598ZM19.0205 55.7173L16.5393 55.4115L16.533 55.4619L16.5289 55.5126L19.0205 55.7173ZM38.996 29.1755L37.6405 27.0749L37.6405 27.0749L38.996 29.1755ZM114.077 34.7633L112.247 36.4671L112.247 36.4674L114.077 34.7633ZM115.329 36.104L113.502 37.8113L113.502 37.8116L115.329 36.104ZM132.674 80.8622L130.175 80.7974V80.7974L132.674 80.8622ZM21.0868 108.103L23.2678 106.88L23.2245 106.803L23.1758 106.729L21.0868 108.103ZM21.0868 103.213L18.8446 102.108H18.8446L21.0868 103.213ZM21.3696 102.623L19.1107 101.552L19.1106 101.552L21.3696 102.623ZM55.5275 65.4959L54.345 63.2932L54.345 63.2932L55.5275 65.4959ZM97.6842 54.2982L97.7159 51.7984L97.7156 51.7984L97.6842 54.2982ZM109.255 45.9388L111.497 44.8332L109.255 45.9388ZM73.3521 24.5815C69.6797 24.7057 63.8235 25.516 58.0414 27.9343C52.2506 30.3561 46.3359 34.4803 42.953 41.3408L47.4375 43.552C50.1162 38.1195 54.8781 34.6769 59.9706 32.5471C65.0717 30.4137 70.3053 29.6874 73.521 29.5787L73.3521 24.5815ZM42.953 41.3408C40.8366 45.6331 39.404 49.2322 38.2481 52.1349L42.8933 53.9847C44.0461 51.0898 45.4161 47.6515 47.4375 43.552L42.953 41.3408ZM38.2481 52.1349C36.6411 56.1703 35.7104 58.4034 34.4427 59.7795C33.4312 60.8775 32.0166 61.599 28.6637 61.599V66.599C32.8219 66.599 35.8241 65.6595 38.1201 63.1672C40.1599 60.953 41.4271 57.6665 42.8933 53.9847L38.2481 52.1349ZM28.6637 61.599C25.1437 61.599 23.4518 60.4412 22.6034 59.3878C21.6731 58.2326 21.4393 56.808 21.5121 55.9221L16.5289 55.5126C16.3721 57.4206 16.827 60.1868 18.7093 62.524C20.6735 64.9629 23.918 66.599 28.6637 66.599V61.599ZM21.5017 56.0232C22.0894 51.2556 27.1705 39.7816 40.3515 31.2761L37.6405 27.0749C23.3648 36.2868 17.3292 49.0036 16.5393 55.4115L21.5017 56.0232ZM40.3515 31.2761C55.0763 21.7744 64.2433 20.5 73.4366 20.5V15.5C63.3431 15.5 53.2234 17.0194 37.6405 27.0749L40.3515 31.2761ZM73.4366 20.5C77.9571 20.5 84.9111 21.4934 92.1565 24.0269C99.3996 26.5595 106.752 30.5675 112.247 36.4671L115.906 33.0594C109.691 26.3866 101.545 22.013 93.8069 19.3071C86.0706 16.602 78.5595 15.5 73.4366 15.5V20.5ZM112.247 36.4674C112.67 36.921 113.089 37.3691 113.502 37.8113L117.155 34.3968C116.741 33.9539 116.325 33.5091 115.906 33.0592L112.247 36.4674ZM113.502 37.8116C118.6 43.2631 122.828 47.81 125.789 54.0538C128.728 60.251 130.499 68.3171 130.175 80.7974L135.174 80.9271C135.512 67.9071 133.674 59.01 130.307 51.9111C126.962 44.8587 122.186 39.7767 117.155 34.3965L113.502 37.8116ZM130.175 80.7974C129.514 106.295 108.297 136.335 74.1254 136.335V141.335C111.59 141.335 134.458 108.513 135.174 80.9271L130.175 80.7974ZM74.1254 136.335C44.406 136.335 28.784 116.725 23.2678 106.88L18.9059 109.325C24.8699 119.968 41.8519 141.335 74.1254 141.335V136.335ZM23.1758 106.729C23.1889 106.749 23.0358 106.483 22.9904 106C22.9494 105.564 23.0003 104.986 23.3291 104.319L18.8446 102.108C17.2978 105.245 18.1209 108.142 18.9979 109.476L23.1758 106.729ZM23.3291 104.319C23.4112 104.152 23.5147 103.934 23.6285 103.694L19.1106 101.552C18.9902 101.806 18.9058 101.984 18.8446 102.108L23.3291 104.319ZM23.6284 103.694C25.728 99.2673 35.2617 79.2127 56.7099 67.6986L54.345 63.2932C31.3896 75.6165 21.2811 96.9755 19.1107 101.552L23.6284 103.694ZM56.7099 67.6986C67.2094 62.0622 75.2225 59.3296 81.667 58.0052C88.1055 56.682 93.0764 56.7404 97.6527 56.798L97.7156 51.7984C93.0999 51.7403 87.6657 51.6679 80.6605 53.1075C73.6613 54.546 65.1921 57.4702 54.345 63.2932L56.7099 67.6986ZM97.6525 56.798C98.5426 56.8093 99.4282 56.8204 100.3 56.8204V51.8204C99.4652 51.8204 98.6112 51.8097 97.7159 51.7984L97.6525 56.798ZM100.3 56.8204C102.81 56.8204 104.956 56.6407 106.72 56.232C108.46 55.8286 110.053 55.1509 111.207 53.9804C113.825 51.326 112.933 47.7445 111.497 44.8332L107.013 47.0444C108.332 49.7208 107.785 50.3301 107.647 50.4696C107.424 50.696 106.864 51.066 105.591 51.3611C104.34 51.6509 102.612 51.8204 100.3 51.8204V56.8204ZM111.497 44.8332C110.814 43.4479 109.362 41.5287 107.395 39.4888C105.386 37.4051 102.713 35.0646 99.4618 32.8667C92.9661 28.4756 84.0482 24.5801 73.4366 24.5801V29.5801C82.8006 29.5801 90.7586 33.0185 96.6616 37.009C99.6097 39.002 102.017 41.1143 103.796 42.9594C105.617 44.8484 106.663 46.3342 107.013 47.0444L111.497 44.8332ZM92.0347 109.904C102.959 109.904 111.755 100.934 111.755 89.9423H106.755C106.755 98.2385 100.132 104.904 92.0347 104.904V109.904ZM111.755 89.9423C111.755 78.9507 102.959 69.9806 92.0347 69.9806V74.9806C100.132 74.9806 106.755 81.6462 106.755 89.9423H111.755ZM92.0347 69.9806C81.1107 69.9806 72.3144 78.9507 72.3144 89.9423H77.3144C77.3144 81.6462 83.9375 74.9806 92.0347 74.9806V69.9806ZM72.3144 89.9423C72.3144 100.934 81.1107 109.904 92.0347 109.904V104.904C83.9375 104.904 77.3144 98.2385 77.3144 89.9423H72.3144Z" fill="url(#paint0_linear)"/>
<path d="M52.3739 121.348C52.3739 121.348 66.7594 115.121 73.2406 125.537" stroke="#D01B7C" stroke-width="2" stroke-linecap="round" stroke-linejoin="round"/>
<path d="M26.913 29.0034C26.913 29.0034 27.5137 23.0656 36.7388 19.9927" stroke="#D01B7C" stroke-width="2" stroke-linecap="round" stroke-linejoin="round"/>
<path d="M18.4261 29.9234C18.4261 29.9234 21.9059 16.1249 35.0138 13.5345" stroke="#D01B7C" stroke-width="2" stroke-linecap="round" stroke-linejoin="round"/>
<path d="M11 29.4502C11 29.4502 12.0898 10.1643 34.5334 6" stroke="#D01B7C" stroke-width="2" stroke-linecap="round" stroke-linejoin="round"/>
<defs>
<linearGradient id="paint0_linear" x1="-1.08139" y1="58.2886" x2="67.0409" y2="155.765" gradientUnits="userSpaceOnUse">
<stop stop-color="#F7941D"/>
<stop offset="0.325967" stop-color="#EC7C30"/>
<stop offset="0.685083" stop-color="#DA316A"/>
<stop offset="1" stop-color="#D01A7C"/>
</linearGradient>
</defs>
</svg>
